<svg width="114" height="174" viewBox="0 0 114 174" fill="none" xmlns="http://www.w3.org/2000/svg">
<path d="M14.5 173.5V148L56.5 123L99.5 148V173.5L56.5 149L14.5 173.5Z" fill="black" fill-opacity="0.35"/>
<path d="M0 158V0H113.5V158L57 125L0 158Z" fill="black"/>
<path d="M6 146V0H107.5V146L56.5 117.5L6 146Z" fill="#E70000"/>
<path d="M8.5 141.5V0H105V141.5L57 114.5L8.5 141.5Z" fill="black" fill-opacity="0.19"/>
<path d="M105 6.5L8.5 8.5V30L105 12V6.5Z" fill="black" fill-opacity="0.19"/>
<path d="M105 44L8.5 53V86L105 66.5V44Z" fill="black" fill-opacity="0.19"/>
<path d="M105 98.5L8.5 108.5V141.5L57 114.5L105 141.5V98.5Z" fill="black" fill-opacity="0.19"/>
<path d="M55.21 10.5508H62.2324L62.3242 10.7344L62.6455 13.3965L62.7373 14.3604L63.1963 14.498L64.6191 15.0029L65.8584 15.5078L66.9141 16.0586L67.2812 16.2881L67.5566 16.1045L68.0156 15.7373L68.7959 15.1406L69.3008 14.7275L70.0352 14.1768L70.4023 13.8555L70.6318 13.7178L70.8154 13.8096L71.3203 14.2227L71.7793 14.6357L72.1924 15.0488L72.5596 15.3701L72.9727 15.8291L76.7363 19.5928L77.0576 19.96L77.3789 20.2812L77.6084 20.6484L77.333 21.0156L76.9658 21.4746L76.5986 21.9795L76.002 22.7139L75.4512 23.4941L75.084 23.999L75.1758 24.2285L75.543 24.9629L76.2314 26.5234L76.9199 28.3135L77.0576 28.5889L78.6641 28.7725L80.8672 29.0479L81.1426 29.1396L81.1885 29.2773V38.5029L81.0967 38.7324L80.7754 38.8701L77.1953 39.375L76.9199 39.4668L76.5527 40.5684L75.8184 42.3584L75.2217 43.6436L75.1758 44.0107L75.3135 44.2861L75.7266 44.8369L76.7363 46.1221L77.1953 46.7188L77.5625 47.2236L77.6084 47.3613L77.2871 47.7285L76.7363 48.3711L72.1006 53.0068L71.7334 53.3281L70.8154 54.2461L70.6318 54.2002L70.0352 53.7412L69.209 53.0986L68.4287 52.4561L67.6484 51.9053L67.3271 51.7217L67.0977 51.7676L66.3174 52.1807L64.8027 52.8232L63.4717 53.2822L62.875 53.4658H62.7832L62.7373 54.1543L62.3242 57.3213L62.2324 57.5967L62.0947 57.6885L56.0361 57.7344H52.5938L52.502 57.6885L52.3643 56.9541L51.9512 53.7871L51.8594 53.4658L50.8955 53.2363L50.1152 52.915L48.0498 52.043L47.499 51.7217L47.3154 51.6758L46.7188 52.1807L46.168 52.5938L45.5713 53.0986L44.8828 53.6035L44.2402 54.1084L44.0107 54.2461L43.2764 53.5576L38.2275 48.5088L38.1357 48.4629V48.3711L37.9521 48.2793L37.5391 47.8203L37.2178 47.4531L37.1719 47.2236L37.3555 46.9482L37.8604 46.3516L38.1816 45.9385L38.8242 45.0664L39.2832 44.4697L39.6045 44.0566L39.5586 43.6895L38.916 42.4043L38.3652 41.0732L37.998 40.1553L37.8145 39.4668L37.4014 39.375L34.418 39.0078L33.6836 38.8701L33.5459 38.5947L33.5 38.2734V29.3232L33.7295 29.0938L34.9229 28.9102L36.7129 28.6807L37.4932 28.5889L37.6768 28.543L37.7686 28.3594L38.4111 26.7529L38.8242 25.7891L39.3291 24.6875L39.6504 24.0908L39.6045 23.8154L39.0537 23.1729L38.5488 22.5303L38.0439 21.9336L37.4932 21.1992L37.126 20.7402L37.1719 20.5107L40.6143 17.0684L40.9355 16.7012L41.3027 16.334L41.6699 16.0127L43.46 14.2227L43.7812 13.8555L44.0107 13.7637L44.4697 14.0391L45.1123 14.498L45.709 14.957L46.3516 15.4619L46.9941 16.0127L47.3613 16.2422L47.5908 16.1963L48.0039 15.9209L48.6924 15.5996L50.2529 14.957L51.9053 14.4062L51.9971 14.1309L52.1807 12.4326L52.2725 11.6523L52.3184 10.8721L52.4561 10.6426L52.5479 10.5967L55.21 10.5508ZM56.8164 18.9502L55.3936 19.0879L54.1543 19.3174L53.0527 19.5928L51.8594 20.0059L50.7119 20.5107L49.7939 21.0156L49.2891 21.3369L48.3711 21.9795L47.8662 22.3926L46.9482 23.2188L46.1221 24.0449V24.1367H46.0303L45.6172 24.6416L45.0664 25.4219L44.4238 26.3857L43.5977 27.9922L43.1846 29.0938L42.9092 30.0117L42.542 31.71L42.3584 33.041V34.877L42.4961 36.0244L42.8174 37.5391L43.1387 38.7324L43.5977 39.9258L44.1025 40.9814L44.6074 41.8535L45.1582 42.6797L45.6631 43.3223L46.2139 43.9648L46.7646 44.5615L47.2695 45.0664L47.7744 45.4795L48.3711 45.9844L49.4727 46.7188L50.3906 47.2695L51.4463 47.7744L52.4102 48.1416L53.8789 48.5547L54.7969 48.7383L55.7607 48.876L56.8623 48.9678H58.0098L59.708 48.7842L60.9014 48.5547L62.0947 48.1875L63.5176 47.6367L64.7568 47.04L66.1338 46.1221L66.6846 45.709L67.3271 45.1582L68.75 43.7354L69.2549 43.0928L69.5762 42.7256L70.127 41.8076L70.54 41.165L70.9531 40.3848L71.458 39.1455L71.8252 37.9521L72.1006 36.7588L72.2842 35.4736L72.3301 34.9229V33.0869L72.1924 31.71L71.917 30.333L71.6416 29.3691L71.3203 28.4971L70.8613 27.4414L70.54 26.7988L69.8057 25.6055L69.209 24.7793L68.75 24.1826L68.2451 23.6318L67.5566 22.9434L67.1895 22.6221L66.6387 22.1631L65.8584 21.6123L65.1699 21.1533L64.3438 20.6943L63.2881 20.1895L62.1406 19.7305L60.9932 19.4092L59.8457 19.1797L58.377 18.9961L57.8262 18.9502H56.8164Z" fill="#FEFED0"/>
<path d="M58.377 69.8975H60.7178L62.2324 69.9434L62.4619 70.0352L63.0586 70.6777L63.4717 71.1826L63.8848 71.6416L64.252 72.1006L64.8027 72.7432L65.2158 73.248L65.7666 73.8906L66.2715 74.4873L66.8682 75.1758L67.2812 75.6807L67.6943 76.1396L68.0156 76.5068L68.5664 77.1494L69.0713 77.792L69.3926 78.0674L69.3008 77.5166L69.2549 76.5986V73.0186L69.3008 69.9434L73.9824 69.8975H75.4053L75.5889 69.9434L75.6348 70.1729V86.6045L75.543 86.6504L69.1631 86.6963L68.7041 86.2373L68.3828 85.8701L68.0156 85.5029L67.6943 85.1357L67.3271 84.7686L67.0059 84.4014L66.4551 83.8047L66.0879 83.4375L65.7666 83.0703L65.2158 82.4736L64.7109 81.9229L63.9766 81.1426L63.5635 80.7295L63.2422 80.3623L62.6455 79.6738L62.2324 79.2148L61.8193 78.8018L61.7734 86.6045L61.6816 86.6504L55.7607 86.6963L55.5771 86.6045L55.5312 86.5127V70.0352L55.5771 69.9434L58.377 69.8975Z" fill="#FEFED0"/>
<path d="M15.7373 89.6797H21.7959L21.9795 89.8633L22.3467 91.1943L22.9893 93.0762L23.4482 94.4072L24.1367 96.5186L24.5039 97.8037L24.6875 98.4004L24.7334 98.5381L24.9629 98.3086L25.9727 95.2793L26.6152 93.3975L27.4873 90.8271L27.7627 89.9092L27.9004 89.6797H33.7295L33.9131 89.7715L34.2344 90.7354L34.877 92.709L35.4277 94.3613L36.2539 96.8857L36.7129 98.2627L36.8506 98.4463V98.5381H36.9424L37.0801 98.125L37.3555 97.207L37.7227 96.0596L38.4111 93.9941L39.0537 92.1123L39.6963 90.1846L39.8799 89.6797H45.5254L45.5713 89.7715L45.2041 90.5059L44.6074 92.25L43.873 94.1318L43.2305 95.9219L42.6797 97.3447L42.083 98.9512L41.4863 100.512L40.6602 102.761L40.1553 103.954L40.1094 104H33.041L32.582 102.807L31.8477 100.649L30.9297 97.9414L30.6543 97.1152V97.0234H30.5625L30.4248 97.4365L30.1035 98.3086L29.4609 100.19L28.543 102.853L28.1299 103.954L28.084 104H21.0156L20.832 103.541L20.0518 101.476L19.3633 99.5938L18.6748 97.7578L17.8027 95.4629L16.9307 93.1221L16.4258 91.7451L15.875 90.1846L15.7373 89.8633V89.6797Z" fill="#FEFED0"/>
<path d="M92.25 69.8975H94.4531L98.9971 69.9434L98.9053 70.127L98.4463 70.4941L97.9873 70.9531L97.6201 71.4121L97.0234 72.0547L96.7021 72.4219L96.0596 73.1104L95.5088 73.7529L94.9121 74.3955L94.8662 74.4873H94.7744L94.6826 74.6709L94.0859 75.3135L93.7646 75.6807L92.9385 76.5986L92.6172 76.9658H92.5254L92.4336 77.1494L91.8828 77.7461L91.4697 78.1592L91.5615 78.3428L92.2959 79.123L92.709 79.582L93.2598 80.1787L93.5811 80.5459L94.1318 81.1426L94.5908 81.6475L94.9121 82.0146L95.5547 82.7031L95.9678 83.208L96.335 83.5752L96.6562 83.9424L97.0693 84.4014L97.7578 85.1357L98.3086 85.7783L98.6299 86.0996L98.9971 86.375V86.6504L97.8955 86.6963H92.0205L91.6992 86.5586L91.2861 86.0996L90.9648 85.7324L90.1387 84.8145L89.8174 84.4473L89.3125 83.8965L88.8994 83.4375L88.4863 82.9326L87.7979 82.1982L87.2471 81.6016L86.7422 81.0967L86.3291 80.5918L86.0996 80.4082H84.6768L84.6309 80.4541L84.585 86.6045L84.5391 86.6504L79.7656 86.6963H78.3428L78.0674 86.6045L78.0215 86.4668V70.0352L78.0674 69.9434H84.585V76.0479L86.0537 76.002L86.3291 75.8643L86.9717 75.1758L87.293 74.8086L87.7979 74.2578L88.2109 73.7988L88.5322 73.4316L88.9453 72.9727L89.4961 72.3301L90.001 71.8252L90.3223 71.458L90.9648 70.7695L91.3779 70.3564L91.6992 69.9893L91.7451 69.9434L92.25 69.8975Z" fill="#FEFED0"/>
<path d="M38.916 69.9434H47.3613L47.499 70.127L48.1416 71.7793L48.6465 72.9727L49.4727 75.0381L50.1611 76.6904L50.8037 78.2969L51.6758 80.4541L52.7773 83.1621L53.2822 84.4473L53.8789 85.8242L54.1543 86.5127V86.6504L47.2236 86.6963L47.04 86.4209L46.4893 84.8145L46.3057 84.2178H40.1553L40.0635 84.6309L39.7422 85.5947L39.2832 86.6504L39.1455 86.6963L32.0771 86.6504L32.123 86.375L32.9492 84.4473L33.6836 82.5654L34.3721 80.9131L35.1523 78.9854L35.6572 77.7461L36.3457 76.0479L36.8965 74.7168L37.4014 73.4316L38.0898 71.7334L38.6865 70.3564L38.8701 69.9893L38.916 69.9434ZM43.0928 75.1299L42.8174 75.8643L42.1748 77.8379L41.7617 79.0312L41.4404 79.8574V79.9951L42.1748 80.041H44.6992L44.9287 79.9951L44.8828 79.7197L44.2861 78.0215L43.7354 76.3691L43.3223 75.3135L43.1846 75.1299H43.0928Z" fill="#FEFED0"/>
<path d="M56.9541 23.4941H58.3311L58.4688 23.7236L59.0195 25.2842L59.4785 26.5234L60.2588 28.6807L60.9932 30.8379L61.085 31.2969L60.7178 31.5723L60.2588 31.8936L59.7998 32.3066L59.4326 32.8115L59.1113 33.5L58.9277 34.0508L58.8818 34.2803V34.877L59.1113 35.7031L59.5244 36.5752L59.8916 37.0342L60.3965 37.4932L60.8555 37.8145L61.4062 38.0898L62.1865 38.3193H62.9668L63.2881 38.457L63.4258 38.7783L63.7012 39.6963L63.8848 40.2012V40.4307L63.6094 40.5684L62.9209 40.3389H62.6455L62.5078 40.4307L62.5537 40.752L62.5996 42.9092L62.416 43.4141L62.0947 43.6895L61.6357 43.9189L61.0391 44.1025L59.8916 44.2861L58.2393 44.4238H56.2197L54.4297 44.2402L53.6953 44.1025L53.0986 43.9189L52.5479 43.6436L52.2266 43.2764L52.1348 42.8174V40.3848L51.4922 40.4307L49.9775 40.7061L47.4531 41.2568H46.9941L46.6729 40.8896L46.4434 40.3389L46.2139 39.2832L45.7549 36.2539L45.6172 34.877L45.5713 34.0967V33.041L45.8008 31.2969L46.1221 30.1035L46.6729 28.7725L47.04 28.0381L47.3613 27.5332L47.9121 26.7988L48.2793 26.3857L48.6465 26.0645L49.4727 25.4678L50.4824 24.8711L51.6299 24.4121L52.915 24.0449L54.4756 23.7236L55.5312 23.5859L56.9541 23.4941ZM49.2891 31.3887L48.9219 31.71L48.6924 32.123L48.6465 32.3984L48.7383 32.7656L49.0137 33.2246L49.6562 33.9131L50.207 34.418L50.3906 34.6475L50.2988 34.877L49.8857 35.29L49.5645 35.6572L48.8301 36.3916L48.6465 36.7129V37.0342L48.8301 37.4473L49.1055 37.7686L49.4727 37.9521L49.8398 37.9062L50.2529 37.6309L50.9414 36.9883L51.3545 36.5752L51.6758 36.1621L51.9053 36.208L52.1348 36.4375L52.6855 36.9424L53.0986 37.2637L53.5576 37.6768L53.9248 37.9062L54.3379 37.9521L54.6133 37.7686L54.9346 37.4473L55.0723 37.1719V36.8506L54.9346 36.4375L54.5215 35.9326L54.292 35.749L53.6494 35.0146L53.4199 34.7852V34.5557L53.9248 34.0049L54.4297 33.5L54.7969 33.1787L54.9805 32.9492L55.0723 32.6738V32.3066L54.8887 31.8477L54.6592 31.5723L54.3838 31.4346H53.8789L53.6035 31.6182L52.7773 32.4443L52.4102 32.7656L52.0889 33.1328L51.9053 33.2705L51.7217 33.1787L51.3545 32.8115L51.0332 32.4443L50.8037 32.2607L50.4824 31.8936L50.1152 31.5723L49.6562 31.3887H49.2891ZM57.0918 38.3193L56.6787 38.5029L56.4492 38.7324L56.1738 39.0537L55.8984 39.6045L55.6689 40.4307L55.623 40.7061V41.5781L55.8066 42.1748L55.9443 42.4502L56.2197 42.6338L56.4492 42.6797H58.1016L58.6064 42.4961L58.9277 42.2207L59.0654 41.8076L59.1113 41.3945V40.8438L58.9277 39.9258L58.5605 39.1914L58.2393 38.6865L57.9639 38.457L57.6426 38.3193H57.0918Z" fill="#FEFED0"/>
<path d="M62.7832 89.6797H74.7627L76.6445 89.7715L77.7461 89.9092L78.4805 90.0928L79.123 90.4141L79.3984 90.6436L79.7656 91.1484L79.9951 91.7451L80.0869 92.2959V96.1973L79.9951 96.5645L79.7656 96.9316L79.3525 97.2988L78.8936 97.5742L78.9854 97.7578L79.5361 98.1709L79.9492 98.5381L80.1328 98.9512L80.1787 99.1807V104H74.5791L74.5332 103.771L74.4873 100.512L74.4414 99.6396L74.3955 99.502L73.8447 99.3643L72.9727 99.3184H68.4287V104H62.7832L62.7373 103.128V90.46L62.7832 89.6797ZM68.3828 93.3975V95.9219H74.0283L74.4414 95.7842L74.4873 95.6006L74.5332 94.4072L74.4873 93.7188L74.4414 93.5811L74.0283 93.4893L73.3398 93.4434L70.999 93.3975H68.3828Z" fill="#FEFED0"/>
<path d="M86.4209 89.6797H97.4365L97.5742 89.7715V93.3516L97.3447 93.4434H90.4141L87.2012 93.4893L86.9717 93.5352L86.9258 93.7646V94.2695L87.0635 94.7744L87.1553 94.958L87.4307 95.0498L89.9551 95.0957L95.876 95.1416L96.6104 95.2334L97.3447 95.5088L97.8955 95.8301L98.4004 96.335L98.8135 97.0234L98.9971 97.7578V101.567L98.9053 102.072L98.9971 102.026L98.9053 102.302L98.584 102.807L98.2168 103.266L97.8037 103.587L97.2529 103.908L96.9316 104H81.6016L81.5557 100.512L81.6475 100.466H91.1025L93.3516 100.42L93.627 100.328L93.6729 100.145V99.2725L93.5352 98.9053L93.4893 98.8594L93.0762 98.8135L90.1846 98.7676H84.7686L84.0801 98.6758L83.2998 98.4463L82.8408 98.1709L82.29 97.666L81.877 97.1152L81.6934 96.7939L81.5557 96.3809V93.0762L81.6934 91.8828L81.9229 91.2402L82.1982 90.8271L82.5654 90.46L83.208 90.1387L84.0801 89.9092L84.9062 89.7715L86.4209 89.6797Z" fill="#FEFED0"/>
<path d="M48.5547 89.6797H55.623L55.8525 89.8174L56.082 90.3682L56.4033 91.2402L56.9082 92.4795L58.6523 96.8398L59.3867 98.6299L60.7637 102.026L61.4521 103.679L61.498 104H55.5312L55.3477 103.541L54.9805 102.577L54.8428 102.164H49.6562L49.1514 103.495L48.9678 104H42.7256L42.9092 103.541L43.7354 101.43L44.4697 99.6855L45.3418 97.5283L46.0762 95.7842L46.5811 94.5449L47.3154 92.709L47.958 91.1943L48.3252 90.2305L48.5088 89.7256L48.5547 89.6797ZM52.1807 94.2236L51.9971 94.6367L51.6299 95.8301L51.0791 97.4824L50.7578 98.3545V98.4922L53.6494 98.5381L53.5576 98.0791L53.0068 96.4268L52.3643 94.4072L52.1807 94.2236Z" fill="#FEFED0"/>
<path d="M15.7373 69.6437L34.5098 69.9434L34.5557 69.9893L34.6016 70.4023L34.5557 74.0283L34.4639 74.0742H28.4512V86.6045L28.2676 86.6963H21.9336L21.8877 86.6045L21.8418 74.1201L15.875 74.0742L15.7373 73.9365C15.7373 73.9365 15.7373 71.5587 15.7373 70.0352C15.7373 69.8823 15.7373 69.6437 15.7373 69.6437Z" fill="#FEFED0"/>
<path d="M59.8916 23.6777L60.3506 23.7236L62.416 24.2285L63.334 24.5039L64.3896 24.9629L65.2617 25.4678L65.9502 25.9727L66.4092 26.3857L67.0977 27.0742L67.5566 27.7627L68.0156 28.5889L68.3369 29.3232L68.7041 30.5166L68.8877 31.6182L68.9336 32.0312L68.9795 33.041V34.1426L68.9336 35.3818L68.7959 36.9424L68.3828 40.1094L68.2451 40.6602L68.0156 41.0273L67.7402 41.2109L67.4189 41.2568H67.1436L66.5469 41.1191L65.7207 40.9814L65.4453 40.8438L65.2617 40.4307L64.7109 38.4111V38.0898L65.3994 37.7227L65.8584 37.3555L66.1338 37.0342L66.4551 36.3916L66.5469 35.9326L66.5928 35.3359L66.501 34.5098L66.2715 33.7295L65.8584 32.9492L65.4453 32.3984L64.9404 31.8477L64.2979 31.4346L63.7012 31.2051L63.334 31.1133L62.5537 31.0674L62.3701 30.8838L61.7275 29.002L61.2227 27.5332L60.5342 25.5596L59.9375 23.8154L59.8916 23.6777Z" fill="#FEFED0"/>
</svg>
