<svg width="292" height="203" viewBox="0 0 292 203" fill="none" xmlns="http://www.w3.org/2000/svg">
<path d="M89 44.5V28C89 13.0883 101.088 1 116 1H175.5C190.412 1 202.5 13.0883 202.5 28V44.5H263.5C278.412 44.5 290.5 56.5883 290.5 71.5V131C290.5 145.912 278.412 158 263.5 158H202.5V175C202.5 189.912 190.412 202 175.5 202H116C101.088 202 89 189.912 89 175V158H28C13.0883 158 1 145.912 1 131L1 71.5C1 56.5883 13.0883 44.5 28 44.5H89Z" fill="#979797" stroke="#302F31" stroke-width="1.5"/>
<path d="M94 50V27C94 15.402 103.402 6 115 6H176.5C188.098 6 197.5 15.402 197.5 27V50H264.5C276.098 50 285.5 59.402 285.5 71V131.5C285.5 143.098 276.098 152.5 264.5 152.5H197.5V176C197.5 187.598 188.098 197 176.5 197H115C103.402 197 94 187.598 94 176V152.5H27C15.402 152.5 6 143.098 6 131.5L6 71C6 59.402 15.402 50 27 50H94Z" fill="url(#paint0_linear_431_141)" stroke="#1E1E1E" stroke-width="1.5"/>
<path d="M103 57V25C103 18.9249 107.925 14 114 14H177.5C183.575 14 188.5 18.9249 188.5 25V57H266C272.075 57 277 61.9249 277 68V132C277 138.075 272.075 143 266 143H188.5V178C188.5 184.075 183.575 189 177.5 189H114C107.925 189 103 184.075 103 178V143H25C18.9249 143 14 138.075 14 132V68C14 61.9249 18.9249 57 25 57H103Z" fill="black" stroke="#849B37" stroke-width="1.5"/>
<path d="M121.359 13.0985L115 6.80005H177L170.641 13.0985H121.359Z" fill="#363536"/>
<path d="M121.995 11.8391L117.862 7.74512H174.138L170.005 11.8391H121.995Z" fill="url(#paint1_linear_431_141)"/>
<path d="M126.128 10.8939L123.903 8.68945H129.626L131.851 10.8939H126.128Z" fill="#2A2A2A"/>
<path d="M135.031 10.8939L132.805 8.68945H138.528L140.754 10.8939H135.031Z" fill="#2A2A2A"/>
<path d="M143.933 10.8939L141.708 8.68945H147.431L149.656 10.8939H143.933Z" fill="#2A2A2A"/>
<path d="M152.836 10.8939L150.61 8.68945H156.333L158.559 10.8939H152.836Z" fill="#2A2A2A"/>
<path d="M161.738 10.8939L159.513 8.68945H165.236L167.462 10.8939H161.738Z" fill="#2A2A2A"/>
<path d="M278 76.5081L284.298 70.1492L284.298 132.149L278 125.79L278 76.5081Z" fill="#363536"/>
<path d="M279.259 77.1441L283.353 73.0107L283.353 129.288L279.259 125.154L279.259 77.1441Z" fill="url(#paint2_linear_431_141)"/>
<path d="M280.205 81.2774L282.409 79.0518L282.409 84.7748L280.205 87.0005L280.205 81.2774Z" fill="#2A2A2A"/>
<path d="M280.205 90.18L282.409 87.9543L282.409 93.6774L280.205 95.903L280.205 90.18Z" fill="#2A2A2A"/>
<path d="M280.205 99.0825L282.409 96.8569L282.409 102.58L280.205 104.806L280.205 99.0825Z" fill="#2A2A2A"/>
<path d="M280.205 107.985L282.409 105.759L282.409 111.483L280.205 113.708L280.205 107.985Z" fill="#2A2A2A"/>
<path d="M280.205 116.888L282.409 114.662L282.409 120.385L280.205 122.611L280.205 116.888Z" fill="#2A2A2A"/>
<path d="M170.641 189.902L177 196.2L115 196.2L121.359 189.902L170.641 189.902Z" fill="#515254"/>
<path d="M170.005 191.161L174.138 195.255L117.862 195.255L121.995 191.161L170.005 191.161Z" fill="url(#paint3_linear_431_141)"/>
<path d="M165.872 192.106L168.097 194.311L162.374 194.311L160.149 192.106L165.872 192.106Z" fill="#2A2A2A"/>
<path d="M156.969 192.106L159.195 194.311L153.472 194.311L151.246 192.106L156.969 192.106Z" fill="#2A2A2A"/>
<path d="M148.067 192.106L150.292 194.311L144.569 194.311L142.344 192.106L148.067 192.106Z" fill="#2A2A2A"/>
<path d="M139.164 192.106L141.39 194.311L135.667 194.311L133.441 192.106L139.164 192.106Z" fill="#2A2A2A"/>
<path d="M130.262 192.106L132.487 194.311L126.764 194.311L124.538 192.106L130.262 192.106Z" fill="#2A2A2A"/>
<path d="M13.2984 125.79L7.00001 132.149L7.00001 70.1492L13.2984 76.5081L13.2984 125.79Z" fill="#515254"/>
<path d="M12.0389 125.154L7.94497 129.288L7.94497 73.0107L12.0389 77.144L12.0389 125.154Z" fill="url(#paint4_linear_431_141)"/>
<path d="M11.0939 121.021L8.88946 123.247L8.88946 117.524L11.0939 115.298L11.0939 121.021Z" fill="#2A2A2A"/>
<path d="M11.0939 112.118L8.88946 114.344L8.88946 108.621L11.0939 106.395L11.0939 112.118Z" fill="#2A2A2A"/>
<path d="M11.0939 103.216L8.88946 105.441L8.88946 99.7184L11.0939 97.4927L11.0939 103.216Z" fill="#2A2A2A"/>
<path d="M11.0939 94.3132L8.88946 96.5389L8.88946 90.8158L11.0939 88.5902L11.0939 94.3132Z" fill="#2A2A2A"/>
<path d="M11.0939 85.4107L8.88946 87.6363L8.88946 81.9132L11.0939 79.6876L11.0939 85.4107Z" fill="#2A2A2A"/>
<mask id="path-16-outside-1_431_141" maskUnits="userSpaceOnUse" x="215" y="17" width="39" height="33" fill="black">
<rect fill="white" x="215" y="17" width="39" height="33"/>
<path d="M217 50L217 36.5C217 26.835 224.835 19 234.5 19V19C244.165 19 252 26.835 252 36.5L252 50L217 50Z"/>
</mask>
<path d="M217 50L217 36.5C217 26.835 224.835 19 234.5 19V19C244.165 19 252 26.835 252 36.5L252 50L217 50Z" fill="#262626"/>
<path d="M215 50L215 36.5C215 25.7304 223.73 17 234.5 17L234.5 21C225.94 21 219 27.9396 219 36.5L219 50L215 50ZM234.5 17C245.27 17 254 25.7304 254 36.5L254 50L250 50L250 36.5C250 27.9396 243.06 21 234.5 21L234.5 17ZM252 50L217 50L252 50ZM215 36.5C215 25.7304 223.73 17 234.5 17C245.27 17 254 25.7304 254 36.5L250 36.5C250 27.9396 243.06 21 234.5 21C225.94 21 219 27.9396 219 36.5L215 36.5Z" fill="#191819" mask="url(#path-16-outside-1_431_141)"/>
<mask id="path-18-inside-2_431_141" fill="white">
<path d="M217 50L217 36.5C217 26.835 224.835 19 234.5 19V19C244.165 19 252 26.835 252 36.5L252 50L217 50Z"/>
</mask>
<path d="M216 50L216 36.5C216 26.2827 224.283 18 234.5 18L234.5 20C225.387 20 218 27.3873 218 36.5L218 50L216 50ZM234.5 18C244.717 18 253 26.2827 253 36.5L253 50L251 50L251 36.5C251 27.3873 243.613 20 234.5 20L234.5 18ZM252 50L217 50L252 50ZM216 36.5C216 26.2827 224.283 18 234.5 18C244.717 18 253 26.2827 253 36.5L251 36.5C251 27.3873 243.613 20 234.5 20C225.387 20 218 27.3873 218 36.5L216 36.5Z" fill="url(#paint5_linear_431_141)" fill-opacity="0.36" mask="url(#path-18-inside-2_431_141)"/>
<mask id="path-20-outside-3_431_141" maskUnits="userSpaceOnUse" x="221.661" y="22.1346" width="26.3205" height="25.5885" fill="black">
<rect fill="white" x="221.661" y="22.1346" width="26.3205" height="25.5885"/>
<path fill-rule="evenodd" clip-rule="evenodd" d="M239.967 32.3058C239.907 32.1837 239.843 32.0629 239.774 31.9435C238.147 29.126 234.544 28.1607 231.727 29.7874C229.479 31.085 228.41 33.6401 228.896 36.0509L239.967 32.3058ZM240.449 33.7262C240.934 36.1372 239.865 38.6925 237.617 39.9902C234.8 41.6169 231.197 40.6515 229.571 37.8341C229.502 37.7145 229.437 37.5936 229.378 37.4714L240.449 33.7262Z"/>
</mask>
<path fill-rule="evenodd" clip-rule="evenodd" d="M239.967 32.3058C239.907 32.1837 239.843 32.0629 239.774 31.9435C238.147 29.126 234.544 28.1607 231.727 29.7874C229.479 31.085 228.41 33.6401 228.896 36.0509L239.967 32.3058ZM240.449 33.7262C240.934 36.1372 239.865 38.6925 237.617 39.9902C234.8 41.6169 231.197 40.6515 229.571 37.8341C229.502 37.7145 229.437 37.5936 229.378 37.4714L240.449 33.7262Z" fill="url(#paint6_linear_431_141)"/>
<path d="M239.967 32.3058L240.928 35.1476L244.161 34.0538L242.661 30.9876L239.967 32.3058ZM228.896 36.0509L225.955 36.6429L226.627 39.9852L229.857 38.8927L228.896 36.0509ZM240.449 33.7262L243.389 33.1339L242.716 29.792L239.487 30.8844L240.449 33.7262ZM229.378 37.4714L228.416 34.6296L225.183 35.7233L226.683 38.7893L229.378 37.4714ZM237.175 33.4435C237.21 33.5034 237.242 33.5635 237.272 33.6239L242.661 30.9876C242.572 30.8039 242.475 30.6224 242.372 30.4435L237.175 33.4435ZM233.227 32.3854C234.609 31.5872 236.377 32.0609 237.175 33.4435L242.372 30.4435C239.917 26.1912 234.479 24.7342 230.227 27.1893L233.227 32.3854ZM231.837 35.4589C231.598 34.2722 232.128 33.0199 233.227 32.3854L230.227 27.1893C226.831 29.1501 225.223 33.0079 225.955 36.6429L231.837 35.4589ZM229.857 38.8927L240.928 35.1476L239.005 29.464L227.934 33.2091L229.857 38.8927ZM237.508 34.3185C237.747 35.5052 237.216 36.7577 236.117 37.3921L239.117 42.5883C242.514 40.6274 244.122 36.7692 243.389 33.1339L237.508 34.3185ZM236.117 37.3921C234.735 38.1904 232.967 37.7167 232.169 36.3341L226.973 39.3341C229.428 43.5864 234.865 45.0434 239.117 42.5883L236.117 37.3921ZM232.169 36.3341C232.134 36.2741 232.102 36.2139 232.073 36.1534L226.683 38.7893C226.773 38.9732 226.869 39.1549 226.973 39.3341L232.169 36.3341ZM239.487 30.8844L228.416 34.6296L230.339 40.3132L241.41 36.568L239.487 30.8844Z" fill="url(#paint7_radial_431_141)" mask="url(#path-20-outside-3_431_141)"/>
<mask id="path-22-outside-4_431_141" maskUnits="userSpaceOnUse" x="37" y="17" width="39" height="33" fill="black">
<rect fill="white" x="37" y="17" width="39" height="33"/>
<path d="M39 50L39 36.5C39 26.835 46.835 19 56.5 19V19C66.165 19 74 26.835 74 36.5L74 50L39 50Z"/>
</mask>
<path d="M39 50L39 36.5C39 26.835 46.835 19 56.5 19V19C66.165 19 74 26.835 74 36.5L74 50L39 50Z" fill="#262626"/>
<path d="M37 50L37 36.5C37 25.7304 45.7304 17 56.5 17L56.5 21C47.9396 21 41 27.9396 41 36.5L41 50L37 50ZM56.5 17C67.2696 17 76 25.7304 76 36.5L76 50L72 50L72 36.5C72 27.9396 65.0604 21 56.5 21L56.5 17ZM74 50L39 50L74 50ZM37 36.5C37 25.7304 45.7304 17 56.5 17C67.2696 17 76 25.7304 76 36.5L72 36.5C72 27.9396 65.0604 21 56.5 21C47.9396 21 41 27.9396 41 36.5L37 36.5Z" fill="#191819" mask="url(#path-22-outside-4_431_141)"/>
<mask id="path-24-inside-5_431_141" fill="white">
<path d="M39 50L39 36.5C39 26.835 46.835 19 56.5 19V19C66.165 19 74 26.835 74 36.5L74 50L39 50Z"/>
</mask>
<path d="M38 50L38 36.5C38 26.2827 46.2827 18 56.5 18L56.5 20C47.3873 20 40 27.3873 40 36.5L40 50L38 50ZM56.5 18C66.7173 18 75 26.2827 75 36.5L75 50L73 50L73 36.5C73 27.3873 65.6127 20 56.5 20L56.5 18ZM74 50L39 50L74 50ZM38 36.5C38 26.2827 46.2827 18 56.5 18C66.7173 18 75 26.2827 75 36.5L73 36.5C73 27.3873 65.6127 20 56.5 20C47.3873 20 40 27.3873 40 36.5L38 36.5Z" fill="url(#paint8_linear_431_141)" fill-opacity="0.36" mask="url(#path-24-inside-5_431_141)"/>
<mask id="path-26-outside-6_431_141" maskUnits="userSpaceOnUse" x="44.7608" y="23.7413" width="23.9773" height="22.563" fill="black">
<rect fill="white" x="44.7608" y="23.7413" width="23.9773" height="22.563"/>
<path fill-rule="evenodd" clip-rule="evenodd" d="M62.2423 36.806C62.2864 36.6775 62.3264 36.5466 62.362 36.4134C63.2041 33.271 61.3392 30.0409 58.1967 29.1989C55.6899 28.5272 53.1274 29.5781 51.7658 31.626L62.2423 36.806ZM61.5787 38.1513C60.2172 40.1994 57.6545 41.2505 55.1475 40.5787C52.0051 39.7367 50.1402 36.5067 50.9822 33.3642C51.018 33.2309 51.058 33.0998 51.1021 32.9712L61.5787 38.1513Z"/>
</mask>
<path fill-rule="evenodd" clip-rule="evenodd" d="M62.2423 36.806C62.2864 36.6775 62.3264 36.5466 62.362 36.4134C63.2041 33.271 61.3392 30.0409 58.1967 29.1989C55.6899 28.5272 53.1274 29.5781 51.7658 31.626L62.2423 36.806ZM61.5787 38.1513C60.2172 40.1994 57.6545 41.2505 55.1475 40.5787C52.0051 39.7367 50.1402 36.5067 50.9822 33.3642C51.018 33.2309 51.058 33.0998 51.1021 32.9712L61.5787 38.1513Z" fill="url(#paint9_linear_431_141)"/>
<path d="M62.2423 36.806L60.9126 39.4953L63.9723 41.0081L65.0799 37.7795L62.2423 36.806ZM51.7658 31.626L49.2676 29.965L47.38 32.8041L50.4361 34.3152L51.7658 31.626ZM61.5787 38.1513L64.0771 39.8121L65.9643 36.9731L62.9084 35.4621L61.5787 38.1513ZM51.1021 32.9712L52.4318 30.2819L49.3723 28.7692L48.2646 31.9975L51.1021 32.9712ZM59.4643 35.637C59.4464 35.7038 59.4264 35.769 59.4046 35.8326L65.0799 37.7795C65.1463 37.5861 65.2063 37.3895 65.2598 37.1899L59.4643 35.637ZM57.4203 32.0967C58.9623 32.5099 59.8775 34.0949 59.4643 35.637L65.2598 37.1899C66.5307 32.447 63.716 27.572 58.9732 26.3011L57.4203 32.0967ZM54.264 33.287C54.9342 32.279 56.1946 31.7683 57.4203 32.0967L58.9732 26.3011C55.1852 25.2862 51.3205 26.8773 49.2676 29.965L54.264 33.287ZM50.4361 34.3152L60.9126 39.4953L63.572 34.1168L53.0955 28.9368L50.4361 34.3152ZM59.0804 36.4905C58.4102 37.4986 57.1497 38.0094 55.924 37.681L54.3711 43.4765C58.1593 44.4916 62.0243 42.9002 64.0771 39.8121L59.0804 36.4905ZM55.924 37.681C54.3819 37.2678 53.4668 35.6827 53.88 34.1407L48.0845 32.5878C46.8136 37.3306 49.6282 42.2057 54.3711 43.4765L55.924 37.681ZM53.88 34.1407C53.8979 34.0738 53.9179 34.0085 53.9397 33.9449L48.2646 31.9975C48.1981 32.1911 48.138 32.3879 48.0845 32.5878L53.88 34.1407ZM62.9084 35.4621L52.4318 30.2819L49.7725 35.6604L60.249 40.8405L62.9084 35.4621Z" fill="url(#paint10_radial_431_141)" mask="url(#path-26-outside-6_431_141)"/>
<mask id="path-28-outside-7_431_141" maskUnits="userSpaceOnUse" x="215" y="152.3" width="39" height="33" fill="black">
<rect fill="white" x="215" y="152.3" width="39" height="33"/>
<path d="M252 152.3L252 165.8C252 175.465 244.165 183.3 234.5 183.3V183.3C224.835 183.3 217 175.465 217 165.8L217 152.3L252 152.3Z"/>
</mask>
<path d="M252 152.3L252 165.8C252 175.465 244.165 183.3 234.5 183.3V183.3C224.835 183.3 217 175.465 217 165.8L217 152.3L252 152.3Z" fill="#262626"/>
<path d="M254 152.3L254 165.8C254 176.57 245.27 185.3 234.5 185.3L234.5 181.3C243.06 181.3 250 174.36 250 165.8L250 152.3L254 152.3ZM234.5 185.3C223.73 185.3 215 176.57 215 165.8L215 152.3L219 152.3L219 165.8C219 174.36 225.94 181.3 234.5 181.3L234.5 185.3ZM217 152.3L252 152.3L217 152.3ZM254 165.8C254 176.57 245.27 185.3 234.5 185.3C223.73 185.3 215 176.57 215 165.8L219 165.8C219 174.36 225.94 181.3 234.5 181.3C243.06 181.3 250 174.36 250 165.8L254 165.8Z" fill="#191819" mask="url(#path-28-outside-7_431_141)"/>
<mask id="path-30-inside-8_431_141" fill="white">
<path d="M252 152.3L252 165.8C252 175.465 244.165 183.3 234.5 183.3V183.3C224.835 183.3 217 175.465 217 165.8L217 152.3L252 152.3Z"/>
</mask>
<path d="M253 152.3L253 165.8C253 176.017 244.717 184.3 234.5 184.3L234.5 182.3C243.613 182.3 251 174.913 251 165.8L251 152.3L253 152.3ZM234.5 184.3C224.283 184.3 216 176.017 216 165.8L216 152.3L218 152.3L218 165.8C218 174.913 225.387 182.3 234.5 182.3L234.5 184.3ZM217 152.3L252 152.3L217 152.3ZM253 165.8C253 176.017 244.717 184.3 234.5 184.3C224.283 184.3 216 176.017 216 165.8L218 165.8C218 174.913 225.387 182.3 234.5 182.3C243.613 182.3 251 174.913 251 165.8L253 165.8Z" fill="url(#paint11_linear_431_141)" fill-opacity="0.36" mask="url(#path-30-inside-8_431_141)"/>
<mask id="path-32-outside-9_431_141" maskUnits="userSpaceOnUse" x="222.262" y="155.996" width="23.9773" height="22.563" fill="black">
<rect fill="white" x="222.262" y="155.996" width="23.9773" height="22.563"/>
<path fill-rule="evenodd" clip-rule="evenodd" d="M228.758 165.494C228.714 165.623 228.674 165.753 228.638 165.887C227.796 169.029 229.661 172.259 232.803 173.101C235.31 173.773 237.873 172.722 239.234 170.674L228.758 165.494ZM229.421 164.149C230.783 162.101 233.345 161.05 235.852 161.721C238.995 162.563 240.86 165.793 240.018 168.936C239.982 169.069 239.942 169.2 239.898 169.329L229.421 164.149Z"/>
</mask>
<path fill-rule="evenodd" clip-rule="evenodd" d="M228.758 165.494C228.714 165.623 228.674 165.753 228.638 165.887C227.796 169.029 229.661 172.259 232.803 173.101C235.31 173.773 237.873 172.722 239.234 170.674L228.758 165.494ZM229.421 164.149C230.783 162.101 233.345 161.05 235.852 161.721C238.995 162.563 240.86 165.793 240.018 168.936C239.982 169.069 239.942 169.2 239.898 169.329L229.421 164.149Z" fill="url(#paint12_linear_431_141)"/>
<path d="M228.758 165.494L230.087 162.805L227.028 161.292L225.92 164.521L228.758 165.494ZM239.234 170.674L241.732 172.335L243.62 169.496L240.564 167.985L239.234 170.674ZM229.421 164.149L226.923 162.488L225.036 165.327L228.092 166.838L229.421 164.149ZM239.898 169.329L238.568 172.018L241.628 173.531L242.735 170.303L239.898 169.329ZM231.536 166.663C231.554 166.596 231.574 166.531 231.595 166.467L225.92 164.521C225.854 164.714 225.794 164.911 225.74 165.11L231.536 166.663ZM233.58 170.203C232.038 169.79 231.123 168.205 231.536 166.663L225.74 165.11C224.469 169.853 227.284 174.728 232.027 175.999L233.58 170.203ZM236.736 169.013C236.066 170.021 234.805 170.532 233.58 170.203L232.027 175.999C235.815 177.014 239.68 175.423 241.732 172.335L236.736 169.013ZM240.564 167.985L230.087 162.805L227.428 168.183L237.905 173.363L240.564 167.985ZM231.92 165.81C232.59 164.801 233.85 164.291 235.076 164.619L236.629 158.824C232.841 157.808 228.976 159.4 226.923 162.488L231.92 165.81ZM235.076 164.619C236.618 165.032 237.533 166.617 237.12 168.159L242.916 169.712C244.186 164.969 241.372 160.094 236.629 158.824L235.076 164.619ZM237.12 168.159C237.102 168.226 237.082 168.292 237.06 168.355L242.735 170.303C242.802 170.109 242.862 169.912 242.916 169.712L237.12 168.159ZM228.092 166.838L238.568 172.018L241.228 166.64L230.751 161.46L228.092 166.838Z" fill="url(#paint13_radial_431_141)" mask="url(#path-32-outside-9_431_141)"/>
<mask id="path-34-outside-10_431_141" maskUnits="userSpaceOnUse" x="37" y="152.3" width="39" height="33" fill="black">
<rect fill="white" x="37" y="152.3" width="39" height="33"/>
<path d="M74 152.3L74 165.8C74 175.465 66.165 183.3 56.5 183.3V183.3C46.835 183.3 39 175.465 39 165.8L39 152.3L74 152.3Z"/>
</mask>
<path d="M74 152.3L74 165.8C74 175.465 66.165 183.3 56.5 183.3V183.3C46.835 183.3 39 175.465 39 165.8L39 152.3L74 152.3Z" fill="#262626"/>
<path d="M76 152.3L76 165.8C76 176.57 67.2696 185.3 56.5 185.3L56.5 181.3C65.0604 181.3 72 174.36 72 165.8L72 152.3L76 152.3ZM56.5 185.3C45.7304 185.3 37 176.57 37 165.8L37 152.3L41 152.3L41 165.8C41 174.36 47.9396 181.3 56.5 181.3L56.5 185.3ZM39 152.3L74 152.3L39 152.3ZM76 165.8C76 176.57 67.2696 185.3 56.5 185.3C45.7304 185.3 37 176.57 37 165.8L41 165.8C41 174.36 47.9396 181.3 56.5 181.3C65.0604 181.3 72 174.36 72 165.8L76 165.8Z" fill="#191819" mask="url(#path-34-outside-10_431_141)"/>
<mask id="path-36-inside-11_431_141" fill="white">
<path d="M74 152.3L74 165.8C74 175.465 66.165 183.3 56.5 183.3V183.3C46.835 183.3 39 175.465 39 165.8L39 152.3L74 152.3Z"/>
</mask>
<path d="M75 152.3L75 165.8C75 176.017 66.7173 184.3 56.5 184.3L56.5 182.3C65.6127 182.3 73 174.913 73 165.8L73 152.3L75 152.3ZM56.5 184.3C46.2827 184.3 38 176.017 38 165.8L38 152.3L40 152.3L40 165.8C40 174.913 47.3873 182.3 56.5 182.3L56.5 184.3ZM39 152.3L74 152.3L39 152.3ZM75 165.8C75 176.017 66.7173 184.3 56.5 184.3C46.2827 184.3 38 176.017 38 165.8L40 165.8C40 174.913 47.3873 182.3 56.5 182.3C65.6127 182.3 73 174.913 73 165.8L75 165.8Z" fill="url(#paint14_linear_431_141)" fill-opacity="0.36" mask="url(#path-36-inside-11_431_141)"/>
<mask id="path-38-outside-12_431_141" maskUnits="userSpaceOnUse" x="43.0182" y="154.577" width="26.3205" height="25.5885" fill="black">
<rect fill="white" x="43.0182" y="154.577" width="26.3205" height="25.5885"/>
<path fill-rule="evenodd" clip-rule="evenodd" d="M51.0335 169.994C51.0932 170.116 51.1575 170.237 51.2264 170.357C52.8531 173.174 56.4557 174.139 59.2732 172.513C61.5207 171.215 62.5896 168.66 62.1043 166.249L51.0335 169.994ZM50.5515 168.574C50.0659 166.163 51.1349 163.608 53.3825 162.31C56.2 160.683 59.8026 161.649 61.4293 164.466C61.4983 164.586 61.5627 164.706 61.6224 164.829L50.5515 168.574Z"/>
</mask>
<path fill-rule="evenodd" clip-rule="evenodd" d="M51.0335 169.994C51.0932 170.116 51.1575 170.237 51.2264 170.357C52.8531 173.174 56.4557 174.139 59.2732 172.513C61.5207 171.215 62.5896 168.66 62.1043 166.249L51.0335 169.994ZM50.5515 168.574C50.0659 166.163 51.1349 163.608 53.3825 162.31C56.2 160.683 59.8026 161.649 61.4293 164.466C61.4983 164.586 61.5627 164.706 61.6224 164.829L50.5515 168.574Z" fill="url(#paint15_linear_431_141)"/>
<path d="M51.0335 169.994L50.0721 167.152L46.8388 168.246L48.3386 171.312L51.0335 169.994ZM62.1043 166.249L65.0454 165.657L64.3725 162.315L61.143 163.407L62.1043 166.249ZM50.5515 168.574L47.6105 169.166L48.2835 172.508L51.5128 171.416L50.5515 168.574ZM61.6224 164.829L62.5838 167.67L65.8168 166.577L64.3174 163.511L61.6224 164.829ZM53.8245 168.857C53.7899 168.797 53.7579 168.737 53.7284 168.676L48.3386 171.312C48.4284 171.496 48.525 171.678 48.6284 171.857L53.8245 168.857ZM57.7732 169.915C56.3906 170.713 54.6227 170.239 53.8245 168.857L48.6284 171.857C51.0834 176.109 56.5209 177.566 60.7732 175.111L57.7732 169.915ZM59.1633 166.841C59.4022 168.028 58.8721 169.28 57.7732 169.915L60.7732 175.111C64.1694 173.15 65.7771 169.292 65.0454 165.657L59.1633 166.841ZM61.143 163.407L50.0721 167.152L51.9948 172.836L63.0657 169.091L61.143 163.407ZM53.4924 167.982C53.2534 166.795 53.7836 165.542 54.8825 164.908L51.8825 159.712C48.4861 161.673 46.8784 165.531 47.6105 169.166L53.4924 167.982ZM54.8825 164.908C56.2651 164.11 58.033 164.583 58.8312 165.966L64.0274 162.966C61.5723 158.714 56.1349 157.257 51.8825 159.712L54.8825 164.908ZM58.8312 165.966C58.8658 166.026 58.8979 166.086 58.9274 166.147L64.3174 163.511C64.2275 163.327 64.1308 163.145 64.0274 162.966L58.8312 165.966ZM51.5128 171.416L62.5838 167.67L60.6611 161.987L49.5901 165.732L51.5128 171.416Z" fill="url(#paint16_radial_431_141)" mask="url(#path-38-outside-12_431_141)"/>
<defs>
<linearGradient id="paint0_linear_431_141" x1="275.935" y1="-8.27012" x2="3.48472" y2="219.558" gradientUnits="userSpaceOnUse">
<stop offset="0.339964" stop-color="#353435"/>
<stop offset="0.34" stop-color="#525355"/>
<stop offset="0.66" stop-color="#7F7F7F"/>
<stop offset="0.660924" stop-color="#505153"/>
</linearGradient>
<linearGradient id="paint1_linear_431_141" x1="146" y1="7.74512" x2="146" y2="11.8391" gradientUnits="userSpaceOnUse">
<stop offset="0.405" stop-color="#9BAF5D"/>
<stop offset="0.68" stop-color="#7B9034"/>
</linearGradient>
<linearGradient id="paint2_linear_431_141" x1="283.353" y1="101.149" x2="279.259" y2="101.149" gradientUnits="userSpaceOnUse">
<stop offset="0.405" stop-color="#9BAF5D"/>
<stop offset="0.68" stop-color="#7B9034"/>
</linearGradient>
<linearGradient id="paint3_linear_431_141" x1="146" y1="195.255" x2="146" y2="191.161" gradientUnits="userSpaceOnUse">
<stop offset="0.405" stop-color="#9BAF5D"/>
<stop offset="0.68" stop-color="#7B9034"/>
</linearGradient>
<linearGradient id="paint4_linear_431_141" x1="7.94497" y1="101.149" x2="12.0389" y2="101.149" gradientUnits="userSpaceOnUse">
<stop offset="0.405" stop-color="#9BAF5D"/>
<stop offset="0.68" stop-color="#7B9034"/>
</linearGradient>
<linearGradient id="paint5_linear_431_141" x1="237.192" y1="21.9063" x2="235.624" y2="49.9876" gradientUnits="userSpaceOnUse">
<stop stop-color="#5E5E5E"/>
<stop offset="1" stop-color="#C4C4C4"/>
</linearGradient>
<linearGradient id="paint6_linear_431_141" x1="231.727" y1="29.7874" x2="237.617" y2="39.9902" gradientUnits="userSpaceOnUse">
<stop stop-color="#767676"/>
<stop offset="0.45" stop-color="#404040"/>
<stop offset="1" stop-color="#595959"/>
</linearGradient>
<radialGradient id="paint7_radial_431_141" cx="0" cy="0" r="1" gradientUnits="userSpaceOnUse" gradientTransform="translate(234.672 34.8888) rotate(60) scale(8.63958)">
<stop/>
<stop offset="0.664391" stop-color="#040404"/>
<stop offset="1" stop-color="#262626" stop-opacity="0"/>
</radialGradient>
<linearGradient id="paint8_linear_431_141" x1="59.1923" y1="21.9063" x2="57.6244" y2="49.9876" gradientUnits="userSpaceOnUse">
<stop stop-color="#5E5E5E"/>
<stop offset="1" stop-color="#C4C4C4"/>
</linearGradient>
<linearGradient id="paint9_linear_431_141" x1="58.1967" y1="29.1989" x2="55.1475" y2="40.5787" gradientUnits="userSpaceOnUse">
<stop stop-color="#767676"/>
<stop offset="0.45" stop-color="#404040"/>
<stop offset="1" stop-color="#595959"/>
</linearGradient>
<radialGradient id="paint10_radial_431_141" cx="0" cy="0" r="1" gradientUnits="userSpaceOnUse" gradientTransform="translate(56.6721 34.8888) rotate(105) scale(8.63958)">
<stop/>
<stop offset="0.664391" stop-color="#040404"/>
<stop offset="1" stop-color="#262626" stop-opacity="0"/>
</radialGradient>
<linearGradient id="paint11_linear_431_141" x1="231.808" y1="180.394" x2="233.376" y2="152.312" gradientUnits="userSpaceOnUse">
<stop stop-color="#5E5E5E"/>
<stop offset="1" stop-color="#C4C4C4"/>
</linearGradient>
<linearGradient id="paint12_linear_431_141" x1="232.803" y1="173.101" x2="235.852" y2="161.721" gradientUnits="userSpaceOnUse">
<stop stop-color="#767676"/>
<stop offset="0.45" stop-color="#404040"/>
<stop offset="1" stop-color="#595959"/>
</linearGradient>
<radialGradient id="paint13_radial_431_141" cx="0" cy="0" r="1" gradientUnits="userSpaceOnUse" gradientTransform="translate(234.328 167.411) rotate(-75) scale(8.63958)">
<stop/>
<stop offset="0.664391" stop-color="#040404"/>
<stop offset="1" stop-color="#262626" stop-opacity="0"/>
</radialGradient>
<linearGradient id="paint14_linear_431_141" x1="53.8077" y1="180.394" x2="55.3756" y2="152.312" gradientUnits="userSpaceOnUse">
<stop stop-color="#5E5E5E"/>
<stop offset="1" stop-color="#C4C4C4"/>
</linearGradient>
<linearGradient id="paint15_linear_431_141" x1="59.2732" y1="172.513" x2="53.3825" y2="162.31" gradientUnits="userSpaceOnUse">
<stop stop-color="#767676"/>
<stop offset="0.45" stop-color="#404040"/>
<stop offset="1" stop-color="#595959"/>
</linearGradient>
<radialGradient id="paint16_radial_431_141" cx="0" cy="0" r="1" gradientUnits="userSpaceOnUse" gradientTransform="translate(56.3279 167.411) rotate(-120) scale(8.63958)">
<stop/>
<stop offset="0.664391" stop-color="#040404"/>
<stop offset="1" stop-color="#262626" stop-opacity="0"/>
</radialGradient>
</defs>
</svg>
