<svg width="292" height="203" viewBox="0 0 292 203" fill="none" xmlns="http://www.w3.org/2000/svg">
<path d="M89 44.5935V28.0935C89 13.1818 101.088 1.09351 116 1.09351H175.5C190.412 1.09351 202.5 13.1818 202.5 28.0935V44.5935H263.5C278.412 44.5935 290.5 56.6818 290.5 71.5935V131.094C290.5 146.005 278.412 158.094 263.5 158.094H202.5V175.094C202.5 190.005 190.412 202.094 175.5 202.094H116C101.088 202.094 89 190.005 89 175.094V158.094H28C13.0883 158.094 1 146.005 1 131.094L1 71.5935C1 56.6818 13.0883 44.5935 28 44.5935H89Z" fill="#4C4C4C" stroke="#302F31" stroke-width="1.5"/>
<path d="M94 50.0935V27.0935C94 15.4955 103.402 6.09351 115 6.09351H176.5C188.098 6.09351 197.5 15.4955 197.5 27.0935V50.0935H264.5C276.098 50.0935 285.5 59.4955 285.5 71.0935V131.594C285.5 143.191 276.098 152.594 264.5 152.594H197.5V176.094C197.5 187.691 188.098 197.094 176.5 197.094H115C103.402 197.094 94 187.691 94 176.094V152.594H27C15.402 152.594 6 143.191 6 131.594L6 71.0935C6 59.4955 15.402 50.0935 27 50.0935H94Z" fill="url(#paint0_linear_431_141)" stroke="#1E1E1E" stroke-width="1.5"/>
<path d="M103 57.0935V25.0935C103 19.0184 107.925 14.0935 114 14.0935H177.5C183.575 14.0935 188.5 19.0184 188.5 25.0935V57.0935H266C272.075 57.0935 277 62.0184 277 68.0935V132.094C277 138.169 272.075 143.094 266 143.094H188.5V178.094C188.5 184.169 183.575 189.094 177.5 189.094H114C107.925 189.094 103 184.169 103 178.094V143.094H25C18.9249 143.094 14 138.169 14 132.094V68.0935C14 62.0184 18.9249 57.0935 25 57.0935H103Z" fill="black" stroke="#849B37" stroke-width="1.5"/>
<path d="M121.359 13.192L115 6.89355H177L170.641 13.192H121.359Z" fill="#363536"/>
<path d="M121.995 11.9326L117.862 7.83862H174.138L170.005 11.9326H121.995Z" fill="url(#paint1_linear_431_141)"/>
<path d="M126.128 10.9874L123.903 8.78296H129.626L131.851 10.9874H126.128Z" fill="#2A2A2A"/>
<path d="M135.031 10.9874L132.805 8.78296H138.528L140.754 10.9874H135.031Z" fill="#2A2A2A"/>
<path d="M143.933 10.9874L141.708 8.78296H147.431L149.656 10.9874H143.933Z" fill="#2A2A2A"/>
<path d="M152.836 10.9874L150.61 8.78296H156.333L158.559 10.9874H152.836Z" fill="#2A2A2A"/>
<path d="M161.738 10.9874L159.513 8.78296H165.236L167.462 10.9874H161.738Z" fill="#2A2A2A"/>
<path d="M278 76.6016L284.298 70.2427L284.298 132.243L278 125.884L278 76.6016Z" fill="#363536"/>
<path d="M279.259 77.2376L283.353 73.1042L283.353 129.381L279.259 125.248L279.259 77.2376Z" fill="url(#paint2_linear_431_141)"/>
<path d="M280.205 81.3709L282.409 79.1453L282.409 84.8683L280.205 87.094L280.205 81.3709Z" fill="#2A2A2A"/>
<path d="M280.205 90.2735L282.409 88.0478L282.409 93.7709L280.205 95.9965L280.205 90.2735Z" fill="#2A2A2A"/>
<path d="M280.205 99.176L282.409 96.9504L282.409 102.673L280.205 104.899L280.205 99.176Z" fill="#2A2A2A"/>
<path d="M280.205 108.079L282.409 105.853L282.409 111.576L280.205 113.802L280.205 108.079Z" fill="#2A2A2A"/>
<path d="M280.205 116.981L282.409 114.756L282.409 120.479L280.205 122.704L280.205 116.981Z" fill="#2A2A2A"/>
<path d="M170.641 189.995L177 196.293L115 196.293L121.359 189.995L170.641 189.995Z" fill="#515254"/>
<path d="M170.005 191.254L174.138 195.348L117.862 195.348L121.995 191.254L170.005 191.254Z" fill="url(#paint3_linear_431_141)"/>
<path d="M165.872 192.2L168.097 194.404L162.374 194.404L160.149 192.2L165.872 192.2Z" fill="#2A2A2A"/>
<path d="M156.969 192.2L159.195 194.404L153.472 194.404L151.246 192.2L156.969 192.2Z" fill="#2A2A2A"/>
<path d="M148.067 192.2L150.292 194.404L144.569 194.404L142.344 192.2L148.067 192.2Z" fill="#2A2A2A"/>
<path d="M139.164 192.2L141.39 194.404L135.667 194.404L133.441 192.2L139.164 192.2Z" fill="#2A2A2A"/>
<path d="M130.262 192.2L132.487 194.404L126.764 194.404L124.538 192.2L130.262 192.2Z" fill="#2A2A2A"/>
<path d="M13.2984 125.884L7.00001 132.243L7.00001 70.2427L13.2984 76.6016L13.2984 125.884Z" fill="#515254"/>
<path d="M12.0389 125.248L7.94497 129.381L7.94497 73.1042L12.0389 77.2375L12.0389 125.248Z" fill="url(#paint4_linear_431_141)"/>
<path d="M11.0939 121.114L8.88946 123.34L8.88946 117.617L11.0939 115.391L11.0939 121.114Z" fill="#2A2A2A"/>
<path d="M11.0939 112.212L8.88946 114.438L8.88946 108.714L11.0939 106.489L11.0939 112.212Z" fill="#2A2A2A"/>
<path d="M11.0939 103.309L8.88946 105.535L8.88946 99.8119L11.0939 97.5862L11.0939 103.309Z" fill="#2A2A2A"/>
<path d="M11.0939 94.4068L8.88946 96.6324L8.88946 90.9093L11.0939 88.6837L11.0939 94.4068Z" fill="#2A2A2A"/>
<path d="M11.0939 85.5042L8.88946 87.7298L8.88946 82.0068L11.0939 79.7811L11.0939 85.5042Z" fill="#2A2A2A"/>
<mask id="path-16-outside-1_431_141" maskUnits="userSpaceOnUse" x="215" y="17.0935" width="39" height="33" fill="black">
<rect fill="white" x="215" y="17.0935" width="39" height="33"/>
<path d="M217 50.0935L217 36.5935C217 26.9285 224.835 19.0935 234.5 19.0935C244.165 19.0935 252 26.9285 252 36.5935L252 50.0935L217 50.0935Z"/>
</mask>
<path d="M217 50.0935L217 36.5935C217 26.9285 224.835 19.0935 234.5 19.0935C244.165 19.0935 252 26.9285 252 36.5935L252 50.0935L217 50.0935Z" fill="#262626"/>
<path d="M215 50.0935L215 36.5935C215 25.824 223.73 17.0935 234.5 17.0935L234.5 21.0935C225.94 21.0935 219 28.0331 219 36.5935L219 50.0935L215 50.0935ZM234.5 17.0935C245.27 17.0935 254 25.824 254 36.5935L254 50.0935L250 50.0935L250 36.5935C250 28.0331 243.06 21.0935 234.5 21.0935L234.5 17.0935ZM252 50.0935L217 50.0935L252 50.0935ZM215 36.5935C215 25.824 223.73 17.0935 234.5 17.0935C245.27 17.0935 254 25.824 254 36.5935L250 36.5935C250 28.0331 243.06 21.0935 234.5 21.0935C225.94 21.0935 219 28.0331 219 36.5935L215 36.5935Z" fill="#191819" mask="url(#path-16-outside-1_431_141)"/>
<mask id="path-18-inside-2_431_141" fill="white">
<path d="M217 50.0935L217 36.5935C217 26.9285 224.835 19.0935 234.5 19.0935C244.165 19.0935 252 26.9285 252 36.5935L252 50.0935L217 50.0935Z"/>
</mask>
<path d="M216 50.0935L216 36.5935C216 26.3762 224.283 18.0935 234.5 18.0935L234.5 20.0935C225.387 20.0935 218 27.4808 218 36.5935L218 50.0935L216 50.0935ZM234.5 18.0935C244.717 18.0935 253 26.3762 253 36.5935L253 50.0935L251 50.0935L251 36.5935C251 27.4808 243.613 20.0935 234.5 20.0935L234.5 18.0935ZM252 50.0935L217 50.0935L252 50.0935ZM216 36.5935C216 26.3762 224.283 18.0935 234.5 18.0935C244.717 18.0935 253 26.3762 253 36.5935L251 36.5935C251 27.4808 243.613 20.0935 234.5 20.0935C225.387 20.0935 218 27.4808 218 36.5935L216 36.5935Z" fill="url(#paint5_linear_431_141)" fill-opacity="0.36" mask="url(#path-18-inside-2_431_141)"/>
<mask id="path-20-outside-3_431_141" maskUnits="userSpaceOnUse" x="221.661" y="22.2281" width="26.3205" height="25.5885" fill="black">
<rect fill="white" x="221.661" y="22.2281" width="26.3205" height="25.5885"/>
<path fill-rule="evenodd" clip-rule="evenodd" d="M239.967 32.3993C239.907 32.2772 239.843 32.1564 239.774 32.037C238.147 29.2195 234.544 28.2542 231.727 29.8809C229.479 31.1785 228.41 33.7336 228.896 36.1444L239.967 32.3993ZM240.449 33.8197C240.934 36.2307 239.865 38.786 237.617 40.0837C234.8 41.7104 231.197 40.745 229.571 37.9276C229.502 37.808 229.437 37.6871 229.378 37.5649L240.449 33.8197Z"/>
</mask>
<path fill-rule="evenodd" clip-rule="evenodd" d="M239.967 32.3993C239.907 32.2772 239.843 32.1564 239.774 32.037C238.147 29.2195 234.544 28.2542 231.727 29.8809C229.479 31.1785 228.41 33.7336 228.896 36.1444L239.967 32.3993ZM240.449 33.8197C240.934 36.2307 239.865 38.786 237.617 40.0837C234.8 41.7104 231.197 40.745 229.571 37.9276C229.502 37.808 229.437 37.6871 229.378 37.5649L240.449 33.8197Z" fill="url(#paint6_linear_431_141)"/>
<path d="M239.967 32.3993L240.928 35.2411L244.161 34.1473L242.661 31.0811L239.967 32.3993ZM228.896 36.1444L225.955 36.7364L226.627 40.0787L229.857 38.9862L228.896 36.1444ZM240.449 33.8197L243.389 33.2275L242.716 29.8855L239.487 30.9779L240.449 33.8197ZM229.378 37.5649L228.416 34.7231L225.183 35.8168L226.683 38.8828L229.378 37.5649ZM237.175 33.537C237.21 33.5969 237.242 33.6571 237.272 33.7174L242.661 31.0811C242.572 30.8974 242.475 30.7159 242.372 30.537L237.175 33.537ZM233.227 32.4789C234.609 31.6807 236.377 32.1544 237.175 33.537L242.372 30.537C239.917 26.2847 234.479 24.8277 230.227 27.2828L233.227 32.4789ZM231.837 35.5524C231.598 34.3657 232.128 33.1134 233.227 32.4789L230.227 27.2828C226.831 29.2436 225.223 33.1014 225.955 36.7364L231.837 35.5524ZM229.857 38.9862L240.928 35.2411L239.005 29.5575L227.934 33.3026L229.857 38.9862ZM237.508 34.412C237.747 35.5987 237.216 36.8512 236.117 37.4856L239.117 42.6818C242.514 40.7209 244.122 36.8627 243.389 33.2275L237.508 34.412ZM236.117 37.4856C234.735 38.2839 232.967 37.8102 232.169 36.4276L226.973 39.4276C229.428 43.6799 234.865 45.1369 239.117 42.6818L236.117 37.4856ZM232.169 36.4276C232.134 36.3676 232.102 36.3074 232.073 36.2469L226.683 38.8828C226.773 39.0667 226.869 39.2484 226.973 39.4276L232.169 36.4276ZM239.487 30.9779L228.416 34.7231L230.339 40.4067L241.41 36.6615L239.487 30.9779Z" fill="url(#paint7_radial_431_141)" mask="url(#path-20-outside-3_431_141)"/>
<mask id="path-22-outside-4_431_141" maskUnits="userSpaceOnUse" x="37" y="17.0935" width="39" height="33" fill="black">
<rect fill="white" x="37" y="17.0935" width="39" height="33"/>
<path d="M39 50.0935L39 36.5935C39 26.9285 46.835 19.0935 56.5 19.0935C66.165 19.0935 74 26.9285 74 36.5935L74 50.0935L39 50.0935Z"/>
</mask>
<path d="M39 50.0935L39 36.5935C39 26.9285 46.835 19.0935 56.5 19.0935C66.165 19.0935 74 26.9285 74 36.5935L74 50.0935L39 50.0935Z" fill="#262626"/>
<path d="M37 50.0935L37 36.5935C37 25.824 45.7304 17.0935 56.5 17.0935L56.5 21.0935C47.9396 21.0935 41 28.0331 41 36.5935L41 50.0935L37 50.0935ZM56.5 17.0935C67.2696 17.0935 76 25.824 76 36.5935L76 50.0935L72 50.0935L72 36.5935C72 28.0331 65.0604 21.0935 56.5 21.0935L56.5 17.0935ZM74 50.0935L39 50.0935L74 50.0935ZM37 36.5935C37 25.824 45.7304 17.0935 56.5 17.0935C67.2696 17.0935 76 25.824 76 36.5935L72 36.5935C72 28.0331 65.0604 21.0935 56.5 21.0935C47.9396 21.0935 41 28.0331 41 36.5935L37 36.5935Z" fill="#191819" mask="url(#path-22-outside-4_431_141)"/>
<mask id="path-24-inside-5_431_141" fill="white">
<path d="M39 50.0935L39 36.5935C39 26.9285 46.835 19.0935 56.5 19.0935C66.165 19.0935 74 26.9285 74 36.5935L74 50.0935L39 50.0935Z"/>
</mask>
<path d="M38 50.0935L38 36.5935C38 26.3762 46.2827 18.0935 56.5 18.0935L56.5 20.0935C47.3873 20.0935 40 27.4808 40 36.5935L40 50.0935L38 50.0935ZM56.5 18.0935C66.7173 18.0935 75 26.3762 75 36.5935L75 50.0935L73 50.0935L73 36.5935C73 27.4808 65.6127 20.0935 56.5 20.0935L56.5 18.0935ZM74 50.0935L39 50.0935L74 50.0935ZM38 36.5935C38 26.3762 46.2827 18.0935 56.5 18.0935C66.7173 18.0935 75 26.3762 75 36.5935L73 36.5935C73 27.4808 65.6127 20.0935 56.5 20.0935C47.3873 20.0935 40 27.4808 40 36.5935L38 36.5935Z" fill="url(#paint8_linear_431_141)" fill-opacity="0.36" mask="url(#path-24-inside-5_431_141)"/>
<mask id="path-26-outside-6_431_141" maskUnits="userSpaceOnUse" x="44.7608" y="23.8348" width="23.9773" height="22.563" fill="black">
<rect fill="white" x="44.7608" y="23.8348" width="23.9773" height="22.563"/>
<path fill-rule="evenodd" clip-rule="evenodd" d="M62.2423 36.8995C62.2864 36.771 62.3264 36.6401 62.362 36.5069C63.2041 33.3645 61.3392 30.1344 58.1967 29.2924C55.6899 28.6207 53.1274 29.6716 51.7658 31.7195L62.2423 36.8995ZM61.5787 38.2448C60.2172 40.2929 57.6545 41.344 55.1475 40.6722C52.0051 39.8302 50.1402 36.6002 50.9822 33.4577C51.018 33.3244 51.058 33.1933 51.1021 33.0647L61.5787 38.2448Z"/>
</mask>
<path fill-rule="evenodd" clip-rule="evenodd" d="M62.2423 36.8995C62.2864 36.771 62.3264 36.6401 62.362 36.5069C63.2041 33.3645 61.3392 30.1344 58.1967 29.2924C55.6899 28.6207 53.1274 29.6716 51.7658 31.7195L62.2423 36.8995ZM61.5787 38.2448C60.2172 40.2929 57.6545 41.344 55.1475 40.6722C52.0051 39.8302 50.1402 36.6002 50.9822 33.4577C51.018 33.3244 51.058 33.1933 51.1021 33.0647L61.5787 38.2448Z" fill="url(#paint9_linear_431_141)"/>
<path d="M62.2423 36.8995L60.9126 39.5888L63.9723 41.1017L65.0799 37.873L62.2423 36.8995ZM51.7658 31.7195L49.2676 30.0585L47.38 32.8976L50.4361 34.4087L51.7658 31.7195ZM61.5787 38.2448L64.0771 39.9056L65.9643 37.0666L62.9084 35.5556L61.5787 38.2448ZM51.1021 33.0647L52.4318 30.3755L49.3723 28.8627L48.2646 32.091L51.1021 33.0647ZM59.4643 35.7305C59.4464 35.7973 59.4264 35.8625 59.4046 35.9261L65.0799 37.873C65.1463 37.6796 65.2063 37.483 65.2598 37.2834L59.4643 35.7305ZM57.4203 32.1902C58.9623 32.6034 59.8775 34.1884 59.4643 35.7305L65.2598 37.2834C66.5307 32.5406 63.716 27.6655 58.9732 26.3947L57.4203 32.1902ZM54.264 33.3805C54.9342 32.3725 56.1946 31.8618 57.4203 32.1902L58.9732 26.3947C55.1852 25.3797 51.3205 26.9708 49.2676 30.0585L54.264 33.3805ZM50.4361 34.4087L60.9126 39.5888L63.572 34.2103L53.0955 29.0303L50.4361 34.4087ZM59.0804 36.584C58.4102 37.5921 57.1497 38.1029 55.924 37.7745L54.3711 43.57C58.1593 44.5851 62.0243 42.9937 64.0771 39.9056L59.0804 36.584ZM55.924 37.7745C54.3819 37.3613 53.4668 35.7762 53.88 34.2342L48.0845 32.6813C46.8136 37.4241 49.6282 42.2992 54.3711 43.57L55.924 37.7745ZM53.88 34.2342C53.8979 34.1673 53.9179 34.102 53.9397 34.0384L48.2646 32.091C48.1981 32.2846 48.138 32.4814 48.0845 32.6813L53.88 34.2342ZM62.9084 35.5556L52.4318 30.3755L49.7725 35.7539L60.249 40.934L62.9084 35.5556Z" fill="url(#paint10_radial_431_141)" mask="url(#path-26-outside-6_431_141)"/>
<mask id="path-28-outside-7_431_141" maskUnits="userSpaceOnUse" x="215" y="152.394" width="39" height="33" fill="black">
<rect fill="white" x="215" y="152.394" width="39" height="33"/>
<path d="M252 152.394L252 165.894C252 175.559 244.165 183.394 234.5 183.394C224.835 183.394 217 175.559 217 165.894L217 152.394L252 152.394Z"/>
</mask>
<path d="M252 152.394L252 165.894C252 175.559 244.165 183.394 234.5 183.394C224.835 183.394 217 175.559 217 165.894L217 152.394L252 152.394Z" fill="#262626"/>
<path d="M254 152.394L254 165.894C254 176.663 245.27 185.394 234.5 185.394L234.5 181.394C243.06 181.394 250 174.454 250 165.894L250 152.394L254 152.394ZM234.5 185.394C223.73 185.394 215 176.663 215 165.894L215 152.394L219 152.394L219 165.894C219 174.454 225.94 181.394 234.5 181.394L234.5 185.394ZM217 152.394L252 152.394L217 152.394ZM254 165.894C254 176.663 245.27 185.394 234.5 185.394C223.73 185.394 215 176.663 215 165.894L219 165.894C219 174.454 225.94 181.394 234.5 181.394C243.06 181.394 250 174.454 250 165.894L254 165.894Z" fill="#191819" mask="url(#path-28-outside-7_431_141)"/>
<mask id="path-30-inside-8_431_141" fill="white">
<path d="M252 152.394L252 165.894C252 175.559 244.165 183.394 234.5 183.394C224.835 183.394 217 175.559 217 165.894L217 152.394L252 152.394Z"/>
</mask>
<path d="M253 152.394L253 165.894C253 176.111 244.717 184.394 234.5 184.394L234.5 182.394C243.613 182.394 251 175.006 251 165.894L251 152.394L253 152.394ZM234.5 184.394C224.283 184.394 216 176.111 216 165.894L216 152.394L218 152.394L218 165.894C218 175.006 225.387 182.394 234.5 182.394L234.5 184.394ZM217 152.394L252 152.394L217 152.394ZM253 165.894C253 176.111 244.717 184.394 234.5 184.394C224.283 184.394 216 176.111 216 165.894L218 165.894C218 175.006 225.387 182.394 234.5 182.394C243.613 182.394 251 175.006 251 165.894L253 165.894Z" fill="url(#paint11_linear_431_141)" fill-opacity="0.36" mask="url(#path-30-inside-8_431_141)"/>
<mask id="path-32-outside-9_431_141" maskUnits="userSpaceOnUse" x="222.262" y="156.089" width="23.9773" height="22.563" fill="black">
<rect fill="white" x="222.262" y="156.089" width="23.9773" height="22.563"/>
<path fill-rule="evenodd" clip-rule="evenodd" d="M228.758 165.588C228.714 165.716 228.674 165.847 228.638 165.98C227.796 169.123 229.661 172.353 232.803 173.195C235.31 173.866 237.873 172.815 239.234 170.768L228.758 165.588ZM229.421 164.242C230.783 162.194 233.345 161.143 235.852 161.815C238.995 162.657 240.86 165.887 240.018 169.029C239.982 169.163 239.942 169.294 239.898 169.422L229.421 164.242Z"/>
</mask>
<path fill-rule="evenodd" clip-rule="evenodd" d="M228.758 165.588C228.714 165.716 228.674 165.847 228.638 165.98C227.796 169.123 229.661 172.353 232.803 173.195C235.31 173.866 237.873 172.815 239.234 170.768L228.758 165.588ZM229.421 164.242C230.783 162.194 233.345 161.143 235.852 161.815C238.995 162.657 240.86 165.887 240.018 169.029C239.982 169.163 239.942 169.294 239.898 169.422L229.421 164.242Z" fill="url(#paint12_linear_431_141)"/>
<path d="M228.758 165.588L230.087 162.898L227.028 161.385L225.92 164.614L228.758 165.588ZM239.234 170.768L241.732 172.429L243.62 169.589L240.564 168.078L239.234 170.768ZM229.421 164.242L226.923 162.581L225.036 165.421L228.092 166.931L229.421 164.242ZM239.898 169.422L238.568 172.112L241.628 173.624L242.735 170.396L239.898 169.422ZM231.536 166.757C231.554 166.69 231.574 166.625 231.595 166.561L225.92 164.614C225.854 164.807 225.794 165.004 225.74 165.204L231.536 166.757ZM233.58 170.297C232.038 169.884 231.123 168.299 231.536 166.757L225.74 165.204C224.469 169.947 227.284 174.822 232.027 176.092L233.58 170.297ZM236.736 169.107C236.066 170.115 234.805 170.625 233.58 170.297L232.027 176.092C235.815 177.107 239.68 175.516 241.732 172.429L236.736 169.107ZM240.564 168.078L230.087 162.898L227.428 168.277L237.905 173.457L240.564 168.078ZM231.92 165.903C232.59 164.895 233.85 164.384 235.076 164.713L236.629 158.917C232.841 157.902 228.976 159.493 226.923 162.581L231.92 165.903ZM235.076 164.713C236.618 165.126 237.533 166.711 237.12 168.253L242.916 169.806C244.186 165.063 241.372 160.188 236.629 158.917L235.076 164.713ZM237.12 168.253C237.102 168.32 237.082 168.385 237.06 168.449L242.735 170.396C242.802 170.202 242.862 170.006 242.916 169.806L237.12 168.253ZM228.092 166.931L238.568 172.112L241.228 166.733L230.751 161.553L228.092 166.931Z" fill="url(#paint13_radial_431_141)" mask="url(#path-32-outside-9_431_141)"/>
<mask id="path-34-outside-10_431_141" maskUnits="userSpaceOnUse" x="37" y="152.394" width="39" height="33" fill="black">
<rect fill="white" x="37" y="152.394" width="39" height="33"/>
<path d="M74 152.394L74 165.894C74 175.559 66.165 183.394 56.5 183.394C46.835 183.394 39 175.559 39 165.894L39 152.394L74 152.394Z"/>
</mask>
<path d="M74 152.394L74 165.894C74 175.559 66.165 183.394 56.5 183.394C46.835 183.394 39 175.559 39 165.894L39 152.394L74 152.394Z" fill="#262626"/>
<path d="M76 152.394L76 165.894C76 176.663 67.2696 185.394 56.5 185.394L56.5 181.394C65.0604 181.394 72 174.454 72 165.894L72 152.394L76 152.394ZM56.5 185.394C45.7304 185.394 37 176.663 37 165.894L37 152.394L41 152.394L41 165.894C41 174.454 47.9396 181.394 56.5 181.394L56.5 185.394ZM39 152.394L74 152.394L39 152.394ZM76 165.894C76 176.663 67.2696 185.394 56.5 185.394C45.7304 185.394 37 176.663 37 165.894L41 165.894C41 174.454 47.9396 181.394 56.5 181.394C65.0604 181.394 72 174.454 72 165.894L76 165.894Z" fill="#191819" mask="url(#path-34-outside-10_431_141)"/>
<mask id="path-36-inside-11_431_141" fill="white">
<path d="M74 152.394L74 165.894C74 175.559 66.165 183.394 56.5 183.394C46.835 183.394 39 175.559 39 165.894L39 152.394L74 152.394Z"/>
</mask>
<path d="M75 152.394L75 165.894C75 176.111 66.7173 184.394 56.5 184.394L56.5 182.394C65.6127 182.394 73 175.006 73 165.894L73 152.394L75 152.394ZM56.5 184.394C46.2827 184.394 38 176.111 38 165.894L38 152.394L40 152.394L40 165.894C40 175.006 47.3873 182.394 56.5 182.394L56.5 184.394ZM39 152.394L74 152.394L39 152.394ZM75 165.894C75 176.111 66.7173 184.394 56.5 184.394C46.2827 184.394 38 176.111 38 165.894L40 165.894C40 175.006 47.3873 182.394 56.5 182.394C65.6127 182.394 73 175.006 73 165.894L75 165.894Z" fill="url(#paint14_linear_431_141)" fill-opacity="0.36" mask="url(#path-36-inside-11_431_141)"/>
<mask id="path-38-outside-12_431_141" maskUnits="userSpaceOnUse" x="43.0182" y="154.671" width="26.3205" height="25.5885" fill="black">
<rect fill="white" x="43.0182" y="154.671" width="26.3205" height="25.5885"/>
<path fill-rule="evenodd" clip-rule="evenodd" d="M51.0335 170.088C51.0932 170.21 51.1575 170.331 51.2264 170.45C52.8531 173.268 56.4557 174.233 59.2732 172.606C61.5207 171.309 62.5896 168.753 62.1043 166.343L51.0335 170.088ZM50.5515 168.667C50.0659 166.256 51.1349 163.701 53.3825 162.403C56.2 160.777 59.8026 161.742 61.4293 164.559C61.4983 164.679 61.5627 164.8 61.6224 164.922L50.5515 168.667Z"/>
</mask>
<path fill-rule="evenodd" clip-rule="evenodd" d="M51.0335 170.088C51.0932 170.21 51.1575 170.331 51.2264 170.45C52.8531 173.268 56.4557 174.233 59.2732 172.606C61.5207 171.309 62.5896 168.753 62.1043 166.343L51.0335 170.088ZM50.5515 168.667C50.0659 166.256 51.1349 163.701 53.3825 162.403C56.2 160.777 59.8026 161.742 61.4293 164.559C61.4983 164.679 61.5627 164.8 61.6224 164.922L50.5515 168.667Z" fill="url(#paint15_linear_431_141)"/>
<path d="M51.0335 170.088L50.0721 167.246L46.8388 168.34L48.3386 171.406L51.0335 170.088ZM62.1043 166.343L65.0454 165.751L64.3725 162.408L61.143 163.501L62.1043 166.343ZM50.5515 168.667L47.6105 169.26L48.2835 172.602L51.5128 171.509L50.5515 168.667ZM61.6224 164.922L62.5838 167.764L65.8168 166.67L64.3174 163.604L61.6224 164.922ZM53.8245 168.95C53.7899 168.89 53.7579 168.83 53.7284 168.77L48.3386 171.406C48.4284 171.59 48.525 171.771 48.6284 171.95L53.8245 168.95ZM57.7732 170.008C56.3906 170.806 54.6227 170.333 53.8245 168.95L48.6284 171.95C51.0834 176.202 56.5209 177.659 60.7732 175.204L57.7732 170.008ZM59.1633 166.935C59.4022 168.121 58.8721 169.374 57.7732 170.008L60.7732 175.204C64.1694 173.243 65.7771 169.386 65.0454 165.751L59.1633 166.935ZM61.143 163.501L50.0721 167.246L51.9948 172.93L63.0657 169.184L61.143 163.501ZM53.4924 168.075C53.2534 166.888 53.7836 165.636 54.8825 165.001L51.8825 159.805C48.4861 161.766 46.8784 165.624 47.6105 169.26L53.4924 168.075ZM54.8825 165.001C56.2651 164.203 58.033 164.677 58.8312 166.059L64.0274 163.059C61.5723 158.807 56.1349 157.35 51.8825 159.805L54.8825 165.001ZM58.8312 166.059C58.8658 166.119 58.8979 166.18 58.9274 166.24L64.3174 163.604C64.2275 163.42 64.1308 163.239 64.0274 163.059L58.8312 166.059ZM51.5128 171.509L62.5838 167.764L60.6611 162.08L49.5901 165.826L51.5128 171.509Z" fill="url(#paint16_radial_431_141)" mask="url(#path-38-outside-12_431_141)"/>
<defs>
<linearGradient id="paint0_linear_431_141" x1="275.935" y1="-8.17661" x2="3.48472" y2="219.651" gradientUnits="userSpaceOnUse">
<stop offset="0.339964" stop-color="#353435"/>
<stop offset="0.34" stop-color="#525355"/>
<stop offset="0.66" stop-color="#717171"/>
<stop offset="0.660924" stop-color="#505153"/>
</linearGradient>
<linearGradient id="paint1_linear_431_141" x1="146" y1="7.83862" x2="146" y2="11.9326" gradientUnits="userSpaceOnUse">
<stop offset="0.405" stop-color="#9BAF5D"/>
<stop offset="0.68" stop-color="#7B9034"/>
</linearGradient>
<linearGradient id="paint2_linear_431_141" x1="283.353" y1="101.243" x2="279.259" y2="101.243" gradientUnits="userSpaceOnUse">
<stop offset="0.405" stop-color="#9BAF5D"/>
<stop offset="0.68" stop-color="#7B9034"/>
</linearGradient>
<linearGradient id="paint3_linear_431_141" x1="146" y1="195.348" x2="146" y2="191.254" gradientUnits="userSpaceOnUse">
<stop offset="0.405" stop-color="#9BAF5D"/>
<stop offset="0.68" stop-color="#7B9034"/>
</linearGradient>
<linearGradient id="paint4_linear_431_141" x1="7.94497" y1="101.243" x2="12.0389" y2="101.243" gradientUnits="userSpaceOnUse">
<stop offset="0.405" stop-color="#9BAF5D"/>
<stop offset="0.68" stop-color="#7B9034"/>
</linearGradient>
<linearGradient id="paint5_linear_431_141" x1="237.192" y1="21.9998" x2="235.624" y2="50.0811" gradientUnits="userSpaceOnUse">
<stop stop-color="#5E5E5E"/>
<stop offset="1" stop-color="#C4C4C4"/>
</linearGradient>
<linearGradient id="paint6_linear_431_141" x1="231.727" y1="29.8809" x2="237.617" y2="40.0837" gradientUnits="userSpaceOnUse">
<stop stop-color="#767676"/>
<stop offset="0.45" stop-color="#404040"/>
<stop offset="1" stop-color="#595959"/>
</linearGradient>
<radialGradient id="paint7_radial_431_141" cx="0" cy="0" r="1" gradientUnits="userSpaceOnUse" gradientTransform="translate(234.672 34.9823) rotate(60) scale(8.63958)">
<stop/>
<stop offset="0.664391" stop-color="#040404"/>
<stop offset="1" stop-color="#262626" stop-opacity="0"/>
</radialGradient>
<linearGradient id="paint8_linear_431_141" x1="59.1923" y1="21.9998" x2="57.6244" y2="50.0811" gradientUnits="userSpaceOnUse">
<stop stop-color="#5E5E5E"/>
<stop offset="1" stop-color="#C4C4C4"/>
</linearGradient>
<linearGradient id="paint9_linear_431_141" x1="58.1967" y1="29.2924" x2="55.1475" y2="40.6722" gradientUnits="userSpaceOnUse">
<stop stop-color="#767676"/>
<stop offset="0.45" stop-color="#404040"/>
<stop offset="1" stop-color="#595959"/>
</linearGradient>
<radialGradient id="paint10_radial_431_141" cx="0" cy="0" r="1" gradientUnits="userSpaceOnUse" gradientTransform="translate(56.6721 34.9823) rotate(105) scale(8.63958)">
<stop/>
<stop offset="0.664391" stop-color="#040404"/>
<stop offset="1" stop-color="#262626" stop-opacity="0"/>
</radialGradient>
<linearGradient id="paint11_linear_431_141" x1="231.808" y1="180.487" x2="233.376" y2="152.406" gradientUnits="userSpaceOnUse">
<stop stop-color="#5E5E5E"/>
<stop offset="1" stop-color="#C4C4C4"/>
</linearGradient>
<linearGradient id="paint12_linear_431_141" x1="232.803" y1="173.195" x2="235.852" y2="161.815" gradientUnits="userSpaceOnUse">
<stop stop-color="#767676"/>
<stop offset="0.45" stop-color="#404040"/>
<stop offset="1" stop-color="#595959"/>
</linearGradient>
<radialGradient id="paint13_radial_431_141" cx="0" cy="0" r="1" gradientUnits="userSpaceOnUse" gradientTransform="translate(234.328 167.505) rotate(-75) scale(8.63958)">
<stop/>
<stop offset="0.664391" stop-color="#040404"/>
<stop offset="1" stop-color="#262626" stop-opacity="0"/>
</radialGradient>
<linearGradient id="paint14_linear_431_141" x1="53.8077" y1="180.487" x2="55.3756" y2="152.406" gradientUnits="userSpaceOnUse">
<stop stop-color="#5E5E5E"/>
<stop offset="1" stop-color="#C4C4C4"/>
</linearGradient>
<linearGradient id="paint15_linear_431_141" x1="59.2732" y1="172.606" x2="53.3825" y2="162.403" gradientUnits="userSpaceOnUse">
<stop stop-color="#767676"/>
<stop offset="0.45" stop-color="#404040"/>
<stop offset="1" stop-color="#595959"/>
</linearGradient>
<radialGradient id="paint16_radial_431_141" cx="0" cy="0" r="1" gradientUnits="userSpaceOnUse" gradientTransform="translate(56.3279 167.505) rotate(-120) scale(8.63958)">
<stop/>
<stop offset="0.664391" stop-color="#040404"/>
<stop offset="1" stop-color="#262626" stop-opacity="0"/>
</radialGradient>
</defs>
</svg>
