<svg width="132" height="50" viewBox="0 0 132 50" fill="none" xmlns="http://www.w3.org/2000/svg">
<mask id="path-1-outside-1_469_234" maskUnits="userSpaceOnUse" x="-0.514284" y="13" width="22" height="26" fill="black">
<rect fill="white" x="-0.514284" y="13" width="22" height="26"/>
<path d="M21.4857 37L13 37C6.92487 37 2 32.0751 2 26V26C2 19.9249 6.92487 15 13 15L21.4857 15L21.4857 37Z"/>
</mask>
<path d="M21.4857 37L13 37C6.92487 37 2 32.0751 2 26V26C2 19.9249 6.92487 15 13 15L21.4857 15L21.4857 37Z" fill="#262626"/>
<path d="M21.4857 39L13 39C5.8203 39 3.33981e-07 33.1797 9.61651e-07 26L4 26C4 30.9706 8.02944 35 13 35L21.4857 35L21.4857 39ZM9.61651e-07 26C1.58932e-06 18.8203 5.8203 13 13 13L21.4857 13L21.4857 17L13 17C8.02944 17 4 21.0294 4 26L9.61651e-07 26ZM21.4857 15L21.4857 37L21.4857 15ZM13 39C5.8203 39 3.33981e-07 33.1797 9.61651e-07 26C1.58932e-06 18.8203 5.8203 13 13 13L13 17C8.02944 17 4 21.0294 4 26C4 30.9706 8.02944 35 13 35L13 39Z" fill="#191819" mask="url(#path-1-outside-1_469_234)"/>
<mask id="path-3-inside-2_469_234" fill="white">
<path d="M21.4857 37L13 37C6.92487 37 2 32.0751 2 26V26C2 19.9249 6.92487 15 13 15L21.4857 15L21.4857 37Z"/>
</mask>
<path d="M21.4857 38L13 38C6.37258 38 1 32.6274 1 26L3 26C3 31.5228 7.47715 36 13 36L21.4857 36L21.4857 38ZM1 26C1 19.3726 6.37259 14 13 14L21.4857 14L21.4857 16L13 16C7.47716 16 3 20.4771 3 26L1 26ZM21.4857 15L21.4857 37L21.4857 15ZM13 38C6.37258 38 1 32.6274 1 26C1 19.3726 6.37259 14 13 14L13 16C7.47716 16 3 20.4771 3 26C3 31.5228 7.47715 36 13 36L13 38Z" fill="url(#paint0_linear_469_234)" fill-opacity="0.36" mask="url(#path-3-inside-2_469_234)"/>
<mask id="path-5-outside-3_469_234" maskUnits="userSpaceOnUse" x="3.51937" y="16.1424" width="17.6641" height="19.0783" fill="black">
<rect fill="white" x="3.51937" y="16.1424" width="17.6641" height="19.0783"/>
<path fill-rule="evenodd" clip-rule="evenodd" d="M14.2669 22.973C15.402 23.8603 15.9602 25.3707 15.5638 26.8502C15.0366 28.8177 13.0201 29.9885 11.0522 29.4746L14.2669 22.973ZM9.70719 28.8105C8.5723 27.9231 8.01434 26.4129 8.41072 24.9336C8.93787 22.9662 10.954 21.7955 12.9218 22.3091L9.70719 28.8105Z"/>
</mask>
<path fill-rule="evenodd" clip-rule="evenodd" d="M14.2669 22.973C15.402 23.8603 15.9602 25.3707 15.5638 26.8502C15.0366 28.8177 13.0201 29.9885 11.0522 29.4746L14.2669 22.973ZM9.70719 28.8105C8.5723 27.9231 8.01434 26.4129 8.41072 24.9336C8.93787 22.9662 10.954 21.7955 12.9218 22.3091L9.70719 28.8105Z" fill="url(#paint1_linear_469_234)"/>
<path d="M14.2669 22.973L16.1145 20.6094L13.2111 18.3398L11.5777 21.6433L14.2669 22.973ZM11.0522 29.4746L8.36297 28.1449L6.73044 31.4466L10.2942 32.3772L11.0522 29.4746ZM9.70719 28.8105L7.85925 31.1738L10.7628 33.4442L12.3964 30.1402L9.70719 28.8105ZM12.9218 22.3091L15.611 23.6388L17.2438 20.3366L13.6794 19.4063L12.9218 22.3091ZM12.4193 25.3365C12.6398 25.5089 12.74 25.7975 12.666 26.0738L18.4615 27.6267C19.1804 24.9439 18.1643 22.2118 16.1145 20.6094L12.4193 25.3365ZM12.666 26.0738C12.566 26.447 12.1832 26.6693 11.8102 26.5719L10.2942 32.3772C13.857 33.3076 17.5072 31.1884 18.4615 27.6267L12.666 26.0738ZM11.5777 21.6433L8.36297 28.1449L13.7414 30.8042L16.9561 24.3027L11.5777 21.6433ZM11.5551 26.4472C11.3346 26.2748 11.2345 25.9862 11.3085 25.71L5.51295 24.1571C4.79419 26.8395 5.80998 29.5714 7.85925 31.1738L11.5551 26.4472ZM11.3085 25.71C11.4085 25.3368 11.7912 25.1145 12.1642 25.2119L13.6794 19.4063C10.1169 18.4765 6.46723 20.5957 5.51295 24.1571L11.3085 25.71ZM12.3964 30.1402L15.611 23.6388L10.2326 20.9794L7.01796 27.4808L12.3964 30.1402Z" fill="url(#paint2_radial_469_234)" mask="url(#path-5-outside-3_469_234)"/>
<mask id="path-7-outside-4_469_234" maskUnits="userSpaceOnUse" x="110" y="13" width="22" height="26" fill="black">
<rect fill="white" x="110" y="13" width="22" height="26"/>
<path d="M110 15L118.486 15C124.561 15 129.486 19.9249 129.486 26V26C129.486 32.0751 124.561 37 118.486 37H110V15Z"/>
</mask>
<path d="M110 15L118.486 15C124.561 15 129.486 19.9249 129.486 26V26C129.486 32.0751 124.561 37 118.486 37H110V15Z" fill="#262626"/>
<path d="M110 13H118.486C125.665 13 131.486 18.8203 131.486 26H127.486C127.486 21.0294 123.456 17 118.486 17H110V13ZM131.486 26C131.486 33.1797 125.665 39 118.486 39H110V35H118.486C123.456 35 127.486 30.9706 127.486 26H131.486ZM110 37V15V37ZM118.486 13C125.665 13 131.486 18.8203 131.486 26C131.486 33.1797 125.665 39 118.486 39V35C123.456 35 127.486 30.9706 127.486 26C127.486 21.0294 123.456 17 118.486 17V13Z" fill="#191819" mask="url(#path-7-outside-4_469_234)"/>
<mask id="path-9-inside-5_469_234" fill="white">
<path d="M110 15L118.486 15C124.561 15 129.486 19.9249 129.486 26V26C129.486 32.0751 124.561 37 118.486 37H110V15Z"/>
</mask>
<path d="M110 14L118.486 14C125.113 14 130.486 19.3726 130.486 26H128.486C128.486 20.4772 124.009 16 118.486 16L110 16V14ZM130.486 26C130.486 32.6274 125.113 38 118.486 38H110V36H118.486C124.009 36 128.486 31.5229 128.486 26H130.486ZM110 37V15V37ZM118.486 14C125.113 14 130.486 19.3726 130.486 26C130.486 32.6274 125.113 38 118.486 38V36C124.009 36 128.486 31.5229 128.486 26C128.486 20.4772 124.009 16 118.486 16V14Z" fill="url(#paint3_linear_469_234)" fill-opacity="0.36" mask="url(#path-9-inside-5_469_234)"/>
<mask id="path-11-outside-6_469_234" maskUnits="userSpaceOnUse" x="110.302" y="16.7793" width="17.6641" height="19.0783" fill="black">
<rect fill="white" x="110.302" y="16.7793" width="17.6641" height="19.0783"/>
<path fill-rule="evenodd" clip-rule="evenodd" d="M117.219 29.027C116.084 28.1397 115.526 26.6293 115.922 25.1498C116.449 23.1823 118.466 22.0115 120.434 22.5254L117.219 29.027ZM121.779 23.1895C122.913 24.0769 123.471 25.5871 123.075 27.0664C122.548 29.0338 120.532 30.2045 118.564 29.6909L121.779 23.1895Z"/>
</mask>
<path fill-rule="evenodd" clip-rule="evenodd" d="M117.219 29.027C116.084 28.1397 115.526 26.6293 115.922 25.1498C116.449 23.1823 118.466 22.0115 120.434 22.5254L117.219 29.027ZM121.779 23.1895C122.913 24.0769 123.471 25.5871 123.075 27.0664C122.548 29.0338 120.532 30.2045 118.564 29.6909L121.779 23.1895Z" fill="url(#paint4_linear_469_234)"/>
<path d="M117.219 29.027L115.371 31.3906L118.275 33.6602L119.908 30.3567L117.219 29.027ZM120.434 22.5254L123.123 23.8551L124.755 20.5534L121.192 19.6228L120.434 22.5254ZM121.779 23.1895L123.626 20.8262L120.723 18.5558L119.089 21.8598L121.779 23.1895ZM118.564 29.6909L115.875 28.3612L114.242 31.6634L117.806 32.5937L118.564 29.6909ZM119.066 26.6635C118.846 26.4911 118.746 26.2025 118.82 25.9262L113.024 24.3733C112.305 27.0561 113.321 29.7882 115.371 31.3906L119.066 26.6635ZM118.82 25.9262C118.92 25.553 119.302 25.3307 119.676 25.4281L121.192 19.6228C117.629 18.6924 113.979 20.8116 113.024 24.3733L118.82 25.9262ZM119.908 30.3567L123.123 23.8551L117.744 21.1958L114.53 27.6973L119.908 30.3567ZM119.931 25.5528C120.151 25.7252 120.251 26.0138 120.177 26.29L125.973 27.8429C126.692 25.1605 125.676 22.4286 123.626 20.8262L119.931 25.5528ZM120.177 26.29C120.077 26.6632 119.695 26.8855 119.322 26.7881L117.806 32.5937C121.369 33.5235 125.018 31.4043 125.973 27.8429L120.177 26.29ZM119.089 21.8598L115.875 28.3612L121.253 31.0206L124.468 24.5192L119.089 21.8598Z" fill="url(#paint5_radial_469_234)" mask="url(#path-11-outside-6_469_234)"/>
<rect x="20.5" y="1" width="91.5" height="48" rx="14" fill="black" stroke="#555555" stroke-width="2"/>
<path d="M33.6 27.3001H33.7V28.5001C33.7 30.0465 34.9536 31.3001 36.5 31.3001H49.5C51.0464 31.3001 52.3 30.0465 52.3 28.5001V27.3001H53.2H53.5V27.0001V26.0001C53.5 24.7299 52.4702 23.7001 51.2 23.7001H46.2257C46.1852 23.485 46.1287 23.2755 46.0575 23.0729L49.2139 22.371C49.2751 22.6264 49.5303 22.8 49.8013 22.7458L51.2706 22.452C51.8691 22.3323 52.3 21.8067 52.3 21.1963C52.3 20.3881 51.5607 19.7821 50.7683 19.9405L49.6884 20.1565C49.4044 20.2133 49.2 20.4626 49.2 20.7522C49.2 20.7558 49.1975 20.7589 49.1941 20.7596L45.1996 21.6273C44.4124 20.7512 43.2705 20.2001 42 20.2001C39.8985 20.2001 38.1492 21.7076 37.7743 23.7001H35.6C34.3297 23.7001 33.3 24.7299 33.3 26.0001V27.0001V27.3001H33.6Z" fill="#EC8809" stroke="#350E00" stroke-width="0.6"/>
<path fill-rule="evenodd" clip-rule="evenodd" d="M36.1387 28.6934C35.9089 28.5402 35.8468 28.2298 36 28V28C36.1532 27.7702 36.4636 27.7082 36.6934 27.8613L37.0109 28.073C37.3071 28.2705 37.6929 28.2705 37.9891 28.073L38.3066 27.8613C38.5364 27.7082 38.8468 27.7702 39 28V28C39.1532 28.2298 39.0911 28.5402 38.8613 28.6934L38.0547 29.2311C37.7188 29.4551 37.2812 29.4551 36.9453 29.2311L36.1387 28.6934ZM42.1387 28.6934C41.9089 28.5402 41.8468 28.2298 42 28V28C42.1532 27.7702 42.4636 27.7082 42.6934 27.8613L43.0109 28.073C43.3071 28.2705 43.6929 28.2705 43.9891 28.073L44.3066 27.8613C44.5364 27.7082 44.8468 27.7702 45 28V28C45.1532 28.2298 45.0911 28.5402 44.8613 28.6934L44.0547 29.2311C43.7188 29.4551 43.2812 29.4551 42.9453 29.2311L42.1387 28.6934ZM48.1387 28.6934C47.9089 28.5402 47.8468 28.2298 48 28V28C48.1532 27.7702 48.4636 27.7082 48.6934 27.8613L49.0109 28.073C49.3071 28.2705 49.6929 28.2705 49.9891 28.073L50.3066 27.8613C50.5364 27.7082 50.8468 27.7702 51 28V28C51.1532 28.2298 51.0911 28.5402 50.8613 28.6934L50.0547 29.2311C49.7188 29.4551 49.2812 29.4551 48.9453 29.2311L48.1387 28.6934Z" fill="black"/>
<path fill-rule="evenodd" clip-rule="evenodd" d="M34 10.5C31.2386 10.5 29 12.7386 29 15.5V34.5C29 37.2614 31.2386 39.5 34 39.5H53C55.7614 39.5 58 37.2614 58 34.5V15.5C58 12.7386 55.7614 10.5 53 10.5H34ZM34 12.5C32.3431 12.5 31 13.8431 31 15.5V34.5C31 36.1569 32.3431 37.5 34 37.5H53C54.6569 37.5 56 36.1569 56 34.5V15.5C56 13.8431 54.6569 12.5 53 12.5H34Z" fill="#58595B"/>
<path d="M44 4.00001L88 4L83 9L48.5 9.00001L44 4.00001Z" fill="#494A4C"/>
<path fill-rule="evenodd" clip-rule="evenodd" d="M85 5L82 8L49 8L46.5 5L85 5ZM66.5 5.5L67.5 7.5L64.5 7.5L63.5 5.5L66.5 5.5ZM61 5.5L58 5.5L59 7.5L62 7.5L61 5.5ZM52.5 5.5L55.5 5.5L56.5 7.5L53.5 7.5L52.5 5.5ZM73 7.5L72 5.5L69 5.5L70 7.5L73 7.5ZM77.5 5.5L78.5 7.5L75.5 7.5L74.5 5.5L77.5 5.5Z" fill="url(#paint6_linear_469_234)"/>
<path d="M88 46L44 46L49 41L83.5 41L88 46Z" fill="#494A4C"/>
<path fill-rule="evenodd" clip-rule="evenodd" d="M47 45L50 42L83 42L85.5 45L47 45ZM65.5 44.5L64.5 42.5L67.5 42.5L68.5 44.5L65.5 44.5ZM71 44.5L74 44.5L73 42.5L70 42.5L71 44.5ZM79.5 44.5L76.5 44.5L75.5 42.5L78.5 42.5L79.5 44.5ZM59 42.5L60 44.5L63 44.5L62 42.5L59 42.5ZM54.5 44.5L53.5 42.5L56.5 42.5L57.5 44.5L54.5 44.5Z" fill="url(#paint7_linear_469_234)"/>
<path d="M23.2 17C23.2 9.93076 28.9308 4.2 36 4.2H42.4092L45.5592 7.8H36C30.919 7.8 26.8 11.919 26.8 17V33C26.8 38.081 30.919 42.2 36 42.2H45.0172L41.4172 45.8H35C28.483 45.8 23.2 40.517 23.2 34V17Z" fill="url(#paint8_linear_469_234)" stroke="#FF9900" stroke-width="0.4"/>
<path d="M96 46.2C103.29 46.2 109.2 40.2902 109.2 33L109.2 16C109.2 9.26213 103.738 3.8 97 3.8L90.5041 3.8C90.4484 3.8 90.395 3.82212 90.3557 3.86151L86.3757 7.8415C86.2434 7.9738 86.3371 8.2 86.5241 8.2L96 8.2C100.86 8.2 104.8 12.1399 104.8 17L104.8 33C104.8 37.8601 100.86 41.8 96 41.8L86.022 41.8C85.8416 41.8 85.7452 42.0125 85.864 42.1483L89.3465 46.1283C89.3864 46.1739 89.444 46.2 89.5045 46.2L96 46.2Z" fill="url(#paint9_linear_469_234)" stroke="#FF9900" stroke-width="0.4"/>
<defs>
<linearGradient id="paint0_linear_469_234" x1="3.82679" y1="24.3077" x2="21.4779" y2="25.2932" gradientUnits="userSpaceOnUse">
<stop stop-color="#5E5E5E"/>
<stop offset="1" stop-color="#C4C4C4"/>
</linearGradient>
<linearGradient id="paint1_linear_469_234" x1="8.41072" y1="24.9336" x2="15.5638" y2="26.8502" gradientUnits="userSpaceOnUse">
<stop stop-color="#767676"/>
<stop offset="0.45" stop-color="#404040"/>
<stop offset="1" stop-color="#595959"/>
</linearGradient>
<radialGradient id="paint2_radial_469_234" cx="0" cy="0" r="1" gradientUnits="userSpaceOnUse" gradientTransform="translate(11.9872 25.8919) rotate(15) scale(5.4306 5.43048)">
<stop/>
<stop offset="0.664391" stop-color="#040404"/>
<stop offset="1" stop-color="#262626" stop-opacity="0"/>
</radialGradient>
<linearGradient id="paint3_linear_469_234" x1="127.659" y1="27.6923" x2="110.008" y2="26.7068" gradientUnits="userSpaceOnUse">
<stop stop-color="#5E5E5E"/>
<stop offset="1" stop-color="#C4C4C4"/>
</linearGradient>
<linearGradient id="paint4_linear_469_234" x1="123.075" y1="27.0664" x2="115.922" y2="25.1498" gradientUnits="userSpaceOnUse">
<stop stop-color="#767676"/>
<stop offset="0.45" stop-color="#404040"/>
<stop offset="1" stop-color="#595959"/>
</linearGradient>
<radialGradient id="paint5_radial_469_234" cx="0" cy="0" r="1" gradientUnits="userSpaceOnUse" gradientTransform="translate(119.498 26.1081) rotate(-165) scale(5.4306 5.43048)">
<stop/>
<stop offset="0.664391" stop-color="#040404"/>
<stop offset="1" stop-color="#262626" stop-opacity="0"/>
</radialGradient>
<linearGradient id="paint6_linear_469_234" x1="59" y1="5" x2="59" y2="8" gradientUnits="userSpaceOnUse">
<stop offset="0.4799" stop-color="#FF9900"/>
<stop offset="0.48" stop-color="#FFD880"/>
</linearGradient>
<linearGradient id="paint7_linear_469_234" x1="73" y1="45" x2="73" y2="42" gradientUnits="userSpaceOnUse">
<stop offset="0.4799" stop-color="#FF9900"/>
<stop offset="0.48" stop-color="#FFD880"/>
</linearGradient>
<linearGradient id="paint8_linear_469_234" x1="34.5" y1="4" x2="34.5" y2="46" gradientUnits="userSpaceOnUse">
<stop stop-color="#787878"/>
<stop offset="0.23" stop-color="#4B4C4D"/>
<stop offset="0.775" stop-color="#4B4C4E"/>
<stop offset="1" stop-color="#3E3D3F"/>
</linearGradient>
<linearGradient id="paint9_linear_469_234" x1="97.5" y1="46" x2="97.5" y2="4" gradientUnits="userSpaceOnUse">
<stop stop-color="#787878"/>
<stop offset="0.23" stop-color="#4B4C4D"/>
<stop offset="0.775" stop-color="#4B4C4E"/>
<stop offset="1" stop-color="#3E3D3F"/>
</linearGradient>
</defs>
</svg>
