<svg width="174" height="58" viewBox="0 0 174 58" fill="none" xmlns="http://www.w3.org/2000/svg">
<mask id="path-1-outside-1_469_297" maskUnits="userSpaceOnUse" x="73.4857" y="16" width="22" height="26" fill="black">
<rect fill="white" x="73.4857" y="16" width="22" height="26"/>
<path d="M95.4857 40L76 40L76 18L95.4857 18L95.4857 40Z"/>
</mask>
<path d="M95.4857 40L76 40L76 18L95.4857 18L95.4857 40Z" fill="#262626"/>
<path d="M76 40L74 40L74 42L76 42L76 40ZM76 18L76 16L74 16L74 18L76 18ZM95.4857 38L76 38L76 42L95.4857 42L95.4857 38ZM78 40L78 18L74 18L74 40L78 40ZM76 20L95.4857 20L95.4857 16L76 16L76 20Z" fill="#191819" mask="url(#path-1-outside-1_469_297)"/>
<mask id="path-3-inside-2_469_297" fill="white">
<path d="M95.4857 40L76 40L76 18L95.4857 18L95.4857 40Z"/>
</mask>
<path d="M76 40L75 40L75 41L76 41L76 40ZM76 18L76 17L75 17L75 18L76 18ZM95.4857 39L76 39L76 41L95.4857 41L95.4857 39ZM77 40L77 18L75 18L75 40L77 40ZM76 19L95.4857 19L95.4857 17L76 17L76 19Z" fill="url(#paint0_linear_469_297)" fill-opacity="0.36" mask="url(#path-3-inside-2_469_297)"/>
<mask id="path-5-outside-3_469_297" maskUnits="userSpaceOnUse" x="-0.514282" y="16" width="22" height="26" fill="black">
<rect fill="white" x="-0.514282" y="16" width="22" height="26"/>
<path d="M21.4857 40L13 40C6.92487 40 2 35.0751 2 29V29C2 22.9249 6.92487 18 13 18L21.4857 18L21.4857 40Z"/>
</mask>
<path d="M21.4857 40L13 40C6.92487 40 2 35.0751 2 29V29C2 22.9249 6.92487 18 13 18L21.4857 18L21.4857 40Z" fill="#262626"/>
<path d="M21.4857 42L13 42C5.8203 42 2.24133e-06 36.1797 2.869e-06 29L4 29C4 33.9706 8.02944 38 13 38L21.4857 38L21.4857 42ZM2.869e-06 29C3.49667e-06 21.8203 5.8203 16 13 16L21.4857 16L21.4857 20L13 20C8.02944 20 4 24.0294 4 29L2.869e-06 29ZM21.4857 18L21.4857 40L21.4857 18ZM13 42C5.8203 42 2.24133e-06 36.1797 2.869e-06 29C3.49667e-06 21.8203 5.8203 16 13 16L13 20C8.02944 20 4 24.0294 4 29C4 33.9706 8.02944 38 13 38L13 42Z" fill="#191819" mask="url(#path-5-outside-3_469_297)"/>
<mask id="path-7-inside-4_469_297" fill="white">
<path d="M21.4857 40L13 40C6.92487 40 2 35.0751 2 29V29C2 22.9249 6.92487 18 13 18L21.4857 18L21.4857 40Z"/>
</mask>
<path d="M21.4857 41L13 41C6.37259 41 1 35.6274 1 29L3 29C3 34.5228 7.47716 39 13 39L21.4857 39L21.4857 41ZM1 29C1 22.3726 6.37259 17 13 17L21.4857 17L21.4857 19L13 19C7.47716 19 3 23.4771 3 29L1 29ZM21.4857 18L21.4857 40L21.4857 18ZM13 41C6.37259 41 1 35.6274 1 29C1 22.3726 6.37259 17 13 17L13 19C7.47716 19 3 23.4771 3 29C3 34.5228 7.47716 39 13 39L13 41Z" fill="url(#paint1_linear_469_297)" fill-opacity="0.36" mask="url(#path-7-inside-4_469_297)"/>
<mask id="path-9-outside-5_469_297" maskUnits="userSpaceOnUse" x="3.51937" y="19.1424" width="17.6641" height="19.0783" fill="black">
<rect fill="white" x="3.51937" y="19.1424" width="17.6641" height="19.0783"/>
<path fill-rule="evenodd" clip-rule="evenodd" d="M14.2669 25.973C15.402 26.8603 15.9602 28.3707 15.5638 29.8502C15.0366 31.8177 13.0201 32.9885 11.0522 32.4746L14.2669 25.973ZM9.70719 31.8105C8.5723 30.9231 8.01434 29.4129 8.41073 27.9336C8.93787 25.9662 10.954 24.7955 12.9218 25.3091L9.70719 31.8105Z"/>
</mask>
<path fill-rule="evenodd" clip-rule="evenodd" d="M14.2669 25.973C15.402 26.8603 15.9602 28.3707 15.5638 29.8502C15.0366 31.8177 13.0201 32.9885 11.0522 32.4746L14.2669 25.973ZM9.70719 31.8105C8.5723 30.9231 8.01434 29.4129 8.41073 27.9336C8.93787 25.9662 10.954 24.7955 12.9218 25.3091L9.70719 31.8105Z" fill="url(#paint2_linear_469_297)"/>
<path d="M14.2669 25.973L16.1145 23.6094L13.2111 21.3398L11.5777 24.6433L14.2669 25.973ZM11.0522 32.4746L8.36297 31.1449L6.73044 34.4466L10.2942 35.3772L11.0522 32.4746ZM9.70719 31.8105L7.85925 34.1738L10.7628 36.4442L12.3964 33.1402L9.70719 31.8105ZM12.9218 25.3091L15.611 26.6388L17.2438 23.3366L13.6794 22.4063L12.9218 25.3091ZM12.4193 28.3365C12.6398 28.5089 12.74 28.7975 12.666 29.0738L18.4615 30.6267C19.1804 27.9439 18.1643 25.2118 16.1145 23.6094L12.4193 28.3365ZM12.666 29.0738C12.566 29.447 12.1832 29.6693 11.8102 29.5719L10.2942 35.3772C13.857 36.3076 17.5072 34.1884 18.4615 30.6267L12.666 29.0738ZM11.5777 24.6433L8.36297 31.1449L13.7414 33.8042L16.9561 27.3027L11.5777 24.6433ZM11.5551 29.4472C11.3346 29.2748 11.2345 28.9862 11.3085 28.71L5.51295 27.1571C4.79419 29.8395 5.80998 32.5714 7.85925 34.1738L11.5551 29.4472ZM11.3085 28.71C11.4085 28.3368 11.7912 28.1145 12.1642 28.2119L13.6794 22.4063C10.1169 21.4765 6.46723 23.5957 5.51295 27.1571L11.3085 28.71ZM12.3964 33.1402L15.611 26.6388L10.2326 23.9794L7.01797 30.4808L12.3964 33.1402Z" fill="url(#paint3_radial_469_297)" mask="url(#path-9-outside-5_469_297)"/>
<path d="M19 19.3373C19 8.65762 27.6576 0 38.3373 0H60.6497C71.3294 0 79.987 8.65762 79.987 19.3373V37.9309C79.987 48.6107 71.3294 57.2683 60.6497 57.2683H38.3373C27.6576 57.2683 19 48.6107 19 37.9309V19.3373Z" fill="black"/>
<path fill-rule="evenodd" clip-rule="evenodd" d="M60.6497 2.23123H38.3373C28.8899 2.23123 21.2312 9.8899 21.2312 19.3373V37.9309C21.2312 47.3784 28.8899 55.0371 38.3373 55.0371H60.6497C70.0971 55.0371 77.7558 47.3784 77.7558 37.9309V19.3373C77.7558 9.8899 70.0971 2.23123 60.6497 2.23123ZM38.3373 0C27.6576 0 19 8.65762 19 19.3373V37.9309C19 48.6107 27.6576 57.2683 38.3373 57.2683H60.6497C71.3294 57.2683 79.987 48.6107 79.987 37.9309V19.3373C79.987 8.65762 71.3294 0 60.6497 0H38.3373Z" fill="#646464"/>
<path fill-rule="evenodd" clip-rule="evenodd" d="M60.6497 0.743744H38.3373C28.0684 0.743744 19.7437 9.06838 19.7437 19.3373V37.9309C19.7437 48.1999 28.0684 56.5245 38.3373 56.5245H60.6497C70.9186 56.5245 79.2433 48.1999 79.2433 37.9309V19.3373C79.2433 9.06838 70.9186 0.743744 60.6497 0.743744ZM38.3373 0C27.6576 0 19 8.65762 19 19.3373V37.9309C19 48.6107 27.6576 57.2683 38.3373 57.2683H60.6497C71.3294 57.2683 79.987 48.6107 79.987 37.9309V19.3373C79.987 8.65762 71.3294 0 60.6497 0H38.3373Z" fill="#302F31"/>
<path d="M37.7527 5.4063H61.2913C67.3932 5.4063 72.565 9.88139 73.4513 15.9072L69.7653 18.923C69.5487 14.0758 65.5503 10.2125 60.6497 10.2125H38.3373C33.4297 10.2125 29.427 14.0868 29.2208 18.9437L25.1683 15.9044C26.2745 9.83059 31.5674 5.4063 37.7527 5.4063Z" fill="url(#paint4_linear_469_297)" stroke="#94AE3E" stroke-width="0.4"/>
<path d="M60.8624 51.862L37.3238 51.862C31.2219 51.862 26.0501 47.3869 25.1638 41.3611L28.8498 38.3454C29.0665 43.1925 33.0648 47.0558 37.9655 47.0558L60.2778 47.0558C65.1854 47.0558 69.1882 43.1815 69.3944 38.3246L73.4468 41.3639C72.3406 47.4377 67.0478 51.862 60.8624 51.862Z" fill="url(#paint5_linear_469_297)" stroke="#94AE3E" stroke-width="0.4"/>
<path fill-rule="evenodd" clip-rule="evenodd" d="M38.3373 11.8999C34.2298 11.8999 30.8999 15.2298 30.8999 19.3373V37.9309C30.8999 42.0385 34.2298 45.3684 38.3373 45.3684H60.6497C64.7572 45.3684 68.0871 42.0385 68.0871 37.9309V19.3373C68.0871 15.2298 64.7572 11.8999 60.6497 11.8999H38.3373ZM38.3373 13.3874C35.0513 13.3874 32.3874 16.0513 32.3874 19.3373V37.9309C32.3874 41.217 35.0513 43.8809 38.3373 43.8809H60.6497C63.9357 43.8809 66.5996 41.217 66.5996 37.9309V19.3373C66.5996 16.0513 63.9357 13.3874 60.6497 13.3874H38.3373Z" fill="#231F20"/>
<path d="M24.95 39.7903V17.478L28.6687 21.1967V36.4435L24.95 39.7903Z" fill="#494A4C"/>
<path fill-rule="evenodd" clip-rule="evenodd" d="M25.6937 19.709L27.9249 21.9402V36.0714L25.6937 37.9307V19.709ZM26.0656 24.1714L27.5531 23.4277V25.6589L26.0656 26.4027V24.1714ZM26.0656 28.262V30.4933L27.5531 29.7495V27.5183L26.0656 28.262ZM26.0656 34.5839V32.3526L27.5531 31.6089V33.8401L26.0656 34.5839Z" fill="url(#paint6_linear_469_297)"/>
<path d="M24.95 39.7903V17.478L28.6687 21.1967V36.4435L24.95 39.7903Z" fill="#494A4C"/>
<path fill-rule="evenodd" clip-rule="evenodd" d="M25.6937 19.709L27.9249 21.9402V36.0714L25.6937 37.9307V19.709ZM26.0656 24.1714L27.5531 23.4277V25.6589L26.0656 26.4027V24.1714ZM26.0656 28.262V30.4933L27.5531 29.7495V27.5183L26.0656 28.262ZM26.0656 34.5839V32.3526L27.5531 31.6089V33.8401L26.0656 34.5839Z" fill="url(#paint7_linear_469_297)"/>
<path d="M74.0371 17.478L74.0371 39.7903L70.3183 36.0716L70.3183 20.8248L74.0371 17.478Z" fill="#494A4C"/>
<path fill-rule="evenodd" clip-rule="evenodd" d="M73.2933 37.5593L71.0621 35.3281L71.0621 21.197L73.2933 19.3376L73.2933 37.5593ZM72.9215 33.0969L71.434 33.8406L71.434 31.6094L72.9215 30.8656L72.9215 33.0969ZM72.9215 29.0063L72.9215 26.775L71.434 27.5188L71.434 29.75L72.9215 29.0063ZM72.9215 22.6844L72.9215 24.9157L71.434 25.6594L71.434 23.4282L72.9215 22.6844Z" fill="url(#paint8_linear_469_297)"/>
<mask id="path-21-outside-6_469_297" maskUnits="userSpaceOnUse" x="152.501" y="15.2683" width="22" height="26" fill="black">
<rect fill="white" x="152.501" y="15.2683" width="22" height="26"/>
<path d="M152.501 17.2683L160.987 17.2683C167.062 17.2683 171.987 22.1932 171.987 28.2683V28.2683C171.987 34.3434 167.062 39.2683 160.987 39.2683L152.501 39.2683L152.501 17.2683Z"/>
</mask>
<path d="M152.501 17.2683L160.987 17.2683C167.062 17.2683 171.987 22.1932 171.987 28.2683V28.2683C171.987 34.3434 167.062 39.2683 160.987 39.2683L152.501 39.2683L152.501 17.2683Z" fill="#262626"/>
<path d="M152.501 15.2683L160.987 15.2683C168.167 15.2683 173.987 21.0886 173.987 28.2683L169.987 28.2683C169.987 23.2978 165.958 19.2683 160.987 19.2683L152.501 19.2683L152.501 15.2683ZM173.987 28.2683C173.987 35.448 168.167 41.2683 160.987 41.2683L152.501 41.2683L152.501 37.2683L160.987 37.2683C165.958 37.2683 169.987 33.2389 169.987 28.2683L173.987 28.2683ZM152.501 39.2683L152.501 17.2683L152.501 39.2683ZM160.987 15.2683C168.167 15.2683 173.987 21.0886 173.987 28.2683C173.987 35.448 168.167 41.2683 160.987 41.2683L160.987 37.2683C165.958 37.2683 169.987 33.2389 169.987 28.2683C169.987 23.2978 165.958 19.2683 160.987 19.2683L160.987 15.2683Z" fill="#191819" mask="url(#path-21-outside-6_469_297)"/>
<mask id="path-23-inside-7_469_297" fill="white">
<path d="M152.501 17.2683L160.987 17.2683C167.062 17.2683 171.987 22.1932 171.987 28.2683V28.2683C171.987 34.3434 167.062 39.2683 160.987 39.2683L152.501 39.2683L152.501 17.2683Z"/>
</mask>
<path d="M152.501 16.2683L160.987 16.2683C167.614 16.2683 172.987 21.6409 172.987 28.2683L170.987 28.2683C170.987 22.7455 166.51 18.2683 160.987 18.2683L152.501 18.2683L152.501 16.2683ZM172.987 28.2683C172.987 34.8957 167.614 40.2683 160.987 40.2683L152.501 40.2683L152.501 38.2683L160.987 38.2683C166.51 38.2683 170.987 33.7912 170.987 28.2683L172.987 28.2683ZM152.501 39.2683L152.501 17.2683L152.501 39.2683ZM160.987 16.2683C167.614 16.2683 172.987 21.6409 172.987 28.2683C172.987 34.8957 167.614 40.2683 160.987 40.2683L160.987 38.2683C166.51 38.2683 170.987 33.7912 170.987 28.2683C170.987 22.7455 166.51 18.2683 160.987 18.2683L160.987 16.2683Z" fill="url(#paint9_linear_469_297)" fill-opacity="0.36" mask="url(#path-23-inside-7_469_297)"/>
<mask id="path-25-outside-8_469_297" maskUnits="userSpaceOnUse" x="152.804" y="19.0476" width="17.6641" height="19.0783" fill="black">
<rect fill="white" x="152.804" y="19.0476" width="17.6641" height="19.0783"/>
<path fill-rule="evenodd" clip-rule="evenodd" d="M159.72 31.2953C158.585 30.408 158.027 28.8976 158.423 27.4181C158.95 25.4506 160.967 24.2799 162.935 24.7937L159.72 31.2953ZM164.28 25.4578C165.415 26.3452 165.973 27.8554 165.576 29.3347C165.049 31.3021 163.033 32.4728 161.065 31.9592L164.28 25.4578Z"/>
</mask>
<path fill-rule="evenodd" clip-rule="evenodd" d="M159.72 31.2953C158.585 30.408 158.027 28.8976 158.423 27.4181C158.95 25.4506 160.967 24.2799 162.935 24.7937L159.72 31.2953ZM164.28 25.4578C165.415 26.3452 165.973 27.8554 165.576 29.3347C165.049 31.3021 163.033 32.4728 161.065 31.9592L164.28 25.4578Z" fill="url(#paint10_linear_469_297)"/>
<path d="M159.72 31.2953L157.873 33.6589L160.776 35.9285L162.409 32.625L159.72 31.2953ZM162.935 24.7937L165.624 26.1234L167.257 22.8217L163.693 21.8911L162.935 24.7937ZM164.28 25.4578L166.128 23.0945L163.224 20.8241L161.591 24.1281L164.28 25.4578ZM161.065 31.9592L158.376 30.6295L156.743 33.9317L160.308 34.862L161.065 31.9592ZM161.568 28.9318C161.347 28.7594 161.247 28.4708 161.321 28.1945L155.525 26.6416C154.807 29.3244 155.823 32.0565 157.873 33.6589L161.568 28.9318ZM161.321 28.1945C161.421 27.8213 161.804 27.599 162.177 27.6964L163.693 21.8911C160.13 20.9607 156.48 23.0799 155.525 26.6416L161.321 28.1945ZM162.409 32.625L165.624 26.1234L160.246 23.4641L157.031 29.9657L162.409 32.625ZM162.432 27.8211C162.652 27.9935 162.753 28.2821 162.679 28.5583L168.474 30.1112C169.193 27.4288 168.177 24.6969 166.128 23.0945L162.432 27.8211ZM162.679 28.5583C162.578 28.9315 162.196 29.1538 161.823 29.0564L160.308 34.862C163.87 35.7918 167.52 33.6726 168.474 30.1112L162.679 28.5583ZM161.591 24.1281L158.376 30.6295L163.754 33.2889L166.969 26.7875L161.591 24.1281Z" fill="url(#paint11_radial_469_297)" mask="url(#path-25-outside-8_469_297)"/>
<path d="M154.987 37.931C154.987 48.6107 146.329 57.2683 135.65 57.2683L113.337 57.2683C102.658 57.2683 94 48.6107 94 37.931L94 19.3374C94 8.65764 102.658 1.67637e-05 113.337 1.76973e-05L135.65 1.96479e-05C146.329 2.05816e-05 154.987 8.65765 154.987 19.3374L154.987 37.931Z" fill="black"/>
<path fill-rule="evenodd" clip-rule="evenodd" d="M113.337 55.0371L135.65 55.0371C145.097 55.0371 152.756 47.3784 152.756 37.931L152.756 19.3374C152.756 9.88992 145.097 2.23125 135.65 2.23125L113.337 2.23125C103.89 2.23125 96.2312 9.88992 96.2312 19.3374L96.2312 37.931C96.2312 47.3784 103.89 55.0371 113.337 55.0371ZM135.65 57.2683C146.329 57.2683 154.987 48.6107 154.987 37.931L154.987 19.3374C154.987 8.65765 146.329 2.05816e-05 135.65 1.96479e-05L113.337 1.76973e-05C102.658 1.67637e-05 94 8.65764 94 19.3374L94 37.931C94 48.6107 102.658 57.2683 113.337 57.2683L135.65 57.2683Z" fill="#646464"/>
<path fill-rule="evenodd" clip-rule="evenodd" d="M113.337 56.5246L135.65 56.5246C145.919 56.5246 154.243 48.1999 154.243 37.931L154.243 19.3374C154.243 9.0684 145.919 0.743765 135.65 0.743764L113.337 0.743762C103.068 0.743761 94.7437 9.0684 94.7437 19.3374L94.7437 37.931C94.7437 48.1999 103.068 56.5246 113.337 56.5246ZM135.65 57.2683C146.329 57.2683 154.987 48.6107 154.987 37.931L154.987 19.3374C154.987 8.65765 146.329 2.05816e-05 135.65 1.96479e-05L113.337 1.76973e-05C102.658 1.67637e-05 94 8.65764 94 19.3374L94 37.931C94 48.6107 102.658 57.2683 113.337 57.2683L135.65 57.2683Z" fill="#302F31"/>
<path d="M136.234 51.862L112.696 51.862C106.594 51.862 101.422 47.3869 100.536 41.3611L104.222 38.3454C104.438 43.1925 108.437 47.0558 113.337 47.0558L135.65 47.0558C140.557 47.0558 144.56 43.1815 144.766 38.3246L148.819 41.3639C147.712 47.4377 142.42 51.862 136.234 51.862Z" fill="url(#paint12_linear_469_297)" stroke="#94AE3E" stroke-width="0.4"/>
<path d="M113.125 5.4063L136.663 5.40631C142.765 5.40631 147.937 9.8814 148.823 15.9072L145.137 18.923C144.921 14.0758 140.922 10.2125 136.022 10.2125L113.709 10.2125C108.802 10.2125 104.799 14.0868 104.593 18.9437L100.54 15.9044C101.646 9.83059 106.939 5.4063 113.125 5.4063Z" fill="url(#paint13_linear_469_297)" stroke="#94AE3E" stroke-width="0.4"/>
<path fill-rule="evenodd" clip-rule="evenodd" d="M135.65 45.3684C139.757 45.3684 143.087 42.0386 143.087 37.931L143.087 19.3374C143.087 15.2298 139.757 11.8999 135.65 11.8999L113.337 11.8999C109.23 11.8999 105.9 15.2298 105.9 19.3374L105.9 37.931C105.9 42.0385 109.23 45.3684 113.337 45.3684L135.65 45.3684ZM135.65 43.8809C138.936 43.8809 141.6 41.217 141.6 37.931L141.6 19.3374C141.6 16.0513 138.936 13.3874 135.65 13.3874L113.337 13.3874C110.051 13.3874 107.387 16.0513 107.387 19.3374L107.387 37.931C107.387 41.217 110.051 43.8809 113.337 43.8809L135.65 43.8809Z" fill="#231F20"/>
<path d="M149.037 17.478L149.037 39.7903L145.318 36.0716L145.318 20.8248L149.037 17.478Z" fill="#494A4C"/>
<path fill-rule="evenodd" clip-rule="evenodd" d="M148.293 37.5593L146.062 35.3281L146.062 21.197L148.293 19.3376L148.293 37.5593ZM147.921 33.0969L146.434 33.8406L146.434 31.6094L147.921 30.8656L147.921 33.0969ZM147.921 29.0063L147.921 26.775L146.434 27.5188L146.434 29.75L147.921 29.0063ZM147.921 22.6844L147.921 24.9157L146.434 25.6594L146.434 23.4282L147.921 22.6844Z" fill="url(#paint14_linear_469_297)"/>
<path d="M149.037 17.478L149.037 39.7903L145.318 36.0716L145.318 20.8248L149.037 17.478Z" fill="#494A4C"/>
<path fill-rule="evenodd" clip-rule="evenodd" d="M148.293 37.5593L146.062 35.3281L146.062 21.197L148.293 19.3376L148.293 37.5593ZM147.921 33.0969L146.434 33.8406L146.434 31.6094L147.921 30.8656L147.921 33.0969ZM147.921 29.0063L147.921 26.775L146.434 27.5188L146.434 29.75L147.921 29.0063ZM147.921 22.6844L147.921 24.9157L146.434 25.6594L146.434 23.4282L147.921 22.6844Z" fill="url(#paint15_linear_469_297)"/>
<path d="M99.9499 39.7903L99.9499 17.478L103.669 21.1967L103.669 36.4435L99.9499 39.7903Z" fill="#494A4C"/>
<path fill-rule="evenodd" clip-rule="evenodd" d="M100.694 19.709L102.925 21.9402L102.925 36.0714L100.694 37.9307L100.694 19.709ZM101.066 24.1714L102.553 23.4277L102.553 25.6589L101.066 26.4027L101.066 24.1714ZM101.066 28.262L101.066 30.4933L102.553 29.7495L102.553 27.5183L101.066 28.262ZM101.066 34.5839L101.066 32.3526L102.553 31.6089L102.553 33.8401L101.066 34.5839Z" fill="url(#paint16_linear_469_297)"/>
<defs>
<linearGradient id="paint0_linear_469_297" x1="77.8268" y1="27.3077" x2="95.4779" y2="28.2932" gradientUnits="userSpaceOnUse">
<stop stop-color="#5E5E5E"/>
<stop offset="1" stop-color="#C4C4C4"/>
</linearGradient>
<linearGradient id="paint1_linear_469_297" x1="3.82679" y1="27.3077" x2="21.4779" y2="28.2932" gradientUnits="userSpaceOnUse">
<stop stop-color="#5E5E5E"/>
<stop offset="1" stop-color="#C4C4C4"/>
</linearGradient>
<linearGradient id="paint2_linear_469_297" x1="8.41073" y1="27.9336" x2="15.5638" y2="29.8502" gradientUnits="userSpaceOnUse">
<stop stop-color="#767676"/>
<stop offset="0.45" stop-color="#404040"/>
<stop offset="1" stop-color="#595959"/>
</linearGradient>
<radialGradient id="paint3_radial_469_297" cx="0" cy="0" r="1" gradientUnits="userSpaceOnUse" gradientTransform="translate(11.9872 28.8919) rotate(15) scale(5.4306 5.43048)">
<stop/>
<stop offset="0.664391" stop-color="#040404"/>
<stop offset="1" stop-color="#262626" stop-opacity="0"/>
</radialGradient>
<linearGradient id="paint4_linear_469_297" x1="24.95" y1="12.2719" x2="73.6652" y2="12.2719" gradientUnits="userSpaceOnUse">
<stop offset="0.105" stop-color="#48494A"/>
<stop offset="0.24" stop-color="#383739"/>
<stop offset="0.76" stop-color="#444345"/>
<stop offset="0.89" stop-color="#494A4B"/>
</linearGradient>
<linearGradient id="paint5_linear_469_297" x1="73.6652" y1="44.9964" x2="24.9499" y2="44.9964" gradientUnits="userSpaceOnUse">
<stop offset="0.105" stop-color="#48494A"/>
<stop offset="0.24" stop-color="#383739"/>
<stop offset="0.76" stop-color="#444345"/>
<stop offset="0.89" stop-color="#494A4B"/>
</linearGradient>
<linearGradient id="paint6_linear_469_297" x1="25.6937" y1="28.6339" x2="27.9249" y2="28.6339" gradientUnits="userSpaceOnUse">
<stop offset="0.4799" stop-color="#8CA53B"/>
<stop offset="0.48" stop-color="#BDCD8D"/>
</linearGradient>
<linearGradient id="paint7_linear_469_297" x1="25.6937" y1="28.6339" x2="27.9249" y2="28.6339" gradientUnits="userSpaceOnUse">
<stop offset="0.4799" stop-color="#8CA53B"/>
<stop offset="0.48" stop-color="#BDCD8D"/>
</linearGradient>
<linearGradient id="paint8_linear_469_297" x1="73.2933" y1="28.6344" x2="71.0621" y2="28.6344" gradientUnits="userSpaceOnUse">
<stop offset="0.4799" stop-color="#8CA53B"/>
<stop offset="0.48" stop-color="#BDCD8D"/>
</linearGradient>
<linearGradient id="paint9_linear_469_297" x1="170.16" y1="29.9606" x2="152.509" y2="28.9751" gradientUnits="userSpaceOnUse">
<stop stop-color="#5E5E5E"/>
<stop offset="1" stop-color="#C4C4C4"/>
</linearGradient>
<linearGradient id="paint10_linear_469_297" x1="165.576" y1="29.3347" x2="158.423" y2="27.4181" gradientUnits="userSpaceOnUse">
<stop stop-color="#767676"/>
<stop offset="0.45" stop-color="#404040"/>
<stop offset="1" stop-color="#595959"/>
</linearGradient>
<radialGradient id="paint11_radial_469_297" cx="0" cy="0" r="1" gradientUnits="userSpaceOnUse" gradientTransform="translate(162 28.3764) rotate(-165) scale(5.4306 5.43048)">
<stop/>
<stop offset="0.664391" stop-color="#040404"/>
<stop offset="1" stop-color="#262626" stop-opacity="0"/>
</radialGradient>
<linearGradient id="paint12_linear_469_297" x1="149.037" y1="44.9964" x2="100.322" y2="44.9964" gradientUnits="userSpaceOnUse">
<stop offset="0.105" stop-color="#48494A"/>
<stop offset="0.24" stop-color="#383739"/>
<stop offset="0.76" stop-color="#444345"/>
<stop offset="0.89" stop-color="#494A4B"/>
</linearGradient>
<linearGradient id="paint13_linear_469_297" x1="100.322" y1="12.2719" x2="149.037" y2="12.2719" gradientUnits="userSpaceOnUse">
<stop offset="0.105" stop-color="#48494A"/>
<stop offset="0.24" stop-color="#383739"/>
<stop offset="0.76" stop-color="#444345"/>
<stop offset="0.89" stop-color="#494A4B"/>
</linearGradient>
<linearGradient id="paint14_linear_469_297" x1="148.293" y1="28.6344" x2="146.062" y2="28.6344" gradientUnits="userSpaceOnUse">
<stop offset="0.4799" stop-color="#8CA53B"/>
<stop offset="0.48" stop-color="#BDCD8D"/>
</linearGradient>
<linearGradient id="paint15_linear_469_297" x1="148.293" y1="28.6344" x2="146.062" y2="28.6344" gradientUnits="userSpaceOnUse">
<stop offset="0.4799" stop-color="#8CA53B"/>
<stop offset="0.48" stop-color="#BDCD8D"/>
</linearGradient>
<linearGradient id="paint16_linear_469_297" x1="100.694" y1="28.6339" x2="102.925" y2="28.6339" gradientUnits="userSpaceOnUse">
<stop offset="0.4799" stop-color="#8CA53B"/>
<stop offset="0.48" stop-color="#BDCD8D"/>
</linearGradient>
</defs>
</svg>
