<svg width="242" height="58" viewBox="0 0 242 58" fill="none" xmlns="http://www.w3.org/2000/svg">
<mask id="path-1-outside-1_1037_4" maskUnits="userSpaceOnUse" x="73.4857" y="16" width="22" height="26" fill="black">
<rect fill="white" x="73.4857" y="16" width="22" height="26"/>
<path d="M95.4857 40L76 40L76 18L95.4857 18L95.4857 40Z"/>
</mask>
<path d="M95.4857 40L76 40L76 18L95.4857 18L95.4857 40Z" fill="#262626"/>
<path d="M76 40L74 40L74 42L76 42L76 40ZM76 18L76 16L74 16L74 18L76 18ZM95.4857 38L76 38L76 42L95.4857 42L95.4857 38ZM78 40L78 18L74 18L74 40L78 40ZM76 20L95.4857 20L95.4857 16L76 16L76 20Z" fill="#191819" mask="url(#path-1-outside-1_1037_4)"/>
<mask id="path-3-inside-2_1037_4" fill="white">
<path d="M95.4857 40L76 40L76 18L95.4857 18L95.4857 40Z"/>
</mask>
<path d="M76 40L75 40L75 41L76 41L76 40ZM76 18L76 17L75 17L75 18L76 18ZM95.4857 39L76 39L76 41L95.4857 41L95.4857 39ZM77 40L77 18L75 18L75 40L77 40ZM76 19L95.4857 19L95.4857 17L76 17L76 19Z" fill="url(#paint0_linear_1037_4)" fill-opacity="0.36" mask="url(#path-3-inside-2_1037_4)"/>
<mask id="path-5-outside-3_1037_4" maskUnits="userSpaceOnUse" x="144.486" y="16" width="22" height="26" fill="black">
<rect fill="white" x="144.486" y="16" width="22" height="26"/>
<path d="M166.486 40L147 40L147 18L166.486 18L166.486 40Z"/>
</mask>
<path d="M166.486 40L147 40L147 18L166.486 18L166.486 40Z" fill="#262626"/>
<path d="M147 40L145 40L145 42L147 42L147 40ZM147 18L147 16L145 16L145 18L147 18ZM166.486 38L147 38L147 42L166.486 42L166.486 38ZM149 40L149 18L145 18L145 40L149 40ZM147 20L166.486 20L166.486 16L147 16L147 20Z" fill="#191819" mask="url(#path-5-outside-3_1037_4)"/>
<mask id="path-7-inside-4_1037_4" fill="white">
<path d="M166.486 40L147 40L147 18L166.486 18L166.486 40Z"/>
</mask>
<path d="M147 40L146 40L146 41L147 41L147 40ZM147 18L147 17L146 17L146 18L147 18ZM166.486 39L147 39L147 41L166.486 41L166.486 39ZM148 40L148 18L146 18L146 40L148 40ZM147 19L166.486 19L166.486 17L147 17L147 19Z" fill="url(#paint1_linear_1037_4)" fill-opacity="0.36" mask="url(#path-7-inside-4_1037_4)"/>
<mask id="path-9-outside-5_1037_4" maskUnits="userSpaceOnUse" x="-0.514282" y="16" width="22" height="26" fill="black">
<rect fill="white" x="-0.514282" y="16" width="22" height="26"/>
<path d="M21.4857 40L13 40C6.92487 40 2 35.0751 2 29C2 22.9249 6.92487 18 13 18L21.4857 18L21.4857 40Z"/>
</mask>
<path d="M21.4857 40L13 40C6.92487 40 2 35.0751 2 29C2 22.9249 6.92487 18 13 18L21.4857 18L21.4857 40Z" fill="#262626"/>
<path d="M21.4857 42L13 42C5.8203 42 2.24133e-06 36.1797 2.869e-06 29L4 29C4 33.9706 8.02944 38 13 38L21.4857 38L21.4857 42ZM2.869e-06 29C3.49667e-06 21.8203 5.8203 16 13 16L21.4857 16L21.4857 20L13 20C8.02944 20 4 24.0294 4 29L2.869e-06 29ZM21.4857 18L21.4857 40L21.4857 18ZM13 42C5.8203 42 2.24133e-06 36.1797 2.869e-06 29C3.49667e-06 21.8203 5.8203 16 13 16L13 20C8.02944 20 4 24.0294 4 29C4 33.9706 8.02944 38 13 38L13 42Z" fill="#191819" mask="url(#path-9-outside-5_1037_4)"/>
<mask id="path-11-inside-6_1037_4" fill="white">
<path d="M21.4857 40L13 40C6.92487 40 2 35.0751 2 29C2 22.9249 6.92487 18 13 18L21.4857 18L21.4857 40Z"/>
</mask>
<path d="M21.4857 41L13 41C6.37259 41 1 35.6274 1 29L3 29C3 34.5228 7.47716 39 13 39L21.4857 39L21.4857 41ZM1 29C1 22.3726 6.37259 17 13 17L21.4857 17L21.4857 19L13 19C7.47716 19 3 23.4771 3 29L1 29ZM21.4857 18L21.4857 40L21.4857 18ZM13 41C6.37259 41 1 35.6274 1 29C1 22.3726 6.37259 17 13 17L13 19C7.47716 19 3 23.4771 3 29C3 34.5228 7.47716 39 13 39L13 41Z" fill="url(#paint2_linear_1037_4)" fill-opacity="0.36" mask="url(#path-11-inside-6_1037_4)"/>
<mask id="path-13-outside-7_1037_4" maskUnits="userSpaceOnUse" x="3.51937" y="19.1424" width="17.6641" height="19.0783" fill="black">
<rect fill="white" x="3.51937" y="19.1424" width="17.6641" height="19.0783"/>
<path fill-rule="evenodd" clip-rule="evenodd" d="M14.2669 25.973C15.4021 26.8603 15.9602 28.3707 15.5638 29.8502C15.0366 31.8177 13.0201 32.9885 11.0522 32.4746L14.2669 25.973ZM9.7072 31.8105C8.5723 30.9231 8.01435 29.4129 8.41073 27.9336C8.93787 25.9662 10.9541 24.7955 12.9218 25.3091L9.7072 31.8105Z"/>
</mask>
<path fill-rule="evenodd" clip-rule="evenodd" d="M14.2669 25.973C15.4021 26.8603 15.9602 28.3707 15.5638 29.8502C15.0366 31.8177 13.0201 32.9885 11.0522 32.4746L14.2669 25.973ZM9.7072 31.8105C8.5723 30.9231 8.01435 29.4129 8.41073 27.9336C8.93787 25.9662 10.9541 24.7955 12.9218 25.3091L9.7072 31.8105Z" fill="url(#paint3_linear_1037_4)"/>
<path d="M14.2669 25.973L16.1145 23.6094L13.2111 21.3398L11.5777 24.6433L14.2669 25.973ZM11.0522 32.4746L8.36297 31.1449L6.73044 34.4466L10.2942 35.3772L11.0522 32.4746ZM9.7072 31.8105L7.85925 34.1738L10.7628 36.4442L12.3964 33.1402L9.7072 31.8105ZM12.9218 25.3091L15.611 26.6388L17.2438 23.3366L13.6794 22.4063L12.9218 25.3091ZM12.4193 28.3365C12.6398 28.5089 12.74 28.7975 12.666 29.0738L18.4615 30.6267C19.1804 27.9439 18.1643 25.2118 16.1145 23.6094L12.4193 28.3365ZM12.666 29.0738C12.566 29.447 12.1832 29.6693 11.8102 29.5719L10.2942 35.3772C13.857 36.3076 17.5072 34.1884 18.4615 30.6267L12.666 29.0738ZM11.5777 24.6433L8.36297 31.1449L13.7414 33.8042L16.9561 27.3027L11.5777 24.6433ZM11.5551 29.4472C11.3346 29.2748 11.2345 28.9862 11.3085 28.71L5.51295 27.1571C4.79419 29.8395 5.80998 32.5714 7.85925 34.1738L11.5551 29.4472ZM11.3085 28.71C11.4085 28.3368 11.7912 28.1145 12.1642 28.2119L13.6794 22.4063C10.1169 21.4765 6.46723 23.5957 5.51295 27.1571L11.3085 28.71ZM12.3964 33.1402L15.611 26.6388L10.2326 23.9794L7.01797 30.4808L12.3964 33.1402Z" fill="url(#paint4_radial_1037_4)" mask="url(#path-13-outside-7_1037_4)"/>
<path d="M19 19.3373C19 8.65762 27.6576 0 38.3373 0H60.6497C71.3294 0 79.987 8.65762 79.987 19.3373V37.9309C79.987 48.6107 71.3294 57.2683 60.6497 57.2683H38.3373C27.6576 57.2683 19 48.6107 19 37.9309V19.3373Z" fill="black"/>
<path fill-rule="evenodd" clip-rule="evenodd" d="M60.6497 2.23123H38.3373C28.8899 2.23123 21.2312 9.8899 21.2312 19.3373V37.9309C21.2312 47.3784 28.8899 55.0371 38.3373 55.0371H60.6497C70.0971 55.0371 77.7558 47.3784 77.7558 37.9309V19.3373C77.7558 9.8899 70.0971 2.23123 60.6497 2.23123ZM38.3373 0C27.6576 0 19 8.65762 19 19.3373V37.9309C19 48.6107 27.6576 57.2683 38.3373 57.2683H60.6497C71.3294 57.2683 79.987 48.6107 79.987 37.9309V19.3373C79.987 8.65762 71.3294 0 60.6497 0H38.3373Z" fill="#646464"/>
<path fill-rule="evenodd" clip-rule="evenodd" d="M60.6497 0.743744H38.3373C28.0684 0.743744 19.7437 9.06838 19.7437 19.3373V37.9309C19.7437 48.1999 28.0684 56.5245 38.3373 56.5245H60.6497C70.9186 56.5245 79.2433 48.1999 79.2433 37.9309V19.3373C79.2433 9.06838 70.9186 0.743744 60.6497 0.743744ZM38.3373 0C27.6576 0 19 8.65762 19 19.3373V37.9309C19 48.6107 27.6576 57.2683 38.3373 57.2683H60.6497C71.3294 57.2683 79.987 48.6107 79.987 37.9309V19.3373C79.987 8.65762 71.3294 0 60.6497 0H38.3373Z" fill="#302F31"/>
<path d="M29.2208 18.9437L25.1683 15.9044C26.2746 9.83059 31.5674 5.4063 37.7527 5.4063H61.2913C67.3932 5.4063 72.565 9.88139 73.4513 15.9072L69.7654 18.923C69.5487 14.0758 65.5503 10.2125 60.6497 10.2125H38.3373C33.4297 10.2125 29.427 14.0868 29.2208 18.9437Z" fill="url(#paint5_linear_1037_4)" stroke="#94AE3E" stroke-width="0.4"/>
<path d="M69.3944 38.3246L73.4468 41.3639C72.3406 47.4377 67.0478 51.862 60.8624 51.862L37.3238 51.862C31.2219 51.862 26.0501 47.3869 25.1638 41.3611L28.8498 38.3454C29.0665 43.1925 33.0648 47.0558 37.9655 47.0558L60.2778 47.0558C65.1854 47.0558 69.1882 43.1815 69.3944 38.3246Z" fill="url(#paint6_linear_1037_4)" stroke="#94AE3E" stroke-width="0.4"/>
<path fill-rule="evenodd" clip-rule="evenodd" d="M38.3373 11.8999C34.2298 11.8999 30.8999 15.2298 30.8999 19.3373V37.9309C30.8999 42.0385 34.2298 45.3684 38.3373 45.3684H60.6497C64.7572 45.3684 68.0871 42.0385 68.0871 37.9309V19.3373C68.0871 15.2298 64.7572 11.8999 60.6497 11.8999H38.3373ZM38.3373 13.3874C35.0513 13.3874 32.3874 16.0513 32.3874 19.3373V37.9309C32.3874 41.217 35.0513 43.8809 38.3373 43.8809H60.6497C63.9357 43.8809 66.5996 41.217 66.5996 37.9309V19.3373C66.5996 16.0513 63.9357 13.3874 60.6497 13.3874H38.3373Z" fill="#231F20"/>
<path d="M24.95 39.7903V17.478L28.6687 21.1967V36.4435L24.95 39.7903Z" fill="#494A4C"/>
<path fill-rule="evenodd" clip-rule="evenodd" d="M25.6937 19.709L27.9249 21.9402V36.0714L25.6937 37.9307V19.709ZM26.0656 24.1714L27.5531 23.4277V25.6589L26.0656 26.4027V24.1714ZM26.0656 28.262V30.4933L27.5531 29.7495V27.5183L26.0656 28.262ZM26.0656 34.5839V32.3526L27.5531 31.6089V33.8401L26.0656 34.5839Z" fill="url(#paint7_linear_1037_4)"/>
<path d="M24.95 39.7903V17.478L28.6687 21.1967V36.4435L24.95 39.7903Z" fill="#494A4C"/>
<path fill-rule="evenodd" clip-rule="evenodd" d="M25.6937 19.709L27.9249 21.9402V36.0714L25.6937 37.9307V19.709ZM26.0656 24.1714L27.5531 23.4277V25.6589L26.0656 26.4027V24.1714ZM26.0656 28.262V30.4933L27.5531 29.7495V27.5183L26.0656 28.262ZM26.0656 34.5839V32.3526L27.5531 31.6089V33.8401L26.0656 34.5839Z" fill="url(#paint8_linear_1037_4)"/>
<path d="M74.0371 17.478L74.0371 39.7903L70.3183 36.0716L70.3183 20.8248L74.0371 17.478Z" fill="#494A4C"/>
<path fill-rule="evenodd" clip-rule="evenodd" d="M73.2933 37.5593L71.0621 35.3281L71.0621 21.197L73.2933 19.3376L73.2933 37.5593ZM72.9214 33.0969L71.434 33.8406L71.434 31.6094L72.9215 30.8656L72.9214 33.0969ZM72.9215 29.0063L72.9215 26.775L71.434 27.5188L71.434 29.75L72.9215 29.0063ZM72.9215 22.6844L72.9215 24.9157L71.434 25.6594L71.434 23.4282L72.9215 22.6844Z" fill="url(#paint9_linear_1037_4)"/>
<mask id="path-25-outside-8_1037_4" maskUnits="userSpaceOnUse" x="220.501" y="15.2683" width="22" height="26" fill="black">
<rect fill="white" x="220.501" y="15.2683" width="22" height="26"/>
<path d="M220.501 17.2683L228.987 17.2683C235.062 17.2683 239.987 22.1932 239.987 28.2683C239.987 34.3434 235.062 39.2683 228.987 39.2683L220.501 39.2683L220.501 17.2683Z"/>
</mask>
<path d="M220.501 17.2683L228.987 17.2683C235.062 17.2683 239.987 22.1932 239.987 28.2683C239.987 34.3434 235.062 39.2683 228.987 39.2683L220.501 39.2683L220.501 17.2683Z" fill="#262626"/>
<path d="M220.501 15.2683L228.987 15.2683C236.167 15.2683 241.987 21.0886 241.987 28.2683L237.987 28.2683C237.987 23.2978 233.958 19.2683 228.987 19.2683L220.501 19.2683L220.501 15.2683ZM241.987 28.2683C241.987 35.448 236.167 41.2683 228.987 41.2683L220.501 41.2683L220.501 37.2683L228.987 37.2683C233.958 37.2683 237.987 33.2389 237.987 28.2683L241.987 28.2683ZM220.501 39.2683L220.501 17.2683L220.501 39.2683ZM228.987 15.2683C236.167 15.2683 241.987 21.0886 241.987 28.2683C241.987 35.448 236.167 41.2683 228.987 41.2683L228.987 37.2683C233.958 37.2683 237.987 33.2389 237.987 28.2683C237.987 23.2978 233.958 19.2683 228.987 19.2683L228.987 15.2683Z" fill="#191819" mask="url(#path-25-outside-8_1037_4)"/>
<mask id="path-27-inside-9_1037_4" fill="white">
<path d="M220.501 17.2683L228.987 17.2683C235.062 17.2683 239.987 22.1932 239.987 28.2683C239.987 34.3434 235.062 39.2683 228.987 39.2683L220.501 39.2683L220.501 17.2683Z"/>
</mask>
<path d="M220.501 16.2683L228.987 16.2683C235.614 16.2683 240.987 21.6409 240.987 28.2683L238.987 28.2683C238.987 22.7455 234.51 18.2683 228.987 18.2683L220.501 18.2683L220.501 16.2683ZM240.987 28.2683C240.987 34.8957 235.614 40.2683 228.987 40.2683L220.501 40.2683L220.501 38.2683L228.987 38.2683C234.51 38.2683 238.987 33.7912 238.987 28.2683L240.987 28.2683ZM220.501 39.2683L220.501 17.2683L220.501 39.2683ZM228.987 16.2683C235.614 16.2683 240.987 21.6409 240.987 28.2683C240.987 34.8957 235.614 40.2683 228.987 40.2683L228.987 38.2683C234.51 38.2683 238.987 33.7912 238.987 28.2683C238.987 22.7455 234.51 18.2683 228.987 18.2683L228.987 16.2683Z" fill="url(#paint10_linear_1037_4)" fill-opacity="0.36" mask="url(#path-27-inside-9_1037_4)"/>
<mask id="path-29-outside-10_1037_4" maskUnits="userSpaceOnUse" x="220.804" y="19.0476" width="17.6641" height="19.0783" fill="black">
<rect fill="white" x="220.804" y="19.0476" width="17.6641" height="19.0783"/>
<path fill-rule="evenodd" clip-rule="evenodd" d="M227.72 31.2953C226.585 30.408 226.027 28.8976 226.423 27.4181C226.95 25.4506 228.967 24.2799 230.935 24.7937L227.72 31.2953ZM232.28 25.4578C233.415 26.3452 233.973 27.8554 233.576 29.3347C233.049 31.3021 231.033 32.4728 229.065 31.9592L232.28 25.4578Z"/>
</mask>
<path fill-rule="evenodd" clip-rule="evenodd" d="M227.72 31.2953C226.585 30.408 226.027 28.8976 226.423 27.4181C226.95 25.4506 228.967 24.2799 230.935 24.7937L227.72 31.2953ZM232.28 25.4578C233.415 26.3452 233.973 27.8554 233.576 29.3347C233.049 31.3021 231.033 32.4728 229.065 31.9592L232.28 25.4578Z" fill="url(#paint11_linear_1037_4)"/>
<path d="M227.72 31.2953L225.873 33.6589L228.776 35.9285L230.409 32.625L227.72 31.2953ZM230.935 24.7937L233.624 26.1234L235.257 22.8217L231.693 21.8911L230.935 24.7937ZM232.28 25.4578L234.128 23.0945L231.224 20.8241L229.591 24.1281L232.28 25.4578ZM229.065 31.9592L226.376 30.6295L224.743 33.9317L228.308 34.862L229.065 31.9592ZM229.568 28.9318C229.347 28.7594 229.247 28.4708 229.321 28.1945L223.525 26.6416C222.807 29.3244 223.823 32.0565 225.873 33.6589L229.568 28.9318ZM229.321 28.1945C229.421 27.8213 229.804 27.599 230.177 27.6964L231.693 21.8911C228.13 20.9607 224.48 23.0799 223.525 26.6416L229.321 28.1945ZM230.409 32.625L233.624 26.1234L228.246 23.4641L225.031 29.9657L230.409 32.625ZM230.432 27.8211C230.652 27.9935 230.753 28.2821 230.679 28.5583L236.474 30.1112C237.193 27.4288 236.177 24.6969 234.128 23.0945L230.432 27.8211ZM230.679 28.5583C230.578 28.9315 230.196 29.1538 229.823 29.0564L228.308 34.862C231.87 35.7918 235.52 33.6726 236.474 30.1112L230.679 28.5583ZM229.591 24.1281L226.376 30.6295L231.754 33.2889L234.969 26.7875L229.591 24.1281Z" fill="url(#paint12_radial_1037_4)" mask="url(#path-29-outside-10_1037_4)"/>
<path d="M222.987 37.931C222.987 48.6107 214.329 57.2683 203.65 57.2683L181.337 57.2683C170.658 57.2683 162 48.6107 162 37.931L162 19.3374C162 8.65764 170.658 1.83134e-05 181.337 1.92471e-05L203.65 2.11977e-05C214.329 2.21313e-05 222.987 8.65765 222.987 19.3374L222.987 37.931Z" fill="black"/>
<path fill-rule="evenodd" clip-rule="evenodd" d="M181.337 55.0371L203.65 55.0371C213.097 55.0371 220.756 47.3784 220.756 37.931L220.756 19.3374C220.756 9.88992 213.097 2.23125 203.65 2.23125L181.337 2.23125C171.89 2.23125 164.231 9.88991 164.231 19.3374L164.231 37.931C164.231 47.3784 171.89 55.0371 181.337 55.0371ZM203.65 57.2683C214.329 57.2683 222.987 48.6107 222.987 37.931L222.987 19.3374C222.987 8.65765 214.329 2.21313e-05 203.65 2.11977e-05L181.337 1.92471e-05C170.658 1.83134e-05 162 8.65764 162 19.3374L162 37.931C162 48.6107 170.658 57.2683 181.337 57.2683L203.65 57.2683Z" fill="#646464"/>
<path fill-rule="evenodd" clip-rule="evenodd" d="M181.337 56.5246L203.65 56.5246C213.919 56.5246 222.243 48.1999 222.243 37.931L222.243 19.3374C222.243 9.0684 213.919 0.743766 203.65 0.743765L181.337 0.743763C171.068 0.743762 162.744 9.0684 162.744 19.3374L162.744 37.931C162.744 48.1999 171.068 56.5246 181.337 56.5246ZM203.65 57.2683C214.329 57.2683 222.987 48.6107 222.987 37.931L222.987 19.3374C222.987 8.65765 214.329 2.21313e-05 203.65 2.11977e-05L181.337 1.92471e-05C170.658 1.83134e-05 162 8.65764 162 19.3374L162 37.931C162 48.6107 170.658 57.2683 181.337 57.2683L203.65 57.2683Z" fill="#302F31"/>
<path d="M212.766 38.3246L216.819 41.3639C215.712 47.4377 210.42 51.862 204.234 51.862L180.696 51.862C174.594 51.862 169.422 47.3869 168.536 41.3611L172.222 38.3454C172.438 43.1925 176.437 47.0558 181.337 47.0558L203.65 47.0558C208.557 47.0558 212.56 43.1815 212.766 38.3246Z" fill="url(#paint13_linear_1037_4)" stroke="#94AE3E" stroke-width="0.4"/>
<path d="M172.593 18.9437L168.54 15.9044C169.646 9.83059 174.939 5.4063 181.125 5.4063L204.663 5.40631C210.765 5.40631 215.937 9.8814 216.823 15.9072L213.137 18.923C212.921 14.0758 208.922 10.2125 204.022 10.2125L181.709 10.2125C176.802 10.2125 172.799 14.0868 172.593 18.9437Z" fill="url(#paint14_linear_1037_4)" stroke="#94AE3E" stroke-width="0.4"/>
<path fill-rule="evenodd" clip-rule="evenodd" d="M203.65 45.3684C207.757 45.3684 211.087 42.0386 211.087 37.931L211.087 19.3374C211.087 15.2298 207.757 11.8999 203.65 11.8999L181.337 11.8999C177.23 11.8999 173.9 15.2298 173.9 19.3374L173.9 37.931C173.9 42.0385 177.23 45.3684 181.337 45.3684L203.65 45.3684ZM203.65 43.8809C206.936 43.8809 209.6 41.217 209.6 37.931L209.6 19.3374C209.6 16.0513 206.936 13.3874 203.65 13.3874L181.337 13.3874C178.051 13.3874 175.387 16.0513 175.387 19.3374L175.387 37.931C175.387 41.217 178.051 43.8809 181.337 43.8809L203.65 43.8809Z" fill="#231F20"/>
<path d="M217.037 17.478L217.037 39.7903L213.318 36.0716L213.318 20.8248L217.037 17.478Z" fill="#494A4C"/>
<path fill-rule="evenodd" clip-rule="evenodd" d="M216.293 37.5593L214.062 35.3281L214.062 21.197L216.293 19.3376L216.293 37.5593ZM215.921 33.0969L214.434 33.8406L214.434 31.6094L215.921 30.8656L215.921 33.0969ZM215.921 29.0063L215.921 26.775L214.434 27.5188L214.434 29.75L215.921 29.0063ZM215.921 22.6844L215.921 24.9157L214.434 25.6594L214.434 23.4282L215.921 22.6844Z" fill="url(#paint15_linear_1037_4)"/>
<path d="M217.037 17.478L217.037 39.7903L213.318 36.0716L213.318 20.8248L217.037 17.478Z" fill="#494A4C"/>
<path fill-rule="evenodd" clip-rule="evenodd" d="M216.293 37.5593L214.062 35.3281L214.062 21.197L216.293 19.3376L216.293 37.5593ZM215.921 33.0969L214.434 33.8406L214.434 31.6094L215.921 30.8656L215.921 33.0969ZM215.921 29.0063L215.921 26.775L214.434 27.5188L214.434 29.75L215.921 29.0063ZM215.921 22.6844L215.921 24.9157L214.434 25.6594L214.434 23.4282L215.921 22.6844Z" fill="url(#paint16_linear_1037_4)"/>
<path d="M167.95 39.7903L167.95 17.478L171.669 21.1967L171.669 36.4435L167.95 39.7903Z" fill="#494A4C"/>
<path fill-rule="evenodd" clip-rule="evenodd" d="M168.694 19.709L170.925 21.9402L170.925 36.0714L168.694 37.9307L168.694 19.709ZM169.066 24.1714L170.553 23.4277L170.553 25.6589L169.066 26.4027L169.066 24.1714ZM169.066 28.262L169.066 30.4933L170.553 29.7495L170.553 27.5183L169.066 28.262ZM169.066 34.5839L169.066 32.3526L170.553 31.6089L170.553 33.8401L169.066 34.5839Z" fill="url(#paint17_linear_1037_4)"/>
<path d="M151.987 37.931C151.987 48.6107 143.329 57.2683 132.65 57.2683L110.337 57.2683C99.6576 57.2683 91 48.6107 91 37.931L91 19.3374C91 8.65764 99.6576 1.83134e-05 110.337 1.92471e-05L132.65 2.11977e-05C143.329 2.21313e-05 151.987 8.65765 151.987 19.3374L151.987 37.931Z" fill="black"/>
<path fill-rule="evenodd" clip-rule="evenodd" d="M110.337 55.0371L132.65 55.0371C142.097 55.0371 149.756 47.3784 149.756 37.931L149.756 19.3374C149.756 9.88992 142.097 2.23125 132.65 2.23125L110.337 2.23125C100.89 2.23125 93.2312 9.88991 93.2312 19.3374L93.2312 37.931C93.2312 47.3784 100.89 55.0371 110.337 55.0371ZM132.65 57.2683C143.329 57.2683 151.987 48.6107 151.987 37.931L151.987 19.3374C151.987 8.65765 143.329 2.21313e-05 132.65 2.11977e-05L110.337 1.92471e-05C99.6576 1.83134e-05 91 8.65764 91 19.3374L91 37.931C91 48.6107 99.6576 57.2683 110.337 57.2683L132.65 57.2683Z" fill="#646464"/>
<path fill-rule="evenodd" clip-rule="evenodd" d="M110.337 56.5246L132.65 56.5246C142.919 56.5246 151.243 48.1999 151.243 37.931L151.243 19.3374C151.243 9.0684 142.919 0.743766 132.65 0.743765L110.337 0.743763C100.068 0.743762 91.7437 9.0684 91.7437 19.3374L91.7437 37.931C91.7437 48.1999 100.068 56.5246 110.337 56.5246ZM132.65 57.2683C143.329 57.2683 151.987 48.6107 151.987 37.931L151.987 19.3374C151.987 8.65765 143.329 2.21313e-05 132.65 2.11977e-05L110.337 1.92471e-05C99.6576 1.83134e-05 91 8.65764 91 19.3374L91 37.931C91 48.6107 99.6576 57.2683 110.337 57.2683L132.65 57.2683Z" fill="#302F31"/>
<path d="M141.766 38.3246L145.819 41.3639C144.712 47.4377 139.42 51.862 133.234 51.862L109.696 51.862C103.594 51.862 98.422 47.3869 97.5357 41.3611L101.222 38.3454C101.438 43.1925 105.437 47.0558 110.337 47.0558L132.65 47.0558C137.557 47.0558 141.56 43.1815 141.766 38.3246Z" fill="url(#paint18_linear_1037_4)" stroke="#94AE3E" stroke-width="0.4"/>
<path d="M101.593 18.9437L97.5402 15.9044C98.6464 9.83059 103.939 5.4063 110.125 5.4063L133.663 5.40631C139.765 5.40631 144.937 9.8814 145.823 15.9072L142.137 18.923C141.921 14.0758 137.922 10.2125 133.022 10.2125L110.709 10.2125C105.802 10.2125 101.799 14.0868 101.593 18.9437Z" fill="url(#paint19_linear_1037_4)" stroke="#94AE3E" stroke-width="0.4"/>
<path fill-rule="evenodd" clip-rule="evenodd" d="M132.65 45.3684C136.757 45.3684 140.087 42.0386 140.087 37.931L140.087 19.3374C140.087 15.2298 136.757 11.8999 132.65 11.8999L110.337 11.8999C106.23 11.8999 102.9 15.2298 102.9 19.3374L102.9 37.931C102.9 42.0385 106.23 45.3684 110.337 45.3684L132.65 45.3684ZM132.65 43.8809C135.936 43.8809 138.6 41.217 138.6 37.931L138.6 19.3374C138.6 16.0513 135.936 13.3874 132.65 13.3874L110.337 13.3874C107.051 13.3874 104.387 16.0513 104.387 19.3374L104.387 37.931C104.387 41.217 107.051 43.8809 110.337 43.8809L132.65 43.8809Z" fill="#231F20"/>
<path d="M146.037 17.478L146.037 39.7903L142.318 36.0716L142.318 20.8248L146.037 17.478Z" fill="#494A4C"/>
<path fill-rule="evenodd" clip-rule="evenodd" d="M145.293 37.5593L143.062 35.3281L143.062 21.197L145.293 19.3376L145.293 37.5593ZM144.921 33.0969L143.434 33.8406L143.434 31.6094L144.921 30.8656L144.921 33.0969ZM144.921 29.0063L144.921 26.775L143.434 27.5188L143.434 29.75L144.921 29.0063ZM144.921 22.6844L144.921 24.9157L143.434 25.6594L143.434 23.4282L144.921 22.6844Z" fill="url(#paint20_linear_1037_4)"/>
<path d="M146.037 17.478L146.037 39.7903L142.318 36.0716L142.318 20.8248L146.037 17.478Z" fill="#494A4C"/>
<path fill-rule="evenodd" clip-rule="evenodd" d="M145.293 37.5593L143.062 35.3281L143.062 21.197L145.293 19.3376L145.293 37.5593ZM144.921 33.0969L143.434 33.8406L143.434 31.6094L144.921 30.8656L144.921 33.0969ZM144.921 29.0063L144.921 26.775L143.434 27.5188L143.434 29.75L144.921 29.0063ZM144.921 22.6844L144.921 24.9157L143.434 25.6594L143.434 23.4282L144.921 22.6844Z" fill="url(#paint21_linear_1037_4)"/>
<path d="M96.95 39.7903L96.95 17.478L100.669 21.1967L100.669 36.4435L96.95 39.7903Z" fill="#494A4C"/>
<path fill-rule="evenodd" clip-rule="evenodd" d="M97.6937 19.709L99.9249 21.9402L99.9249 36.0714L97.6937 37.9307L97.6937 19.709ZM98.0656 24.1714L99.5531 23.4277L99.5531 25.6589L98.0656 26.4027L98.0656 24.1714ZM98.0656 28.262L98.0656 30.4933L99.5531 29.7495L99.5531 27.5183L98.0656 28.262ZM98.0656 34.5839L98.0656 32.3526L99.5531 31.6089L99.5531 33.8401L98.0656 34.5839Z" fill="url(#paint22_linear_1037_4)"/>
<defs>
<linearGradient id="paint0_linear_1037_4" x1="77.8268" y1="27.3077" x2="95.4779" y2="28.2932" gradientUnits="userSpaceOnUse">
<stop stop-color="#5E5E5E"/>
<stop offset="1" stop-color="#C4C4C4"/>
</linearGradient>
<linearGradient id="paint1_linear_1037_4" x1="148.827" y1="27.3077" x2="166.478" y2="28.2932" gradientUnits="userSpaceOnUse">
<stop stop-color="#5E5E5E"/>
<stop offset="1" stop-color="#C4C4C4"/>
</linearGradient>
<linearGradient id="paint2_linear_1037_4" x1="3.82679" y1="27.3077" x2="21.4779" y2="28.2932" gradientUnits="userSpaceOnUse">
<stop stop-color="#5E5E5E"/>
<stop offset="1" stop-color="#C4C4C4"/>
</linearGradient>
<linearGradient id="paint3_linear_1037_4" x1="8.41073" y1="27.9336" x2="15.5638" y2="29.8502" gradientUnits="userSpaceOnUse">
<stop stop-color="#767676"/>
<stop offset="0.45" stop-color="#404040"/>
<stop offset="1" stop-color="#595959"/>
</linearGradient>
<radialGradient id="paint4_radial_1037_4" cx="0" cy="0" r="1" gradientUnits="userSpaceOnUse" gradientTransform="translate(11.9872 28.8919) rotate(15) scale(5.4306 5.43048)">
<stop/>
<stop offset="0.664391" stop-color="#040404"/>
<stop offset="1" stop-color="#262626" stop-opacity="0"/>
</radialGradient>
<linearGradient id="paint5_linear_1037_4" x1="24.95" y1="12.2719" x2="73.6652" y2="12.2719" gradientUnits="userSpaceOnUse">
<stop offset="0.105" stop-color="#48494A"/>
<stop offset="0.24" stop-color="#383739"/>
<stop offset="0.76" stop-color="#444345"/>
<stop offset="0.89" stop-color="#494A4B"/>
</linearGradient>
<linearGradient id="paint6_linear_1037_4" x1="73.6652" y1="44.9964" x2="24.9499" y2="44.9964" gradientUnits="userSpaceOnUse">
<stop offset="0.105" stop-color="#48494A"/>
<stop offset="0.24" stop-color="#383739"/>
<stop offset="0.76" stop-color="#444345"/>
<stop offset="0.89" stop-color="#494A4B"/>
</linearGradient>
<linearGradient id="paint7_linear_1037_4" x1="25.6937" y1="28.6339" x2="27.9249" y2="28.6339" gradientUnits="userSpaceOnUse">
<stop offset="0.4799" stop-color="#8CA53B"/>
<stop offset="0.48" stop-color="#BDCD8D"/>
</linearGradient>
<linearGradient id="paint8_linear_1037_4" x1="25.6937" y1="28.6339" x2="27.9249" y2="28.6339" gradientUnits="userSpaceOnUse">
<stop offset="0.4799" stop-color="#8CA53B"/>
<stop offset="0.48" stop-color="#BDCD8D"/>
</linearGradient>
<linearGradient id="paint9_linear_1037_4" x1="73.2933" y1="28.6344" x2="71.0621" y2="28.6344" gradientUnits="userSpaceOnUse">
<stop offset="0.4799" stop-color="#8CA53B"/>
<stop offset="0.48" stop-color="#BDCD8D"/>
</linearGradient>
<linearGradient id="paint10_linear_1037_4" x1="238.16" y1="29.9606" x2="220.509" y2="28.9751" gradientUnits="userSpaceOnUse">
<stop stop-color="#5E5E5E"/>
<stop offset="1" stop-color="#C4C4C4"/>
</linearGradient>
<linearGradient id="paint11_linear_1037_4" x1="233.576" y1="29.3347" x2="226.423" y2="27.4181" gradientUnits="userSpaceOnUse">
<stop stop-color="#767676"/>
<stop offset="0.45" stop-color="#404040"/>
<stop offset="1" stop-color="#595959"/>
</linearGradient>
<radialGradient id="paint12_radial_1037_4" cx="0" cy="0" r="1" gradientUnits="userSpaceOnUse" gradientTransform="translate(230 28.3764) rotate(-165) scale(5.4306 5.43048)">
<stop/>
<stop offset="0.664391" stop-color="#040404"/>
<stop offset="1" stop-color="#262626" stop-opacity="0"/>
</radialGradient>
<linearGradient id="paint13_linear_1037_4" x1="217.037" y1="44.9964" x2="168.322" y2="44.9964" gradientUnits="userSpaceOnUse">
<stop offset="0.105" stop-color="#48494A"/>
<stop offset="0.24" stop-color="#383739"/>
<stop offset="0.76" stop-color="#444345"/>
<stop offset="0.89" stop-color="#494A4B"/>
</linearGradient>
<linearGradient id="paint14_linear_1037_4" x1="168.322" y1="12.2719" x2="217.037" y2="12.2719" gradientUnits="userSpaceOnUse">
<stop offset="0.105" stop-color="#48494A"/>
<stop offset="0.24" stop-color="#383739"/>
<stop offset="0.76" stop-color="#444345"/>
<stop offset="0.89" stop-color="#494A4B"/>
</linearGradient>
<linearGradient id="paint15_linear_1037_4" x1="216.293" y1="28.6344" x2="214.062" y2="28.6344" gradientUnits="userSpaceOnUse">
<stop offset="0.4799" stop-color="#8CA53B"/>
<stop offset="0.48" stop-color="#BDCD8D"/>
</linearGradient>
<linearGradient id="paint16_linear_1037_4" x1="216.293" y1="28.6344" x2="214.062" y2="28.6344" gradientUnits="userSpaceOnUse">
<stop offset="0.4799" stop-color="#8CA53B"/>
<stop offset="0.48" stop-color="#BDCD8D"/>
</linearGradient>
<linearGradient id="paint17_linear_1037_4" x1="168.694" y1="28.6339" x2="170.925" y2="28.6339" gradientUnits="userSpaceOnUse">
<stop offset="0.4799" stop-color="#8CA53B"/>
<stop offset="0.48" stop-color="#BDCD8D"/>
</linearGradient>
<linearGradient id="paint18_linear_1037_4" x1="146.037" y1="44.9964" x2="97.3218" y2="44.9964" gradientUnits="userSpaceOnUse">
<stop offset="0.105" stop-color="#48494A"/>
<stop offset="0.24" stop-color="#383739"/>
<stop offset="0.76" stop-color="#444345"/>
<stop offset="0.89" stop-color="#494A4B"/>
</linearGradient>
<linearGradient id="paint19_linear_1037_4" x1="97.3218" y1="12.2719" x2="146.037" y2="12.2719" gradientUnits="userSpaceOnUse">
<stop offset="0.105" stop-color="#48494A"/>
<stop offset="0.24" stop-color="#383739"/>
<stop offset="0.76" stop-color="#444345"/>
<stop offset="0.89" stop-color="#494A4B"/>
</linearGradient>
<linearGradient id="paint20_linear_1037_4" x1="145.293" y1="28.6344" x2="143.062" y2="28.6344" gradientUnits="userSpaceOnUse">
<stop offset="0.4799" stop-color="#8CA53B"/>
<stop offset="0.48" stop-color="#BDCD8D"/>
</linearGradient>
<linearGradient id="paint21_linear_1037_4" x1="145.293" y1="28.6344" x2="143.062" y2="28.6344" gradientUnits="userSpaceOnUse">
<stop offset="0.4799" stop-color="#8CA53B"/>
<stop offset="0.48" stop-color="#BDCD8D"/>
</linearGradient>
<linearGradient id="paint22_linear_1037_4" x1="97.6937" y1="28.6339" x2="99.9249" y2="28.6339" gradientUnits="userSpaceOnUse">
<stop offset="0.4799" stop-color="#8CA53B"/>
<stop offset="0.48" stop-color="#BDCD8D"/>
</linearGradient>
</defs>
</svg>
