<svg width="33" height="42" viewBox="0 0 33 42" fill="none" xmlns="http://www.w3.org/2000/svg">
<mask id="path-1-outside-1_364_39" maskUnits="userSpaceOnUse" x="0" y="0.21875" width="33" height="42" fill="black">
<rect fill="white" y="0.21875" width="33" height="42"/>
<path d="M0 2.21875H12.1094C22.5424 2.21875 31 10.6764 31 21.1094V21.1094C31 31.5424 22.5424 40 12.1094 40H0V2.21875Z"/>
</mask>
<path d="M0 2.21875H12.1094C22.5424 2.21875 31 10.6764 31 21.1094V21.1094C31 31.5424 22.5424 40 12.1094 40H0V2.21875Z" fill="#262626"/>
<path d="M0 0.21875H12.1094C23.6469 0.21875 33 9.5718 33 21.1094H29C29 11.7809 21.4378 4.21875 12.1094 4.21875H0V0.21875ZM33 21.1094C33 32.6469 23.6469 42 12.1094 42H0V38H12.1094C21.4378 38 29 30.4378 29 21.1094H33ZM0 40V2.21875V40ZM12.1094 0.21875C23.6469 0.21875 33 9.5718 33 21.1094C33 32.6469 23.6469 42 12.1094 42V38C21.4378 38 29 30.4378 29 21.1094C29 11.7809 21.4378 4.21875 12.1094 4.21875V0.21875Z" fill="black" mask="url(#path-1-outside-1_364_39)"/>
<mask id="path-3-inside-2_364_39" fill="white">
<path d="M0 2.21875H12.1094C22.5424 2.21875 31 10.6764 31 21.1094V21.1094C31 31.5424 22.5424 40 12.1094 40H0V2.21875Z"/>
</mask>
<path d="M0 1.21875H12.1094C23.0947 1.21875 32 10.1241 32 21.1094H30C30 11.2287 21.9901 3.21875 12.1094 3.21875H0V1.21875ZM32 21.1094C32 32.0947 23.0947 41 12.1094 41H0V39H12.1094C21.9901 39 30 30.9901 30 21.1094H32ZM0 40V2.21875V40ZM12.1094 1.21875C23.0947 1.21875 32 10.1241 32 21.1094C32 32.0947 23.0947 41 12.1094 41V39C21.9901 39 30 30.9901 30 21.1094C30 11.2287 21.9901 3.21875 12.1094 3.21875V1.21875Z" fill="url(#paint0_linear_364_39)" fill-opacity="0.36" mask="url(#path-3-inside-2_364_39)"/>
<mask id="path-5-outside-3_364_39" maskUnits="userSpaceOnUse" x="2.86274" y="10.8152" width="22.7496" height="20.9538" fill="black">
<rect fill="white" x="2.86274" y="10.8152" width="22.7496" height="20.9538"/>
<path fill-rule="evenodd" clip-rule="evenodd" d="M20.3116 20.9868C20.3083 20.8245 20.2987 20.661 20.2826 20.4968C19.9441 17.0356 16.8639 14.5042 13.4027 14.8427C10.6234 15.1145 8.44361 17.1542 7.86789 19.7394L20.3116 20.9868ZM20.1634 22.4794C19.5879 25.0649 17.408 27.1048 14.6285 27.3766C11.1673 27.7151 8.08712 25.1837 7.74863 21.7225C7.73255 21.5581 7.72295 21.3945 7.71961 21.232L20.1634 22.4794Z"/>
</mask>
<path fill-rule="evenodd" clip-rule="evenodd" d="M20.3116 20.9868C20.3083 20.8245 20.2987 20.661 20.2826 20.4968C19.9441 17.0356 16.8639 14.5042 13.4027 14.8427C10.6234 15.1145 8.44361 17.1542 7.86789 19.7394L20.3116 20.9868ZM20.1634 22.4794C19.5879 25.0649 17.408 27.1048 14.6285 27.3766C11.1673 27.7151 8.08712 25.1837 7.74863 21.7225C7.73255 21.5581 7.72295 21.3945 7.71961 21.232L20.1634 22.4794Z" fill="url(#paint1_linear_364_39)"/>
<path d="M20.3116 20.9868L20.0124 23.9718L23.3807 24.3095L23.311 20.925L20.3116 20.9868ZM7.86789 19.7394L4.93962 19.0873L4.20473 22.3872L7.56866 22.7244L7.86789 19.7394ZM20.1634 22.4794L23.0918 23.1313L23.8263 19.8316L20.4627 19.4944L20.1634 22.4794ZM7.71961 21.232L8.01884 18.247L4.65081 17.9094L4.72024 21.2936L7.71961 21.232ZM17.2968 20.7888C17.3054 20.8764 17.3105 20.963 17.3122 21.0485L23.311 20.925C23.306 20.6859 23.2919 20.4457 23.2683 20.2048L17.2968 20.7888ZM13.6947 17.8284C15.5069 17.6512 17.1196 18.9766 17.2968 20.7888L23.2683 20.2048C22.7686 15.0946 18.2209 11.3572 13.1107 11.8569L13.6947 17.8284ZM10.7962 20.3915C11.0983 19.0347 12.2441 17.9703 13.6947 17.8284L13.1107 11.8569C9.00271 12.2587 5.78891 15.2737 4.93962 19.0873L10.7962 20.3915ZM7.56866 22.7244L20.0124 23.9718L20.6108 18.0017L8.16712 16.7543L7.56866 22.7244ZM17.2351 21.8276C16.933 23.1845 15.7872 24.249 14.3365 24.3909L14.9205 30.3624C19.0288 29.9606 22.2427 26.9453 23.0918 23.1313L17.2351 21.8276ZM14.3365 24.3909C12.5243 24.5681 10.9116 23.2427 10.7344 21.4305L4.76288 22.0145C5.26263 27.1247 9.81035 30.8621 14.9205 30.3624L14.3365 24.3909ZM10.7344 21.4305C10.7258 21.3428 10.7207 21.2561 10.719 21.1705L4.72024 21.2936C4.72515 21.5329 4.73929 21.7734 4.76288 22.0145L10.7344 21.4305ZM20.4627 19.4944L8.01884 18.247L7.42038 24.2171L19.8642 25.4645L20.4627 19.4944Z" fill="url(#paint2_radial_364_39)" mask="url(#path-5-outside-3_364_39)"/>
<defs>
<linearGradient id="paint0_linear_364_39" x1="28.0937" y1="24.0156" x2="-8.36965e-07" y2="22.5625" gradientUnits="userSpaceOnUse">
<stop stop-color="#5E5E5E"/>
<stop offset="1" stop-color="#C4C4C4"/>
</linearGradient>
<linearGradient id="paint1_linear_364_39" x1="13.4027" y1="14.8427" x2="14.6285" y2="27.3766" gradientUnits="userSpaceOnUse">
<stop stop-color="#767676"/>
<stop offset="0.45" stop-color="#404040"/>
<stop offset="1" stop-color="#595959"/>
</linearGradient>
<radialGradient id="paint2_radial_364_39" cx="0" cy="0" r="1" gradientUnits="userSpaceOnUse" gradientTransform="translate(14.0156 21.1097) rotate(84.4144) scale(9.23542)">
<stop/>
<stop offset="0.664391" stop-color="#040404"/>
<stop offset="1" stop-color="#262626" stop-opacity="0"/>
</radialGradient>
</defs>
</svg>
