<?xml version="1.0" encoding="utf-8"?>
<!DOCTYPE svg PUBLIC "-//W3C//DTD SVG 1.1//EN" "http://www.w3.org/Graphics/SVG/1.1/DTD/svg11.dtd">

<svg xmlns="http://www.w3.org/2000/svg" xmlns:xlink="http://www.w3.org/1999/xlink">
    <symbol
        id="arrow-left"
        viewBox="0 0 33 33"
        fill="none"
        xmlns="http://www.w3.org/2000/svg">
        <path d="M30 0L30 33L3.5 16.5L30 0Z" fill="white" />
    </symbol>
    <symbol
        id="arrow-right"
        viewBox="0 0 33 33"
        fill="none"
        xmlns="http://www.w3.org/2000/svg">
        <path d="M3 33V0L29.5 16.5L3 33Z" fill="white" />
    </symbol>
    <symbol id="arrow-up" viewBox="0 0 34 27" fill="none" xmlns="http://www.w3.org/2000/svg">
        <path d="M17.5 0L0.5 27H34L17.5 0Z" fill="white"/>
    </symbol>
    <symbol id="arrow-down" viewBox="0 0 34 27" fill="none" xmlns="http://www.w3.org/2000/svg">
        <path d="M17 27L34 0L0.500002 -2.92866e-06L17 27Z" fill="white"/>
    </symbol>
    <symbol id="help-icon" viewBox="0 0 16 18" fill="none" xmlns="http://www.w3.org/2000/svg">
        <path d="M6.65625 11.669V11.3793C6.65625 10.7152 6.70857 10.186 6.81321 9.79155C6.91785 
        9.39714 7.0728 9.0812 7.27805 8.84375C7.48331 8.60227 7.73485 8.38494 8.03267 8.19176C8.29025 
        8.02273 8.51965 7.85973 8.72088 7.70277C8.92614 7.54581 9.08712 7.37879 9.20384 7.2017C9.32457 
        7.02462 9.38494 6.82339 9.38494 6.59801C9.38494 6.39678 9.33665 6.2197 9.24006 6.06676C9.14347 
        5.91383 9.01267 5.7951 8.84766 5.71058C8.68265 5.62607 8.49953 5.58381 8.2983 5.58381C8.08097 
        5.58381 7.87973 5.63411 7.6946 5.73473C7.51349 5.83535 7.3666 5.97419 7.25391 6.15128C7.14524 
        6.32836 7.09091 6.53362 7.09091 6.76705H4C4.00805 5.88163 4.20928 5.16323 4.60369 4.61186C4.99811 
        4.05646 5.52131 3.64998 6.1733 3.3924C6.82528 3.1308 7.54167 3 8.32244 3C9.18371 3 9.95241 3.12678 
        10.6286 3.38033C11.3047 3.62985 11.838 4.00817 12.2283 4.51527C12.6187 5.01835 12.8139 5.6482 12.8139 
        6.40483C12.8139 6.89181 12.7294 7.32043 12.5604 7.6907C12.3954 8.05694 12.1639 8.38092 11.8661 
        8.66264C11.5723 8.94034 11.2282 9.19389 10.8338 9.4233C10.544 9.59233 10.3005 9.7674 10.1033 
        9.94851C9.90613 10.1256 9.75722 10.3288 9.65661 10.5582C9.55599 10.7836 9.50568 11.0573 9.50568 
        11.3793V11.669H6.65625ZM8.12926 15.7259C7.66241 15.7259 7.26196 15.5629 6.92791 15.2369C6.59789 
        14.9068 6.4349 14.5064 6.43892 14.0355C6.4349 13.5767 6.59789 13.1843 6.92791 12.8583C7.26196 12.5323 
        7.66241 12.3693 8.12926 12.3693C8.57197 12.3693 8.96236 12.5323 9.30043 12.8583C9.64252 13.1843 9.81558 
        13.5767 9.8196 14.0355C9.81558 14.3494 9.73307 14.6352 9.57209 14.8928C9.41513 15.1463 9.20987 15.3496 
        8.95632 15.5025C8.70277 15.6514 8.42708 15.7259 8.12926 15.7259Z" fill="white"/>
    </symbol>
    <symbol id="pause-icon" viewBox="0 0 16 18" fill="none" xmlns="http://www.w3.org/2000/svg">
        <rect x="2" y="3" width="5" height="12" rx="2" fill="white"/>
        <rect x="10" y="3" width="5" height="12" rx="2" fill="white"/>
    </symbol>
    <symbol id="fire-icon" viewBox="0 0 22 21" fill="none" xmlns="http://www.w3.org/2000/svg">
        <path d="M2.50011 10.5001C-1.49872 14.4988 3.33034 18.8307 6.99658 19.999C6.99701 19.9991 6.99746 19.999 
        6.99771 19.9986L6.99796 19.9982C6.99819 19.9979 6.99817 19.9974 6.99793 19.9971C5.00296 17.1988 7.49824 
        13.5031 8.99786 12.0023C8.99816 12.002 8.9986 12.0019 8.99898 12.0021L8.99943 12.0023C8.99978 12.0025 9 
        12.0028 9 12.0032C9.00103 13.9987 9.99762 15.1639 10.498 15.4988C10.4983 15.499 10.4987 15.499 10.499 
        15.4988L10.4995 15.4986C10.4998 15.4984 10.5 15.4981 10.5 15.4977C10.502 14.6979 11.5011 13.4996 12.9991 
        12.5007C12.9993 12.5006 12.9995 12.5005 12.9997 12.5006L13.0003 12.5006C13.0005 12.5006 13.0007 12.5007 
        13.0008 12.5008C15.4987 14.5 14.8339 17.9971 14.5005 19.4981C14.5004 19.4984 14.5005 19.4988 14.5008 
        19.499L14.5012 19.4994C14.5014 19.4996 14.5018 19.4997 14.5021 19.4996C21.298 17.8995 21.0001 12.5028 
        20.0008 9.50264C20.0007 9.50226 20.0004 9.50201 20 9.50197L19.9994 9.50191C19.9991 9.50188 19.9987 
        9.50205 19.9985 9.50236C18.9996 10.9997 18.0007 11.4995 17.0017 11.5001C17.0014 11.5001 17.0011 11.5 
        17.001 11.4997L17.0006 11.4992C17.0004 11.499 17.0003 11.4987 17.0004 11.4984C18.5984 4.70122 11.3365 
        1.66818 7.50284 1.0006C7.50243 1.00053 7.50204 1.00073 7.50183 1.00109L7.50154 1.00157C7.50136 1.00188 
        7.50137 1.00229 7.50156 1.0026C10.9987 7.00006 6.25791 6.74244 2.50011 10.5001Z" fill="white" stroke="white"/>
    </symbol>
    <symbol id="close-icon" viewBox="0 0 17 17" fill="none" xmlns="http://www.w3.org/2000/svg">
        <path fill-rule="evenodd" clip-rule="evenodd" d="M5.55948 9.14656C5.95 8.75604 5.95 8.12287 5.55948 
        7.73235L1.14644 3.3193C0.755914 2.92878 0.755914 2.29561 1.14644 1.90509L1.90497 1.14656C2.29549 
        0.756036 2.92866 0.756036 3.31918 1.14656L7.73222 5.5596C8.12275 5.95013 8.75591 5.95013 9.14644 
        5.5596L13.5595 1.14656C13.95 0.756036 14.5832 0.756036 14.9737 1.14656L15.7322 1.90509C16.1227 
        2.29561 16.1227 2.92878 15.7322 3.3193L11.3192 7.73235C10.9287 8.12287 10.9287 8.75604 11.3192 
        9.14656L15.7322 13.5596C16.1227 13.9501 16.1227 14.5833 15.7322 14.9738L14.9737 15.7323C14.5832 
        16.1229 13.95 16.1229 13.5595 15.7323L9.14644 11.3193C8.75591 10.9288 8.12275 10.9288 7.73222 
        11.3193L3.31918 15.7323C2.92866 16.1229 2.29549 16.1229 1.90497 15.7323L1.14644 14.9738C0.755914 
        14.5833 0.755914 13.9501 1.14644 13.5596L5.55948 9.14656Z" fill="white"/>
    </symbol>
    <symbol id="message-icon" width="12" height="10" viewBox="0 0 12 10" fill="none" xmlns="http://www.w3.org/2000/svg">
        <path d="M11.2443 2.25048H8.76929V0.500594C8.76937 0.43278 8.75566 0.365657 8.72898 0.303309C8.70231 0.240961 8.66322 0.184691 8.61411 0.137922C8.565 0.0911538 8.50689 0.0548641 8.44331 0.031261C8.37974 0.00765783 8.31202 -0.00276537 8.24429 0.000625401H1.29429C1.22655 -0.00276537 1.15884 0.00765783 1.09526 0.031261C1.03168 0.0548641 0.97357 0.0911538 0.92446 0.137922C0.875349 0.184691 0.836268 0.240961 0.809592 0.303309C0.782915 0.365657 0.769203 0.43278 0.769288 0.500594V7.50016C0.769288 7.56646 0.795627 7.63004 0.842511 7.67692C0.889395 7.7238 0.952983 7.75014 1.01929 7.75014C1.0925 7.74839 1.16297 7.72196 1.21929 7.67515L3.51929 5.50028H3.76929V7.25017C3.7692 7.31799 3.78292 7.38511 3.80959 7.44746C3.83627 7.50981 3.87535 7.56608 3.92446 7.61284C3.97357 7.65961 4.03168 7.6959 4.09526 7.7195C4.15884 7.74311 4.22655 7.75353 4.29429 7.75014H9.01929L11.3193 9.925C11.3756 9.97182 11.4461 9.99825 11.5193 10C11.5856 10 11.6492 9.97366 11.6961 9.92678C11.7429 9.8799 11.7693 9.81632 11.7693 9.75002V2.75045C11.7694 2.68264 11.7557 2.61552 11.729 2.55317C11.7023 2.49082 11.6632 2.43455 11.6141 2.38778C11.565 2.34101 11.5069 2.30472 11.4433 2.28112C11.3797 2.25752 11.312 2.24709 11.2443 2.25048ZM3.11929 4.50034L2.84429 4.77533L1.76929 5.77526V1.00056H7.76929V4.50034H3.11929ZM10.7693 8.02512L9.69429 7.02519L9.41929 6.7502H4.76929V5.50028H8.24429C8.31202 5.50367 8.37974 5.49325 8.44331 5.46965C8.50689 5.44604 8.565 5.40975 8.61411 5.36298C8.66322 5.31622 8.70231 5.25995 8.72898 5.1976C8.75566 5.13525 8.76937 5.06813 8.76929 5.00031V3.25042H10.7693V8.02512Z" fill="white"/>
    </symbol>
    <symbol id="share-icon" width="10" height="10" viewBox="0 0 10 10" fill="none" xmlns="http://www.w3.org/2000/svg">
        <path fill-rule="evenodd" clip-rule="evenodd" d="M7.56416 0C6.6437 0 5.89749 0.74619 5.89749 1.66667C5.89749 1.76713 5.90636 1.86552 5.92344 1.96109L3.49745 3.65927C3.48512 3.6679 3.47345 3.67712 3.46246 3.68687C3.17951 3.46537 2.82315 3.33333 2.43595 3.33333C1.51548 3.33333 0.769287 4.07954 0.769287 5C0.769287 5.92046 1.51548 6.66667 2.43595 6.66667C2.82315 6.66667 3.17951 6.53462 3.46246 6.31313C3.47345 6.32287 3.48512 6.3321 3.49745 6.34072L5.92344 8.03892C5.90636 8.13446 5.89749 8.23287 5.89749 8.33333C5.89749 9.25379 6.6437 10 7.56416 10C8.48462 10 9.23083 9.25379 9.23083 8.33333C9.23083 7.41287 8.48462 6.66667 7.56416 6.66667C7.02426 6.66667 6.54431 6.92338 6.23975 7.32138L3.94265 5.71338C4.04523 5.49713 4.10262 5.25528 4.10262 5C4.10262 4.74472 4.04523 4.50287 3.94265 4.28662L6.23975 2.67862C6.54431 3.07663 7.02426 3.33333 7.56416 3.33333C8.48462 3.33333 9.23083 2.58714 9.23083 1.66667C9.23083 0.74619 8.48462 0 7.56416 0ZM6.66672 1.66667C6.66672 1.17103 7.06852 0.769231 7.56416 0.769231C8.0598 0.769231 8.46159 1.17103 8.46159 1.66667C8.46159 2.16231 8.0598 2.5641 7.56416 2.5641C7.06852 2.5641 6.66672 2.16231 6.66672 1.66667ZM2.43595 4.10256C1.94031 4.10256 1.53852 4.50436 1.53852 5C1.53852 5.49564 1.94031 5.89744 2.43595 5.89744C2.93159 5.89744 3.33339 5.49564 3.33339 5C3.33339 4.50436 2.93159 4.10256 2.43595 4.10256ZM7.56416 7.4359C7.06852 7.4359 6.66672 7.83769 6.66672 8.33333C6.66672 8.82897 7.06852 9.23077 7.56416 9.23077C8.0598 9.23077 8.46159 8.82897 8.46159 8.33333C8.46159 7.83769 8.0598 7.4359 7.56416 7.4359Z" fill="white"/>
    </symbol>
    <symbol id="profile-icon" width="10" height="12" viewBox="0 0 10 12" fill="none" xmlns="http://www.w3.org/2000/svg">
        <path fill-rule="evenodd" clip-rule="evenodd" d="M4.8 1.2C3.80589 1.2 3 2.00589 3 3C3 3.99411 3.80589 4.8 4.8 4.8C5.79409 4.8 6.6 3.99411 6.6 3C6.6 2.00589 5.79409 1.2 4.8 1.2ZM1.8 3C1.8 1.34315 3.14314 0 4.8 0C6.45683 0 7.8 1.34314 7.8 3C7.8 4.65686 6.45683 6 4.8 6C3.14314 6 1.8 4.65685 1.8 3ZM4.8 7.8C2.81178 7.8 1.2 9.41177 1.2 11.4C1.2 11.7314 0.931371 12 0.6 12C0.268629 12 0 11.7314 0 11.4C0 8.74903 2.14904 6.6 4.8 6.6C7.45097 6.6 9.6 8.74903 9.6 11.4C9.6 11.7314 9.33137 12 9 12C8.66863 12 8.4 11.7314 8.4 11.4C8.4 9.41177 6.78823 7.8 4.8 7.8Z" fill="#C5C5C5"/>
    </symbol>
        <symbol id="time-icon" width="13" height="12" viewBox="0 0 13 12" fill="none" xmlns="http://www.w3.org/2000/svg">
            <path fill-rule="evenodd" clip-rule="evenodd" d="M0.599976 6C0.599976 2.68629 3.28627 0 6.59998 0C9.91371 0 12.6 2.68629 12.6 6C12.6 9.31373 9.91371 12 6.59998 12C3.28627 12 0.599976 9.31373 0.599976 6ZM6.59998 0.923077C3.79607 0.923077 1.52305 3.19609 1.52305 6C1.52305 8.80393 3.79607 11.0769 6.59998 11.0769C9.40391 11.0769 11.6769 8.80393 11.6769 6C11.6769 3.19609 9.4039 0.923077 6.59998 0.923077Z" fill="#C5C5C5"/>
            <path fill-rule="evenodd" clip-rule="evenodd" d="M6.59998 1.84615C6.85488 1.84615 7.06151 2.05279 7.06151 2.30769V6C7.06151 6.2549 6.85488 6.46154 6.59998 6.46154C6.34508 6.46154 6.13844 6.2549 6.13844 6V2.30769C6.13844 2.05279 6.34508 1.84615 6.59998 1.84615Z" fill="#C5C5C5"/>
            <path fill-rule="evenodd" clip-rule="evenodd" d="M6.27362 5.67364C6.45386 5.4934 6.74609 5.4934 6.92633 5.67364L9.53556 8.28287C9.71581 8.46312 9.71581 8.75535 9.53556 8.93559C9.35532 9.11583 9.06309 9.11583 8.88285 8.93559L6.27362 6.32636C6.09338 6.14611 6.09338 5.85389 6.27362 5.67364Z" fill="#C5C5C5"/>
    </symbol>
    <symbol id="attach-icon" width="11" height="13" viewBox="0 0 11 13" fill="none" xmlns="http://www.w3.org/2000/svg">
        <path d="M10.0139 6.44333L5.75847 10.6986C5.48432 10.9728 5.16962 11.177 4.83305 11.3135C4.32847 11.5181 3.77449 11.5696 3.24504 11.467C2.71542 11.3644 2.21252 11.1096 1.80135 10.6986C1.52737 10.4246 1.32332 10.1099 1.18665 9.77322C0.982067 9.26864 0.930504 8.71466 1.03314 8.18537C1.13593 7.65575 1.39056 7.15283 1.80138 6.74171L6.56226 1.98083C6.72963 1.81362 6.92083 1.6895 7.12558 1.60655C7.43261 1.48191 7.77049 1.45055 8.09269 1.51294C8.4154 1.57568 8.72077 1.73021 8.97155 1.98083C9.13873 2.14803 9.26272 2.33923 9.3458 2.54415C9.47044 2.851 9.50183 3.18873 9.43925 3.51128C9.37667 3.83383 9.22217 4.13901 8.97155 4.39014L4.35233 9.00932C4.29293 9.06857 4.22635 9.1116 4.15461 9.14081C4.04747 9.18419 3.92817 9.19553 3.81488 9.17353C3.70125 9.15117 3.59562 9.09794 3.50667 9.00932C3.44728 8.94993 3.40439 8.88351 3.37535 8.81177C3.33164 8.70463 3.32046 8.58517 3.34249 8.47204C3.36469 8.35858 3.41808 8.25278 3.50667 8.16386L7.62047 4.0499L6.92634 3.35575L2.81238 7.46952C2.65919 7.62271 2.54273 7.80191 2.46548 7.99248C2.34967 8.2783 2.32096 8.58951 2.37871 8.88785C2.43611 9.18621 2.58229 9.47353 2.81238 9.70345C2.96573 9.85697 3.14477 9.97343 3.33516 10.0505C3.62114 10.1665 3.93218 10.195 4.23071 10.1373C4.52888 10.0799 4.81639 9.93391 5.04648 9.70345L9.66584 5.08441C9.92699 4.82311 10.1245 4.51926 10.2557 4.19573C10.4524 3.71017 10.5013 3.18055 10.4032 2.67296C10.3053 2.1657 10.058 1.67846 9.66587 1.28651C9.40456 1.02537 9.10069 0.827813 8.77716 0.69668C8.2916 0.49978 7.76198 0.451054 7.25439 0.548999C6.74713 0.647109 6.25991 0.8944 5.86794 1.28653L1.1072 6.04753C0.738925 6.41529 0.461447 6.8428 0.276899 7.29798C-6.34006e-05 7.98128 -0.0691575 8.72697 0.0691714 9.44163C0.207172 10.156 0.554729 10.8408 1.10722 11.3929C1.47515 11.7612 1.90249 12.0387 2.35785 12.2232C3.04097 12.5 3.78685 12.5691 4.50134 12.4309C5.21567 12.2928 5.90047 11.9454 6.45262 11.3929L10.7081 7.13745L10.0139 6.44333Z" fill="#F9F9F9"/>
    </symbol>
    <symbol id="fullscreen-icon" fill="none" viewBox="0 0 13 12"  xmlns="http://www.w3.org/2000/svg">
        <path fill-rule="evenodd" clip-rule="evenodd" d="M0 1a1 1 0 0 1 1-1h8.074a.774.774 0 1 1 0 1.548H1.576v6.567a.788.788 0 0 1-1.576 0V1Zm11.424 9.452V3.885a.788.788 0 0 1 1.576 0V11a1 1 0 0 1-1 1H3.138a.774.774 0 1 1 0-1.548h8.286Z" fill="#fff"/>
    </symbol>
</svg>