<?xml version="1.0" encoding="utf-8"?>
<!DOCTYPE svg PUBLIC "-//W3C//DTD SVG 1.1//EN" "http://www.w3.org/Graphics/SVG/1.1/DTD/svg11.dtd">

<svg xmlns="http://www.w3.org/2000/svg" xmlns:xlink="http://www.w3.org/1999/xlink">
    <symbol
        id="arrow-left"
        viewBox="0 0 33 33"
        fill="none"
        xmlns="http://www.w3.org/2000/svg">
        <path d="M30 0L30 33L3.5 16.5L30 0Z" fill="white" />
    </symbol>
    <symbol
        id="arrow-right"
        viewBox="0 0 33 33"
        fill="none"
        xmlns="http://www.w3.org/2000/svg">
        <path d="M3 33V0L29.5 16.5L3 33Z" fill="white" />
    </symbol>
    <symbol id="arrow-up" viewBox="0 0 34 27" fill="none" xmlns="http://www.w3.org/2000/svg">
        <path d="M17.5 0L0.5 27H34L17.5 0Z" fill="white"/>
    </symbol>
    <symbol id="arrow-down" viewBox="0 0 34 27" fill="none" xmlns="http://www.w3.org/2000/svg">
        <path d="M17 27L34 0L0.500002 -2.92866e-06L17 27Z" fill="white"/>
    </symbol>
    <symbol id="help-icon" viewBox="0 0 16 18" fill="none" xmlns="http://www.w3.org/2000/svg">
        <path d="M6.65625 11.669V11.3793C6.65625 10.7152 6.70857 10.186 6.81321 9.79155C6.91785 
        9.39714 7.0728 9.0812 7.27805 8.84375C7.48331 8.60227 7.73485 8.38494 8.03267 8.19176C8.29025 
        8.02273 8.51965 7.85973 8.72088 7.70277C8.92614 7.54581 9.08712 7.37879 9.20384 7.2017C9.32457 
        7.02462 9.38494 6.82339 9.38494 6.59801C9.38494 6.39678 9.33665 6.2197 9.24006 6.06676C9.14347 
        5.91383 9.01267 5.7951 8.84766 5.71058C8.68265 5.62607 8.49953 5.58381 8.2983 5.58381C8.08097 
        5.58381 7.87973 5.63411 7.6946 5.73473C7.51349 5.83535 7.3666 5.97419 7.25391 6.15128C7.14524 
        6.32836 7.09091 6.53362 7.09091 6.76705H4C4.00805 5.88163 4.20928 5.16323 4.60369 4.61186C4.99811 
        4.05646 5.52131 3.64998 6.1733 3.3924C6.82528 3.1308 7.54167 3 8.32244 3C9.18371 3 9.95241 3.12678 
        10.6286 3.38033C11.3047 3.62985 11.838 4.00817 12.2283 4.51527C12.6187 5.01835 12.8139 5.6482 12.8139 
        6.40483C12.8139 6.89181 12.7294 7.32043 12.5604 7.6907C12.3954 8.05694 12.1639 8.38092 11.8661 
        8.66264C11.5723 8.94034 11.2282 9.19389 10.8338 9.4233C10.544 9.59233 10.3005 9.7674 10.1033 
        9.94851C9.90613 10.1256 9.75722 10.3288 9.65661 10.5582C9.55599 10.7836 9.50568 11.0573 9.50568 
        11.3793V11.669H6.65625ZM8.12926 15.7259C7.66241 15.7259 7.26196 15.5629 6.92791 15.2369C6.59789 
        14.9068 6.4349 14.5064 6.43892 14.0355C6.4349 13.5767 6.59789 13.1843 6.92791 12.8583C7.26196 12.5323 
        7.66241 12.3693 8.12926 12.3693C8.57197 12.3693 8.96236 12.5323 9.30043 12.8583C9.64252 13.1843 9.81558 
        13.5767 9.8196 14.0355C9.81558 14.3494 9.73307 14.6352 9.57209 14.8928C9.41513 15.1463 9.20987 15.3496 
        8.95632 15.5025C8.70277 15.6514 8.42708 15.7259 8.12926 15.7259Z" fill="white"/>
    </symbol>
    <symbol id="pause-icon" viewBox="0 0 16 18" fill="none" xmlns="http://www.w3.org/2000/svg">
        <rect x="2" y="3" width="5" height="12" rx="2" fill="white"/>
        <rect x="10" y="3" width="5" height="12" rx="2" fill="white"/>
    </symbol>
    <symbol id="fire-icon" viewBox="0 0 22 21" fill="none" xmlns="http://www.w3.org/2000/svg">
        <path d="M2.50011 10.5001C-1.49872 14.4988 3.33034 18.8307 6.99658 19.999C6.99701 19.9991 6.99746 19.999 
        6.99771 19.9986L6.99796 19.9982C6.99819 19.9979 6.99817 19.9974 6.99793 19.9971C5.00296 17.1988 7.49824 
        13.5031 8.99786 12.0023C8.99816 12.002 8.9986 12.0019 8.99898 12.0021L8.99943 12.0023C8.99978 12.0025 9 
        12.0028 9 12.0032C9.00103 13.9987 9.99762 15.1639 10.498 15.4988C10.4983 15.499 10.4987 15.499 10.499 
        15.4988L10.4995 15.4986C10.4998 15.4984 10.5 15.4981 10.5 15.4977C10.502 14.6979 11.5011 13.4996 12.9991 
        12.5007C12.9993 12.5006 12.9995 12.5005 12.9997 12.5006L13.0003 12.5006C13.0005 12.5006 13.0007 12.5007 
        13.0008 12.5008C15.4987 14.5 14.8339 17.9971 14.5005 19.4981C14.5004 19.4984 14.5005 19.4988 14.5008 
        19.499L14.5012 19.4994C14.5014 19.4996 14.5018 19.4997 14.5021 19.4996C21.298 17.8995 21.0001 12.5028 
        20.0008 9.50264C20.0007 9.50226 20.0004 9.50201 20 9.50197L19.9994 9.50191C19.9991 9.50188 19.9987 
        9.50205 19.9985 9.50236C18.9996 10.9997 18.0007 11.4995 17.0017 11.5001C17.0014 11.5001 17.0011 11.5 
        17.001 11.4997L17.0006 11.4992C17.0004 11.499 17.0003 11.4987 17.0004 11.4984C18.5984 4.70122 11.3365 
        1.66818 7.50284 1.0006C7.50243 1.00053 7.50204 1.00073 7.50183 1.00109L7.50154 1.00157C7.50136 1.00188 
        7.50137 1.00229 7.50156 1.0026C10.9987 7.00006 6.25791 6.74244 2.50011 10.5001Z" fill="white" stroke="white"/>
    </symbol>
    <symbol id="close-icon" viewBox="0 0 17 17" fill="none" xmlns="http://www.w3.org/2000/svg">
        <path fill-rule="evenodd" clip-rule="evenodd" d="M5.55948 9.14656C5.95 8.75604 5.95 8.12287 5.55948 
        7.73235L1.14644 3.3193C0.755914 2.92878 0.755914 2.29561 1.14644 1.90509L1.90497 1.14656C2.29549 
        0.756036 2.92866 0.756036 3.31918 1.14656L7.73222 5.5596C8.12275 5.95013 8.75591 5.95013 9.14644 
        5.5596L13.5595 1.14656C13.95 0.756036 14.5832 0.756036 14.9737 1.14656L15.7322 1.90509C16.1227 
        2.29561 16.1227 2.92878 15.7322 3.3193L11.3192 7.73235C10.9287 8.12287 10.9287 8.75604 11.3192 
        9.14656L15.7322 13.5596C16.1227 13.9501 16.1227 14.5833 15.7322 14.9738L14.9737 15.7323C14.5832 
        16.1229 13.95 16.1229 13.5595 15.7323L9.14644 11.3193C8.75591 10.9288 8.12275 10.9288 7.73222 
        11.3193L3.31918 15.7323C2.92866 16.1229 2.29549 16.1229 1.90497 15.7323L1.14644 14.9738C0.755914 
        14.5833 0.755914 13.9501 1.14644 13.5596L5.55948 9.14656Z" fill="white"/>
    </symbol>
</svg>